SplineFontDB: 3.0
FontName: Unna-Bold
FullName: Unna-Bold
FamilyName: Unna
Weight: Bold
Copyright: Copyright (c) 2011-2014, Omnibus-Type (www.omnibus-type.com omnibus.type@gmail.com) with Reserved Font Name 'Unna'

StartChar: .notdef
Encoding: 65536 -1 0
Width: 500
Flags: MW
HStem: 0 50<80 420 80 500> 650 50<80 420 80 80>
VStem: 0 50<95 605 95 700> 450 50<95 605 605 605>
LayerCount: 2
Fore
SplineSet
0 0 m 1
 0 700 l 1
 500 700 l 1
 500 0 l 1
 0 0 l 1
250 395 m 1
 420 650 l 1
 80 650 l 1
 250 395 l 1
280 350 m 1
 450 95 l 1
 450 605 l 1
 280 350 l 1
80 50 m 1
 420 50 l 1
 250 305 l 1
 80 50 l 1
50 605 m 1
 50 95 l 1
 220 350 l 1
 50 605 l 1
EndSplineSet
EndChar

StartChar: A
Encoding: 65 65 1
Width: 613
Flags: MW
HStem: 0 35<9 13 13 19.5 9 161 -20 13 603 608> 186 35<156 348 156 362 142 348> 587 20G<282 331 331 331>
VStem: -20 181<0 37 0 37>
LayerCount: 2
Fore
SplineSet
633 37 m 1
 633 0 l 1
 333 0 l 1
 333 37 l 1
 379 35 l 1
 419 32 412 67 399 98 c 2
 362 186 l 1
 142 186 l 1
 108 104 l 2
 100 86 94 67 94 54 c 0
 94 41 100 33 116 34 c 2
 161 37 l 1
 161 0 l 1
 -20 0 l 1
 -20 37 l 1
 9 35 l 1
 13 35 l 2
 26 35 37 41 46 54 c 0
 56 68 66 87 76 112 c 2
 282 607 l 1
 331 607 l 1
 539 110 l 2
 549 85 559 66 568 53 c 0
 577 41 588 35 603 35 c 2
 608 35 l 1
 633 37 l 1
348 221 m 1
 251 451 l 1
 156 221 l 1
 348 221 l 1
EndSplineSet
Substitution2: "Single Substitution lookup 17 subtable" ordfeminine
Substitution2: "'aalt' Access All Alternates lookup 0 subtable" ordfeminine
Position2: "'cpsp' Capital Spacing lookup 0 per glyph data 2" dx=5 dy=0 dh=10 dv=0
EndChar

StartChar: Aacute
Encoding: 193 193 2
Width: 613
Flags: MW
HStem: 0 35<9 13 13 19.5 9 161 -20 13 603 608> 186 35<156 348 156 362 142 348> 587 20G<282 331 331 331>
VStem: -20 181<0 37 0 37>
LayerCount: 2
Fore
SplineSet
354 801 m 2
 371 820 375 826 390 826 c 0
 414 826 458 803 458 789 c 0
 458 782 453 777 445 771 c 2
 278 669 l 2
 272 665 262 660 254 660 c 0
 247 660 243 664 243 670 c 0
 243 678 248 685 259 697 c 2
 354 801 l 2
633 0 m 1
 333 0 l 1
 333 37 l 1
 379 35 l 1
 419 32 412 67 399 98 c 2
 362 186 l 1
 142 186 l 1
 108 104 l 2
 100 86 94 67 94 54 c 0
 94 41 100 33 116 34 c 2
 161 37 l 1
 161 0 l 1
 -20 0 l 1
 -20 37 l 1
 9 35 l 1
 13 35 l 2
 26 35 37 41 46 54 c 0
 56 68 66 87 76 112 c 2
 282 607 l 1
 331 607 l 1
 539 110 l 2
 549 85 559 66 568 53 c 0
 577 41 588 35 603 35 c 2
 608 35 l 1
 633 37 l 1
 633 0 l 1
251 451 m 1
 156 221 l 1
 348 221 l 1
 251 451 l 1
EndSplineSet
Position2: "'cpsp' Capital Spacing lookup 0 per glyph data 2" dx=5 dy=0 dh=10 dv=0
EndChar

StartChar: Abreve
Encoding: 258 258 3
Width: 613
Flags: MW
HStem: 0 35<9 13 13 19.5 9 161 -20 13 603 608> 186 35<156 348 156 362 142 348> 587 20G<282 331 331 331> 659 65<279 336 279 348.5>
VStem: -20 181<0 37 0 37>
LayerCount: 2
Fore
SplineSet
444 790 m 1
 442 713 389 659 308 659 c 0
 227 659 175 713 173 790 c 1
 219 790 l 1
 227 758 250 724 308 724 c 0
 364 724 390 758 399 790 c 1
 444 790 l 1
633 0 m 1
 333 0 l 1
 333 37 l 1
 379 35 l 1
 419 32 412 67 399 98 c 2
 362 186 l 1
 142 186 l 1
 108 104 l 2
 100 86 94 67 94 54 c 0
 94 41 100 33 116 34 c 2
 161 37 l 1
 161 0 l 1
 -20 0 l 1
 -20 37 l 1
 9 35 l 1
 13 35 l 2
 26 35 37 41 46 54 c 0
 56 68 66 87 76 112 c 2
 282 607 l 1
 331 607 l 1
 539 110 l 2
 549 85 559 66 568 53 c 0
 577 41 588 35 603 35 c 2
 608 35 l 1
 633 37 l 1
 633 0 l 1
251 451 m 1
 156 221 l 1
 348 221 l 1
 251 451 l 1
EndSplineSet
EndChar

StartChar: Acircumflex
Encoding: 194 194 4
Width: 613
Flags: MW
HStem: 0 35<9 13 13 19.5 9 161 -20 13 603 608> 186 35<156 348 156 362 142 348> 587 20G<282 331 331 331> 744 60<276 309>
VStem: -20 181<0 37 0 37>
LayerCount: 2
Fore
SplineSet
389 756 m 1
 430 710 465 684 465 674 c 0
 465 671 463 666 453 666 c 0
 441 666 428 673 420 678 c 2
 309 744 l 1
 197 678 l 2
 189 673 176 666 164 666 c 0
 155 666 153 671 153 674 c 0
 153 684 188 710 229 756 c 1
 252 780 l 1
 276 804 l 2
 287 816 299 822 309 822 c 0
 319 822 330 816 342 804 c 2
 366 780 l 1
 389 756 l 1
633 0 m 1
 333 0 l 1
 333 37 l 1
 379 35 l 1
 419 32 412 67 399 98 c 2
 362 186 l 1
 142 186 l 1
 108 104 l 2
 100 86 94 67 94 54 c 0
 94 41 100 33 116 34 c 2
 161 37 l 1
 161 0 l 1
 -20 0 l 1
 -20 37 l 1
 9 35 l 1
 13 35 l 2
 26 35 37 41 46 54 c 0
 56 68 66 87 76 112 c 2
 282 607 l 1
 331 607 l 1
 539 110 l 2
 549 85 559 66 568 53 c 0
 577 41 588 35 603 35 c 2
 608 35 l 1
 633 37 l 1
 633 0 l 1
251 451 m 1
 156 221 l 1
 348 221 l 1
 251 451 l 1
EndSplineSet
Position2: "'cpsp' Capital Spacing lookup 0 per glyph data 2" dx=5 dy=0 dh=10 dv=0
EndChar

StartChar: Adieresis
Encoding: 196 196 5
Width: 613
Flags: MW
HStem: 0 35<9 13 13 19.5 9 161 -20 13 603 608> 186 35<156 348 156 362 142 348> 587 20G<282 331 331 331> 681 126<180.5 225 180.5 225.5 390.5 435>
VStem: -20 181<0 37 0 37> 126 154<724.5 763> 336 154<724.5 763>
LayerCount: 2
Fore
SplineSet
126 744 m 0xf6
 126 782 158 807 203 807 c 0
 247 807 280 782 280 744 c 0
 280 705 248 681 203 681 c 0
 158 681 126 705 126 744 c 0xf6
336 744 m 0
 336 782 368 807 413 807 c 0
 457 807 490 782 490 744 c 0
 490 705 458 681 413 681 c 0
 368 681 336 705 336 744 c 0
633 0 m 1
 333 0 l 1
 333 37 l 1
 379 35 l 1
 419 32 412 67 399 98 c 2
 362 186 l 1
 142 186 l 1
 108 104 l 2
 100 86 94 67 94 54 c 0
 94 41 100 33 116 34 c 2
 161 37 l 1
 161 0 l 1
 -20 0 l 1
 -20 37 l 1
 9 35 l 1
 13 35 l 2
 26 35 37 41 46 54 c 0
 56 68 66 87 76 112 c 2xfa
 282 607 l 1
 331 607 l 1
 539 110 l 2
 549 85 559 66 568 53 c 0
 577 41 588 35 603 35 c 2
 608 35 l 1
 633 37 l 1
 633 0 l 1
251 451 m 1
 156 221 l 1
 348 221 l 1
 251 451 l 1
EndSplineSet
Position2: "'cpsp' Capital Spacing lookup 0 per glyph data 2" dx=5 dy=0 dh=10 dv=0
EndChar

StartChar: Agrave
Encoding: 192 192 6
Width: 613
Flags: MW
HStem: 0 35<9 13 13 19.5 9 161 -20 13 603 608> 186 35<156 348 156 362 142 348> 587 20G<282 331 331 331>
VStem: -20 181<0 37 0 37>
LayerCount: 2
Fore
SplineSet
265 801 m 2
 248 820 244 826 229 826 c 0
 205 826 161 803 161 789 c 0
 161 782 166 777 174 771 c 2
 341 669 l 2
 347 665 357 660 365 660 c 0
 372 660 376 664 376 670 c 0
 376 678 371 685 360 697 c 2
 265 801 l 2
633 0 m 1
 333 0 l 1
 333 37 l 1
 379 35 l 1
 419 32 412 67 399 98 c 2
 362 186 l 1
 142 186 l 1
 108 104 l 2
 100 86 94 67 94 54 c 0
 94 41 100 33 116 34 c 2
 161 37 l 1
 161 0 l 1
 -20 0 l 1
 -20 37 l 1
 9 35 l 1
 13 35 l 2
 26 35 37 41 46 54 c 0
 56 68 66 87 76 112 c 2
 282 607 l 1
 331 607 l 1
 539 110 l 2
 549 85 559 66 568 53 c 0
 577 41 588 35 603 35 c 2
 608 35 l 1
 633 37 l 1
 633 0 l 1
251 451 m 1
 156 221 l 1
 348 221 l 1
 251 451 l 1
EndSplineSet
Position2: "'cpsp' Capital Spacing lookup 0 per glyph data 2" dx=5 dy=0 dh=10 dv=0
EndChar

StartChar: Amacron
Encoding: 256 256 7
Width: 613
Flags: MW
HStem: 0 35<9 13 13 19.5 9 161 -20 13 603 608> 186 35<156 348 156 362 142 348> 587 20G<282 331 331 331> 699 47<189 428 189 428>
VStem: -20 181<0 37 0 37> 189 239<699 746 699 746>
LayerCount: 2
Fore
SplineSet
189 746 m 1
 428 746 l 1
 428 699 l 1
 189 699 l 1
 189 746 l 1
633 0 m 1
 333 0 l 1
 333 37 l 1
 379 35 l 1
 419 32 412 67 399 98 c 2
 362 186 l 1
 142 186 l 1
 108 104 l 2
 100 86 94 67 94 54 c 0
 94 41 100 33 116 34 c 2
 161 37 l 1
 161 0 l 1
 -20 0 l 1
 -20 37 l 1
 9 35 l 1
 13 35 l 2
 26 35 37 41 46 54 c 0
 56 68 66 87 76 112 c 2xf8
 282 607 l 1
 331 607 l 1
 539 110 l 2
 549 85 559 66 568 53 c 0
 577 41 588 35 603 35 c 2
 608 35 l 1
 633 37 l 1
 633 0 l 1
251 451 m 1
 156 221 l 1
 348 221 l 1
 251 451 l 1
EndSplineSet
EndChar

StartChar: Aogonek
Encoding: 260 260 8
Width: 613
Flags: MW
HStem: -159 58<558.5 561.5> 0 35<9 13 13 19.5 9 161 -20 13 603 608> 186 35<156 348 156 362 142 348> 587 20G<282 331 331 331>
VStem: -20 181<0 37 0 37> 459 67<-111 -44.5>
LayerCount: 2
Fore
SplineSet
658 -99 m 1
 625 -137 583 -159 540 -159 c 0
 499 -159 459 -135 459 -87 c 0
 459 -54 476 -23 509 0 c 1
 333 0 l 1
 333 37 l 1
 379 35 l 1
 419 32 412 67 399 98 c 2
 362 186 l 1
 142 186 l 1
 108 104 l 2
 100 86 94 67 94 54 c 0
 94 41 100 33 116 34 c 2
 161 37 l 1
 161 0 l 1
 -20 0 l 1
 -20 37 l 1
 9 35 l 1
 13 35 l 2
 26 35 37 41 46 54 c 0
 56 68 66 87 76 112 c 2
 282 607 l 1
 331 607 l 1
 539 110 l 2
 549 85 559 66 568 53 c 0
 577 41 588 35 603 35 c 2
 608 35 l 1
 633 37 l 1
 633 0 l 1
 549 0 l 1
 534 -14 526 -34 526 -55 c 0
 526 -80 541 -101 576 -101 c 0
 600 -101 624 -93 646 -80 c 1
 658 -99 l 1
348 221 m 1
 251 451 l 1
 156 221 l 1
 348 221 l 1
EndSplineSet
EndChar

StartChar: Aring
Encoding: 197 197 9
Width: 613
Flags: MW
HStem: 0 35<9 13 13 19.5 9 161 -20 13 603 608> 186 35<156 348 156 362 142 348> 587 20G<282 331 331 331> 665 41<296.5 319.5 296.5 333.5> 789 42<296.5 319.5>
VStem: -20 181<0 37 0 37> 221 50<735 760.5 735 771.5> 346 50<735 760.5>
LayerCount: 2
Fore
SplineSet
221 748 m 0
 221 795 259 831 308 831 c 0
 359 831 396 796 396 748 c 0
 396 700 359 665 308 665 c 0
 258 665 221 700 221 748 c 0
271 748 m 0
 271 722 285 706 308 706 c 0
 331 706 346 722 346 748 c 0
 346 773 331 789 308 789 c 0
 285 789 271 773 271 748 c 0
633 0 m 1
 333 0 l 1
 333 37 l 1
 379 35 l 1
 419 32 412 67 399 98 c 2
 362 186 l 1
 142 186 l 1
 108 104 l 2
 100 86 94 67 94 54 c 0
 94 41 100 33 116 34 c 2
 161 37 l 1
 161 0 l 1
 -20 0 l 1
 -20 37 l 1
 9 35 l 1
 13 35 l 2
 26 35 37 41 46 54 c 0
 56 68 66 87 76 112 c 2
 282 607 l 1
 331 607 l 1
 539 110 l 2
 549 85 559 66 568 53 c 0
 577 41 588 35 603 35 c 2
 608 35 l 1
 633 37 l 1
 633 0 l 1
251 451 m 1
 156 221 l 1
 348 221 l 1
 251 451 l 1
EndSplineSet
Position2: "'cpsp' Capital Spacing lookup 0 per glyph data 2" dx=5 dy=0 dh=10 dv=0
EndChar

StartChar: Atilde
Encoding: 195 195 10
Width: 613
Flags: MW
HStem: 0 35<9 13 13 19.5 9 161 -20 13 603 608> 186 35<156 348 156 362 142 348> 587 20G<282 331 331 331> 671 61<373 401.5 373 410.5> 711 60<217.5 246>
VStem: -20 181<0 37 0 37> 166 28<672 684 672 700.5> 425 27<758.5 770>
LayerCount: 2
Fore
SplineSet
166 672 m 1xeb
 166 729 186 771 230 771 c 0xeb
 278 771 354 732 392 732 c 0
 411 732 425 747 425 770 c 1
 452 770 l 1
 452 713 433 671 388 671 c 0xf3
 339 671 265 711 227 711 c 0
 208 711 194 696 194 672 c 1
 166 672 l 1xeb
633 0 m 1
 333 0 l 1
 333 37 l 1
 379 35 l 1
 419 32 412 67 399 98 c 2
 362 186 l 1
 142 186 l 1
 108 104 l 2
 100 86 94 67 94 54 c 0
 94 41 100 33 116 34 c 2
 161 37 l 1
 161 0 l 1
 -20 0 l 1
 -20 37 l 1
 9 35 l 1
 13 35 l 2
 26 35 37 41 46 54 c 0
 56 68 66 87 76 112 c 2xed
 282 607 l 1
 331 607 l 1
 539 110 l 2
 549 85 559 66 568 53 c 0
 577 41 588 35 603 35 c 2
 608 35 l 1
 633 37 l 1
 633 0 l 1
251 451 m 1
 156 221 l 1
 348 221 l 1
 251 451 l 1
EndSplineSet
Position2: "'cpsp' Capital Spacing lookup 0 per glyph data 2" dx=5 dy=0 dh=10 dv=0
EndChar

StartChar: AE
Encoding: 198 198 11
Width: 850
Flags: MW
HStem: 0 34<587 631 631 678> 186 35<189 390 189 397 167 390> 289 35<520 575 575 576 520 520> 406 20G<651 686 686 686> 443 154<753 754 275 786 753 753> 562 35<471 611 471 471>
VStem: -20 186<0 38 0 38> 651 35<395.5 426> 753 33<443 484.5> 772 34<126.5 171>
LayerCount: 2
Fore
SplineSet
786 443 m 1xf980
 753 443 l 1xf980
 753 526 707 562 611 562 c 2
 471 562 l 1
 514 324 l 1
 575 324 l 2
 618 324 651 365 651 426 c 1
 686 426 l 1
 686 191 l 1
 652 191 l 1
 652 247 619 289 576 289 c 2
 520 289 l 1
 566 53 l 2
 569 42 576 34 587 34 c 2
 631 34 l 2
 725 34 772 82 772 171 c 1
 806 171 l 1
 806 -3 l 1
 767 0 727 0 711 0 c 2xf540
 342 0 l 1
 342 38 l 1
 399 35 l 2
 416 34 424 48 421 60 c 2
 397 186 l 1
 167 186 l 1
 109 88 l 2
 103 77 95 61 95 49 c 0
 95 40 100 34 115 35 c 2
 166 38 l 1
 166 0 l 1
 -20 0 l 1
 -20 38 l 1
 11 35 l 1
 30 32 45 51 71 94 c 2
 341 536 l 2
 343 539 343 541 343 544 c 0
 343 553 335 560 326 560 c 2
 275 558 l 1
 275 597 l 1
 745 597 l 2
 763 597 778 598 786 599 c 1xf780
 786 443 l 1xf980
189 221 m 1
 390 221 l 1
 343 473 l 1
 189 221 l 1
EndSplineSet
Position2: "'cpsp' Capital Spacing lookup 0 per glyph data 2" dx=5 dy=0 dh=10 dv=0
EndChar

StartChar: B
Encoding: 66 66 12
Width: 581
Flags: MW
HStem: 0 36<255 304 304 335> 294 35<241 293 241 293 293 317> 562 35<86 91.5 249.5 253 253 291>
VStem: 103 138<57 294 329 542 542 546.5> 383 140<418.5 488> 414 142<120 206.5 108 210>
LayerCount: 2
Fore
SplineSet
350 597 m 2xf8
 462 597 523 549 523 454 c 0xf8
 523 383 468 332 385 317 c 1
 480 317 556 251 556 162 c 0xf4
 556 54 482 0 335 0 c 2
 39 0 l 1
 39 37 l 1
 87 35 l 2
 98 35 103 42 103 57 c 2
 103 542 l 2
 103 551 97 562 86 562 c 2
 39 560 l 1
 39 597 l 1
 350 597 l 2xf8
253 562 m 2
 246 562 242 558 241 550 c 1
 241 329 l 1
 293 329 l 2
 353 329 383 364 383 449 c 0
 383 527 350 562 291 562 c 2
 253 562 l 2
241 294 m 1xf4
 241 49 l 2
 241 40 246 36 255 36 c 2
 304 36 l 2
 369 36 414 76 414 164 c 0
 414 256 381 294 317 294 c 2
 241 294 l 1xf4
EndSplineSet
Position2: "'cpsp' Capital Spacing lookup 0 per glyph data 2" dx=5 dy=0 dh=10 dv=0
EndChar

StartChar: C
Encoding: 67 67 13
Width: 596
Flags: MW
HStem: -10 35<305 381> 35 132<530 557 557 563> 433 131<525 557 525 525> 575 32<300.5 395.5>
VStem: 30 151<208 386 208 393.5> 525 32<433 433>
LayerCount: 2
Fore
SplineSet
557 35 m 2
 497 35 426 -10 336 -10 c 0
 147 -10 30 106 30 295 c 0
 30 492 146 607 341 607 c 0x9c
 452 607 480 564 557 564 c 1
 554 541 553 513 553 489 c 0
 553 459 555 435 557 433 c 1xbc
 525 433 l 1
 509 511 436 575 355 575 c 0
 246 575 181 477 181 295 c 0
 181 121 251 25 359 25 c 0x9c
 444 25 513 87 530 167 c 1
 566 167 l 1
 561 126 560 95 560 82 c 0xdc
 560 63 561 47 563 35 c 1
 557 35 l 2
EndSplineSet
Position2: "'cpsp' Capital Spacing lookup 0 per glyph data 2" dx=5 dy=0 dh=10 dv=0
EndChar

StartChar: Cacute
Encoding: 262 262 14
Width: 596
Flags: MW
HStem: -10 35<305 381> 35 132<530 557 557 563> 433 131<525 557 525 525> 575 32<300.5 395.5>
VStem: 30 151<208 386 208 393.5> 525 32<433 433>
LayerCount: 2
Fore
SplineSet
372 801 m 2
 389 820 393 826 408 826 c 0
 432 826 476 803 476 789 c 0
 476 782 471 777 463 771 c 2
 296 669 l 2
 290 665 280 660 272 660 c 0
 265 660 261 664 261 670 c 0
 261 678 266 685 277 697 c 2
 372 801 l 2
557 35 m 2
 497 35 426 -10 336 -10 c 0
 147 -10 30 106 30 295 c 0
 30 492 146 607 341 607 c 0x9c
 452 607 480 564 557 564 c 1
 554 541 553 513 553 489 c 0
 553 459 555 435 557 433 c 1xbc
 525 433 l 1
 509 511 436 575 355 575 c 0
 246 575 181 477 181 295 c 0
 181 121 251 25 359 25 c 0x9c
 444 25 513 87 530 167 c 1
 566 167 l 1
 561 126 560 95 560 82 c 0xdc
 560 63 561 47 563 35 c 1
 557 35 l 2
EndSplineSet
EndChar

StartChar: Ccaron
Encoding: 268 268 15
Width: 596
Flags: MW
HStem: -10 35<305 381> 35 132<530 557 557 563> 433 131<525 557 525 525> 575 32<300.5 395.5> 686 60<294 327 327 360>
VStem: 30 151<208 386 208 393.5> 525 32<433 433>
LayerCount: 2
Fore
SplineSet
247 734 m 1
 206 780 171 806 171 816 c 0
 171 819 173 824 183 824 c 0
 195 824 208 817 216 812 c 2
 327 746 l 1
 439 812 l 2
 447 817 460 824 472 824 c 0
 481 824 483 819 483 816 c 0
 483 806 448 780 407 734 c 1
 384 710 l 1
 360 686 l 2
 349 674 337 668 327 668 c 0
 317 668 306 674 294 686 c 2
 270 710 l 1
 247 734 l 1
557 35 m 2
 497 35 426 -10 336 -10 c 0
 147 -10 30 106 30 295 c 0
 30 492 146 607 341 607 c 0x9e
 452 607 480 564 557 564 c 1
 554 541 553 513 553 489 c 0
 553 459 555 435 557 433 c 1xbe
 525 433 l 1
 509 511 436 575 355 575 c 0
 246 575 181 477 181 295 c 0
 181 121 251 25 359 25 c 0x9e
 444 25 513 87 530 167 c 1
 566 167 l 1
 561 126 560 95 560 82 c 0xde
 560 63 561 47 563 35 c 1
 557 35 l 2
EndSplineSet
EndChar

StartChar: Ccedilla
Encoding: 199 199 16
Width: 596
Flags: MW
HStem: -214 35<275.5 330.5> -9 34<305 401.5> 35 132<530 557 557 563> 433 131<525 557 525 525> 575 32<300.5 395.5>
VStem: 30 151<208 386 208 393.5> 265 59<-67.5 -62.5> 333 87<-145 -124.5> 525 32<433 433>
LayerCount: 2
Fore
SplineSet
566 167 m 1
 561 126 560 95 560 82 c 0
 560 63 561 47 563 35 c 1
 557 35 l 2
 499 35 431 -7 346 -10 c 1
 330 -36 l 2
 326 -43 324 -50 324 -55 c 0xef80
 324 -81 420 -60 420 -122 c 0
 420 -186 357 -214 304 -214 c 0
 287 -214 258 -213 235 -198 c 1
 248 -166 l 1
 256 -175 268 -179 283 -179 c 0
 308 -179 333 -157 333 -133 c 0
 333 -116 316 -103 299 -94 c 1xcd80
 276 -80 l 2
 269 -75 265 -70 265 -65 c 0
 265 -60 267 -56 271 -52 c 2
 305 -9 l 1
 134 3 30 117 30 295 c 0
 30 492 146 607 341 607 c 0xcf80
 452 607 480 564 557 564 c 1
 554 541 553 513 553 489 c 0
 553 459 555 435 557 433 c 1xdd80
 525 433 l 1
 509 511 436 575 355 575 c 0
 246 575 181 477 181 295 c 0
 181 121 251 25 359 25 c 0xcd80
 444 25 513 87 530 167 c 1
 566 167 l 1
EndSplineSet
Position2: "'cpsp' Capital Spacing lookup 0 per glyph data 2" dx=5 dy=0 dh=10 dv=0
EndChar

StartChar: D
Encoding: 68 68 17
Width: 634
Flags: MW
HStem: 0 36<243 266 266 295> 562 35<74 80.5 239 243 243 266>
VStem: 93 138<57 541 541 546.5> 456 151<201.5 403.5>
LayerCount: 2
Fore
SplineSet
39 37 m 1
 78 35 l 1
 79 35 l 2
 89 35 93 46 93 57 c 2
 93 541 l 2
 93 552 87 562 74 562 c 2
 39 560 l 1
 39 597 l 1
 283 597 l 2
 501 597 607 516 607 299 c 0
 607 104 509 0 295 0 c 2
 39 0 l 1
 39 37 l 1
231 49 m 2
 231 40 235 36 243 36 c 2
 266 36 l 2
 404 36 456 86 456 298 c 0
 456 509 404 562 266 562 c 2
 243 562 l 2
 235 562 231 558 231 549 c 2
 231 49 l 2
EndSplineSet
Position2: "'cpsp' Capital Spacing lookup 0 per glyph data 2" dx=5 dy=0 dh=10 dv=0
EndChar

StartChar: Eth
Encoding: 208 208 18
Width: 636
Flags: MW
HStem: 0 36<243 266 266 295> 286 43<35 93 35 93 231 376> 562 35<74 80.5 239 243 243 266>
VStem: 93 138<57 286 329 541 541 546.5> 456 151<201.5 403.5>
LayerCount: 2
Fore
SplineSet
283 597 m 2
 501 597 607 516 607 299 c 0
 607 104 509 0 295 0 c 2
 39 0 l 1
 39 37 l 1
 79 35 l 2
 89 35 93 46 93 57 c 2
 93 286 l 1
 35 286 l 1
 35 329 l 1
 93 329 l 1
 93 541 l 2
 93 552 87 562 74 562 c 2
 39 560 l 1
 39 597 l 1
 283 597 l 2
266 36 m 2
 404 36 456 86 456 298 c 0
 456 509 404 562 266 562 c 2
 243 562 l 2
 235 562 231 558 231 549 c 2
 231 329 l 1
 376 329 l 1
 376 286 l 1
 231 286 l 1
 231 49 l 2
 231 40 235 36 243 36 c 2
 266 36 l 2
EndSplineSet
Position2: "'cpsp' Capital Spacing lookup 0 per glyph data 2" dx=5 dy=0 dh=10 dv=0
EndChar

StartChar: Dcaron
Encoding: 270 270 19
Width: 634
Flags: MW
HStem: 0 36<243 266 266 295> 562 35<74 80.5 239 243 243 266> 686 60<270 303 303 336>
VStem: 93 138<57 541 541 546.5> 456 151<201.5 403.5>
LayerCount: 2
Fore
SplineSet
223 734 m 1
 182 780 147 806 147 816 c 0
 147 819 149 824 159 824 c 0
 171 824 184 817 192 812 c 2
 303 746 l 1
 415 812 l 2
 423 817 436 824 448 824 c 0
 457 824 459 819 459 816 c 0
 459 806 424 780 383 734 c 1
 360 710 l 1
 336 686 l 2
 325 674 313 668 303 668 c 0
 293 668 282 674 270 686 c 2
 246 710 l 1
 223 734 l 1
79 35 m 2
 89 35 93 46 93 57 c 2
 93 541 l 2
 93 552 87 562 74 562 c 2
 39 560 l 1
 39 597 l 1
 283 597 l 2
 501 597 607 516 607 299 c 0
 607 104 509 0 295 0 c 2
 39 0 l 1
 39 37 l 1
 79 35 l 2
231 49 m 2
 231 40 235 36 243 36 c 2
 266 36 l 2
 404 36 456 86 456 298 c 0
 456 509 404 562 266 562 c 2
 243 562 l 2
 235 562 231 558 231 549 c 2
 231 49 l 2
EndSplineSet
EndChar

StartChar: Dcroat
Encoding: 272 272 20
Width: 636
Flags: MW
HStem: 0 36<243 266 266 295> 286 43<35 93 35 93 231 376> 562 35<74 80.5 239 243 243 266>
VStem: 93 138<57 286 329 541 541 546.5> 456 151<201.5 403.5>
LayerCount: 2
Fore
SplineSet
283 597 m 2
 501 597 607 516 607 299 c 0
 607 104 509 0 295 0 c 2
 39 0 l 1
 39 37 l 1
 79 35 l 2
 89 35 93 46 93 57 c 2
 93 286 l 1
 35 286 l 1
 35 329 l 1
 93 329 l 1
 93 541 l 2
 93 552 87 562 74 562 c 2
 39 560 l 1
 39 597 l 1
 283 597 l 2
266 36 m 2
 404 36 456 86 456 298 c 0
 456 509 404 562 266 562 c 2
 243 562 l 2
 235 562 231 558 231 549 c 2
 231 329 l 1
 376 329 l 1
 376 286 l 1
 231 286 l 1
 231 49 l 2
 231 40 235 36 243 36 c 2
 266 36 l 2
EndSplineSet
EndChar

StartChar: E
Encoding: 69 69 21
Width: 571
Flags: MW
HStem: 0 36<243 353 353 398.5> 290 35<231 303 231 303> 406 20G<379 413 413 413> 443 154<462 480 480 484 39 497 462 462> 562 35<73 73 239 243 243 320>
VStem: 93 138<57 290 325 541 541 547> 379 34<191 219.5 394 426> 462 35<443 485> 492 35<133 179>
LayerCount: 2
Fore
SplineSet
39 38 m 1xee80
 75 35 l 2
 87 35 93 42 93 57 c 2
 93 541 l 2
 93 553 85 563 73 562 c 2
 39 560 l 1
 39 597 l 1
 480 597 l 2
 488 597 494 597 497 598 c 1xef
 497 443 l 1
 462 443 l 1xf7
 462 527 419 562 320 562 c 2
 243 562 l 2
 235 562 231 557 231 548 c 2
 231 325 l 1
 303 325 l 2
 347 325 379 362 379 426 c 1
 413 426 l 1
 413 191 l 1
 379 191 l 1
 379 248 344 290 303 290 c 2
 231 290 l 1
 231 49 l 2
 231 40 235 36 243 36 c 2
 353 36 l 2
 444 36 492 87 492 179 c 1
 527 179 l 1
 527 -3 l 1
 512 -1 474 0 431 0 c 2
 39 0 l 1
 39 38 l 1xee80
EndSplineSet
Position2: "'cpsp' Capital Spacing lookup 0 per glyph data 2" dx=5 dy=0 dh=10 dv=0
EndChar

StartChar: Eacute
Encoding: 201 201 22
Width: 571
Flags: MW
HStem: 0 36<243 353 353 398.5> 290 35<231 303 231 303> 406 20G<379 413 413 413> 443 154<462 480 480 484 39 497 462 462> 562 35<73 73 239 243 243 320>
VStem: 93 138<57 290 325 541 541 547> 379 34<191 219.5 394 426> 462 35<443 485> 492 35<133 179>
LayerCount: 2
Fore
SplineSet
327 801 m 2xee80
 344 820 348 826 363 826 c 0
 387 826 431 803 431 789 c 0
 431 782 426 777 418 771 c 2
 251 669 l 2
 245 665 235 660 227 660 c 0
 220 660 216 664 216 670 c 0
 216 678 221 685 232 697 c 2
 327 801 l 2xee80
75 35 m 2
 87 35 93 42 93 57 c 2
 93 541 l 2
 93 553 85 563 73 562 c 2
 39 560 l 1
 39 597 l 1
 480 597 l 2
 488 597 494 597 497 598 c 1xef
 497 443 l 1
 462 443 l 1xf7
 462 527 419 562 320 562 c 2
 243 562 l 2
 235 562 231 557 231 548 c 2
 231 325 l 1
 303 325 l 2
 347 325 379 362 379 426 c 1
 413 426 l 1
 413 191 l 1
 379 191 l 1
 379 248 344 290 303 290 c 2
 231 290 l 1
 231 49 l 2
 231 40 235 36 243 36 c 2
 353 36 l 2
 444 36 492 87 492 179 c 1
 527 179 l 1
 527 -3 l 1
 512 -1 474 0 431 0 c 2
 39 0 l 1
 39 38 l 1
 75 35 l 2
EndSplineSet
Position2: "'cpsp' Capital Spacing lookup 0 per glyph data 2" dx=5 dy=0 dh=10 dv=0
EndChar

StartChar: Ecaron
Encoding: 282 282 23
Width: 571
Flags: MW
HStem: 0 36<243 353 353 398.5> 290 35<231 303 231 303> 406 20G<379 413 413 413> 443 154<462 480 480 484 39 497 462 462> 562 35<73 73 239 243 243 320> 686 60<249 282 282 315>
VStem: 93 138<57 290 325 541 541 547> 379 34<191 219.5 394 426> 462 35<443 485> 492 35<133 179>
LayerCount: 2
Fore
SplineSet
202 734 m 1xef40
 161 780 126 806 126 816 c 0
 126 819 128 824 138 824 c 0
 150 824 163 817 171 812 c 2
 282 746 l 1
 394 812 l 2
 402 817 415 824 427 824 c 0
 436 824 438 819 438 816 c 0
 438 806 403 780 362 734 c 1
 339 710 l 1
 315 686 l 2
 304 674 292 668 282 668 c 0
 272 668 261 674 249 686 c 2
 225 710 l 1
 202 734 l 1xef40
75 35 m 2
 87 35 93 42 93 57 c 2
 93 541 l 2
 93 553 85 563 73 562 c 2
 39 560 l 1
 39 597 l 1
 480 597 l 2
 488 597 494 597 497 598 c 1xef80
 497 443 l 1
 462 443 l 1xf780
 462 527 419 562 320 562 c 2
 243 562 l 2
 235 562 231 557 231 548 c 2
 231 325 l 1
 303 325 l 2
 347 325 379 362 379 426 c 1
 413 426 l 1
 413 191 l 1
 379 191 l 1
 379 248 344 290 303 290 c 2
 231 290 l 1
 231 49 l 2
 231 40 235 36 243 36 c 2
 353 36 l 2
 444 36 492 87 492 179 c 1
 527 179 l 1
 527 -3 l 1
 512 -1 474 0 431 0 c 2
 39 0 l 1
 39 38 l 1
 75 35 l 2
EndSplineSet
EndChar

StartChar: Ecircumflex
Encoding: 202 202 24
Width: 571
Flags: MW
HStem: 0 36<243 353 353 398.5> 290 35<231 303 231 303> 406 20G<379 413 413 413> 443 154<462 480 480 484 39 497 462 462> 562 35<73 73 239 243 243 320> 744 60<249 282>
VStem: 93 138<57 290 325 541 541 547> 379 34<191 219.5 394 426> 462 35<443 485> 492 35<133 179>
LayerCount: 2
Fore
SplineSet
362 756 m 1xef40
 403 710 438 684 438 674 c 0
 438 671 436 666 426 666 c 0
 414 666 401 673 393 678 c 2
 282 744 l 1
 170 678 l 2
 162 673 149 666 137 666 c 0
 128 666 126 671 126 674 c 0
 126 684 161 710 202 756 c 1
 225 780 l 1
 249 804 l 2
 260 816 272 822 282 822 c 0
 292 822 303 816 315 804 c 2
 339 780 l 1
 362 756 l 1xef40
75 35 m 2
 87 35 93 42 93 57 c 2
 93 541 l 2
 93 553 85 563 73 562 c 2
 39 560 l 1
 39 597 l 1
 480 597 l 2
 488 597 494 597 497 598 c 1xef80
 497 443 l 1
 462 443 l 1xf780
 462 527 419 562 320 562 c 2
 243 562 l 2
 235 562 231 557 231 548 c 2
 231 325 l 1
 303 325 l 2
 347 325 379 362 379 426 c 1
 413 426 l 1
 413 191 l 1
 379 191 l 1
 379 248 344 290 303 290 c 2
 231 290 l 1
 231 49 l 2
 231 40 235 36 243 36 c 2
 353 36 l 2
 444 36 492 87 492 179 c 1
 527 179 l 1
 527 -3 l 1
 512 -1 474 0 431 0 c 2
 39 0 l 1
 39 38 l 1
 75 35 l 2
EndSplineSet
Position2: "'cpsp' Capital Spacing lookup 0 per glyph data 2" dx=5 dy=0 dh=10 dv=0
EndChar

StartChar: Edieresis
Encoding: 203 203 25
Width: 571
Flags: MW
HStem: 0 36<243 353 353 398.5> 290 35<231 303 231 303> 406 20G<379 413 413 413> 443 154<462 480 480 484 39 497 462 462> 562 35<73 73 239 243 243 320> 681 126<154.5 199 154.5 199.5 364.5 409>
VStem: 93 138<57 290 325 541 541 547> 100 154<724.5 763> 310 154<724.5 763> 379 34<191 219.5 394 426> 462 35<443 485> 492 35<133 179>
LayerCount: 2
Fore
SplineSet
100 744 m 0xed90
 100 782 132 807 177 807 c 0
 221 807 254 782 254 744 c 0
 254 705 222 681 177 681 c 0
 132 681 100 705 100 744 c 0xed90
310 744 m 0
 310 782 342 807 387 807 c 0
 431 807 464 782 464 744 c 0
 464 705 432 681 387 681 c 0
 342 681 310 705 310 744 c 0
75 35 m 2xee50
 87 35 93 42 93 57 c 2
 93 541 l 2
 93 553 85 563 73 562 c 2
 39 560 l 1
 39 597 l 1
 480 597 l 2
 488 597 494 597 497 598 c 1xee60
 497 443 l 1
 462 443 l 1xf660
 462 527 419 562 320 562 c 2
 243 562 l 2
 235 562 231 557 231 548 c 2
 231 325 l 1
 303 325 l 2
 347 325 379 362 379 426 c 1
 413 426 l 1
 413 191 l 1
 379 191 l 1
 379 248 344 290 303 290 c 2
 231 290 l 1
 231 49 l 2
 231 40 235 36 243 36 c 2
 353 36 l 2
 444 36 492 87 492 179 c 1
 527 179 l 1
 527 -3 l 1
 512 -1 474 0 431 0 c 2
 39 0 l 1
 39 38 l 1
 75 35 l 2xee50
EndSplineSet
Position2: "'cpsp' Capital Spacing lookup 0 per glyph data 2" dx=5 dy=0 dh=10 dv=0
EndChar

StartChar: Edotaccent
Encoding: 278 278 26
Width: 571
Flags: MW
HStem: 0 36<243 353 353 398.5> 290 35<231 303 231 303> 406 20G<379 413 413 413> 443 154<462 480 480 484 39 497 462 462> 562 35<73 73 239 243 243 320> 681 126<259.5 304 259.5 304.5>
VStem: 93 138<57 290 325 541 541 547> 205 154<724.5 763> 379 34<191 219.5 394 426> 462 35<443 485> 492 35<133 179>
LayerCount: 2
Fore
SplineSet
205 744 m 0xeda0
 205 782 237 807 282 807 c 0
 326 807 359 782 359 744 c 0
 359 705 327 681 282 681 c 0
 237 681 205 705 205 744 c 0xeda0
75 35 m 2xeea0
 87 35 93 42 93 57 c 2
 93 541 l 2
 93 553 85 563 73 562 c 2
 39 560 l 1
 39 597 l 1
 480 597 l 2
 488 597 494 597 497 598 c 1xeec0
 497 443 l 1
 462 443 l 1xf6c0
 462 527 419 562 320 562 c 2
 243 562 l 2
 235 562 231 557 231 548 c 2
 231 325 l 1
 303 325 l 2
 347 325 379 362 379 426 c 1
 413 426 l 1
 413 191 l 1
 379 191 l 1
 379 248 344 290 303 290 c 2
 231 290 l 1
 231 49 l 2
 231 40 235 36 243 36 c 2
 353 36 l 2
 444 36 492 87 492 179 c 1
 527 179 l 1
 527 -3 l 1
 512 -1 474 0 431 0 c 2
 39 0 l 1
 39 38 l 1
 75 35 l 2xeea0
EndSplineSet
EndChar

StartChar: Egrave
Encoding: 200 200 27
Width: 571
Flags: MW
HStem: 0 36<243 353 353 398.5> 290 35<231 303 231 303> 406 20G<379 413 413 413> 443 154<462 480 480 484 39 497 462 462> 562 35<73 73 239 243 243 320>
VStem: 93 138<57 290 325 541 541 547> 379 34<191 219.5 394 426> 462 35<443 485> 492 35<133 179>
LayerCount: 2
Fore
SplineSet
238 801 m 2xee80
 221 820 217 826 202 826 c 0
 178 826 134 803 134 789 c 0
 134 782 139 777 147 771 c 2
 314 669 l 2
 320 665 330 660 338 660 c 0
 345 660 349 664 349 670 c 0
 349 678 344 685 333 697 c 2
 238 801 l 2xee80
75 35 m 2
 87 35 93 42 93 57 c 2
 93 541 l 2
 93 553 85 563 73 562 c 2
 39 560 l 1
 39 597 l 1
 480 597 l 2
 488 597 494 597 497 598 c 1xef
 497 443 l 1
 462 443 l 1xf7
 462 527 419 562 320 562 c 2
 243 562 l 2
 235 562 231 557 231 548 c 2
 231 325 l 1
 303 325 l 2
 347 325 379 362 379 426 c 1
 413 426 l 1
 413 191 l 1
 379 191 l 1
 379 248 344 290 303 290 c 2
 231 290 l 1
 231 49 l 2
 231 40 235 36 243 36 c 2
 353 36 l 2
 444 36 492 87 492 179 c 1
 527 179 l 1
 527 -3 l 1
 512 -1 474 0 431 0 c 2
 39 0 l 1
 39 38 l 1
 75 35 l 2
EndSplineSet
Position2: "'cpsp' Capital Spacing lookup 0 per glyph data 2" dx=5 dy=0 dh=10 dv=0
EndChar

StartChar: Emacron
Encoding: 274 274 28
Width: 571
Flags: MW
HStem: 0 36<243 353 353 398.5> 290 35<231 303 231 303> 406 20G<379 413 413 413> 443 154<462 480 480 484 39 497 462 462> 562 35<73 73 239 243 243 320> 699 47<162 401 162 401>
VStem: 93 138<57 290 325 541 541 547> 162 239<699 746 699 746> 379 34<191 219.5 394 426> 462 35<443 485> 492 35<133 179>
LayerCount: 2
Fore
SplineSet
162 746 m 1xed20
 401 746 l 1
 401 699 l 1
 162 699 l 1
 162 746 l 1xed20
75 35 m 2xeea0
 87 35 93 42 93 57 c 2
 93 541 l 2
 93 553 85 563 73 562 c 2
 39 560 l 1
 39 597 l 1
 480 597 l 2
 488 597 494 597 497 598 c 1xeec0
 497 443 l 1
 462 443 l 1xf6c0
 462 527 419 562 320 562 c 2
 243 562 l 2
 235 562 231 557 231 548 c 2
 231 325 l 1
 303 325 l 2
 347 325 379 362 379 426 c 1
 413 426 l 1
 413 191 l 1
 379 191 l 1
 379 248 344 290 303 290 c 2
 231 290 l 1
 231 49 l 2
 231 40 235 36 243 36 c 2
 353 36 l 2
 444 36 492 87 492 179 c 1
 527 179 l 1
 527 -3 l 1
 512 -1 474 0 431 0 c 2
 39 0 l 1
 39 38 l 1
 75 35 l 2xeea0
EndSplineSet
EndChar

StartChar: Eogonek
Encoding: 280 280 29
Width: 571
Flags: MW
HStem: -159 58<456.5 459.5> 0 36<243 353 353 398.5> 290 35<231 303 231 303> 406 20G<379 413 413 413> 443 154<462 480 480 484 39 497 462 462> 562 35<73 73 239 243 243 320>
VStem: 93 138<57 290 325 541 541 547> 357 67<-111 -44.5> 379 34<191 219.5 394 426> 462 35<443 485> 492 35<133 179>
LayerCount: 2
Fore
SplineSet
556 -99 m 1xf6a0
 523 -137 481 -159 438 -159 c 0
 397 -159 357 -135 357 -87 c 0
 357 -54 374 -23 407 0 c 1
 39 0 l 1
 39 38 l 1
 75 35 l 2
 87 35 93 42 93 57 c 2
 93 541 l 2
 93 553 85 563 73 562 c 2
 39 560 l 1
 39 597 l 1
 480 597 l 2
 488 597 494 597 497 598 c 1xf740
 497 443 l 1
 462 443 l 1xfac0
 462 527 419 562 320 562 c 2
 243 562 l 2
 235 562 231 557 231 548 c 2
 231 325 l 1
 303 325 l 2
 347 325 379 362 379 426 c 1
 413 426 l 1
 413 191 l 1
 379 191 l 1
 379 248 344 290 303 290 c 2xf6a0
 231 290 l 1
 231 49 l 2
 231 40 235 36 243 36 c 2
 353 36 l 2
 444 36 492 87 492 179 c 1
 527 179 l 1
 527 -3 l 1
 514 -1 483 0 447 0 c 1
 432 -14 424 -34 424 -55 c 0
 424 -80 439 -101 474 -101 c 0xf720
 498 -101 522 -93 544 -80 c 1
 556 -99 l 1xf6a0
EndSplineSet
EndChar

StartChar: F
Encoding: 70 70 30
Width: 529
Flags: MW
HStem: 0 35<75 81 244.5 250> 280 35<231 299 231 299> 443 154<472 492 492 495.5 39 507 472 472> 562 35<74 76 74 74 239 243 243 330>
VStem: 93 138<57 280 315 541 541 548> 378 34<180 210.5 385 417> 472 35<443 598>
LayerCount: 2
Fore
SplineSet
39 38 m 1xde
 75 35 l 2
 87 35 93 42 93 57 c 2
 93 541 l 2
 93 555 87 562 76 562 c 2
 74 562 l 1
 39 560 l 1
 39 597 l 1
 492 597 l 2
 499 597 504 597 507 598 c 1xde
 507 443 l 1
 472 443 l 1xee
 474 526 429 562 330 562 c 2
 243 562 l 2
 235 562 231 558 231 549 c 2
 231 315 l 1
 299 315 l 2
 346 315 378 353 378 417 c 1
 412 417 l 1
 412 180 l 1
 378 180 l 1
 378 241 346 280 299 280 c 2
 231 280 l 1
 231 56 l 2
 231 44 239 35 250 35 c 2
 302 38 l 1
 302 0 l 1
 39 0 l 1
 39 38 l 1xde
EndSplineSet
Position2: "'cpsp' Capital Spacing lookup 0 per glyph data 2" dx=5 dy=0 dh=10 dv=0
EndChar

StartChar: G
Encoding: 71 71 31
Width: 650
Flags: MW
HStem: -10 35<292 363.5 292 396> 238 34<423 429.5 593 599> 426 138<541.5 564 541.5 564 514 564> 575 32<299.5 396.5 244 405.5>
VStem: 30 151<196.5 382.5 196.5 399.5> 442 138<68 216 216 217> 515 49<426 444>
LayerCount: 2
Fore
SplineSet
580 35 m 1xdc
 575 36 568 37 561 37 c 0xdc
 511 37 457 -10 335 -10 c 0
 149 -10 30 91 30 297 c 0
 30 502 145 607 343 607 c 0xda
 450 607 519 564 564 564 c 1
 562 551 560 533 560 504 c 0
 560 482 562 456 564 426 c 1
 514 426 l 1xfa
 515 433 515 437 515 444 c 0xda
 512 526 457 575 354 575 c 0
 245 575 181 477 181 288 c 0
 181 105 240 25 344 25 c 0
 383 25 413 35 442 68 c 1
 442 216 l 2
 442 231 436 238 423 238 c 2
 364 236 l 1
 364 272 l 1
 631 272 l 1
 631 236 l 1
 599 238 l 2
 587 238 580 228 580 217 c 2
 580 35 l 1xdc
EndSplineSet
Position2: "'cpsp' Capital Spacing lookup 0 per glyph data 2" dx=5 dy=0 dh=10 dv=0
EndChar

StartChar: Gbreve
Encoding: 286 286 32
Width: 650
Flags: MW
HStem: -10 35<292 363.5 292 396> 238 34<423 429.5 593 599> 426 138<541.5 564 541.5 564 514 564> 575 32<299.5 396.5 244 405.5> 659 65<301 358 301 370.5>
VStem: 30 151<196.5 382.5 196.5 399.5> 442 138<68 216 216 217> 515 49<426 444>
LayerCount: 2
Fore
SplineSet
466 790 m 1xdd
 464 713 411 659 330 659 c 0
 249 659 197 713 195 790 c 1
 241 790 l 1
 249 758 272 724 330 724 c 0
 386 724 412 758 421 790 c 1
 466 790 l 1xdd
580 35 m 1xde
 575 36 568 37 561 37 c 0xde
 511 37 457 -10 335 -10 c 0
 149 -10 30 91 30 297 c 0
 30 502 145 607 343 607 c 0xdd
 450 607 519 564 564 564 c 1
 562 551 560 533 560 504 c 0
 560 482 562 456 564 426 c 1
 514 426 l 1xfd
 515 433 515 437 515 444 c 0xdd
 512 526 457 575 354 575 c 0
 245 575 181 477 181 288 c 0
 181 105 240 25 344 25 c 0
 383 25 413 35 442 68 c 1
 442 216 l 2
 442 231 436 238 423 238 c 2
 364 236 l 1
 364 272 l 1
 631 272 l 1
 631 236 l 1
 599 238 l 2
 587 238 580 228 580 217 c 2
 580 35 l 1xde
EndSplineSet
EndChar

StartChar: Gcommaaccent
Encoding: 290 290 33
Width: 650
Flags: MW
HStem: -141 107<314 321> -10 35<292 363.5 292 396> 238 34<423 429.5 593 599> 426 138<541.5 564 541.5 564 514 564> 575 32<299.5 396.5 244 405.5>
VStem: 30 151<196.5 382.5 196.5 399.5> 342 73<-179 -91.5> 442 138<68 216 216 217> 515 49<426 444>
LayerCount: 2
Fore
SplineSet
580 35 m 1x6d
 575 36 568 37 561 37 c 0x6d
 511 37 457 -10 335 -10 c 0
 149 -10 30 91 30 297 c 0
 30 502 145 607 343 607 c 0x6c80
 450 607 519 564 564 564 c 1
 562 551 560 533 560 504 c 0
 560 482 562 456 564 426 c 1
 514 426 l 1x7c80
 515 433 515 437 515 444 c 0x6c80
 512 526 457 575 354 575 c 0
 245 575 181 477 181 288 c 0
 181 105 240 25 344 25 c 0
 383 25 413 35 442 68 c 1
 442 216 l 2
 442 231 436 238 423 238 c 2
 364 236 l 1
 364 272 l 1
 631 272 l 1
 631 236 l 1
 599 238 l 2
 587 238 580 228 580 217 c 2
 580 35 l 1x6d
294 -229 m 1xee80
 319 -214 342 -188 342 -170 c 0
 342 -147 328 -141 314 -141 c 0
 288 -141 273 -117 273 -92 c 0
 273 -64 292 -34 336 -34 c 0
 385 -34 415 -72 415 -111 c 0
 415 -175 366 -226 316 -251 c 1
 294 -229 l 1xee80
EndSplineSet
EndChar

StartChar: H
Encoding: 72 72 34
Width: 696
Flags: MW
HStem: 0 35<74 76 76 82 244.5 251 446 452.5> 287 35<231 465 231 465> 562 35<74 74 243 249.5 249 251 446 446 614 620.5 620 622>
VStem: 93 138<57 287 322 541> 465 138<57 287 287 287 322 541>
LayerCount: 2
Fore
SplineSet
39 37 m 1
 74 35 l 2
 75 35 75 35 76 35 c 0
 88 35 93 43 93 57 c 2
 93 541 l 2
 93 552 89 563 74 562 c 2
 39 560 l 1
 39 597 l 1
 300 597 l 1
 300 560 l 1
 251 562 l 2
 250 562 250 562 249 562 c 0
 237 562 231 552 231 541 c 2
 231 322 l 1
 465 322 l 1
 465 541 l 2
 465 552 461 563 446 562 c 2
 397 560 l 1
 397 597 l 1
 657 597 l 1
 657 560 l 1
 622 562 l 2
 621 562 621 562 620 562 c 0
 608 562 603 552 603 541 c 2
 603 57 l 2
 603 42 609 34 622 35 c 2
 657 37 l 1
 657 0 l 1
 397 0 l 1
 397 37 l 1
 446 35 l 2
 459 35 465 42 465 57 c 2
 465 287 l 1
 231 287 l 1
 231 57 l 2
 231 42 238 35 251 35 c 2
 300 37 l 1
 300 0 l 1
 39 0 l 1
 39 37 l 1
EndSplineSet
Position2: "'cpsp' Capital Spacing lookup 0 per glyph data 2" dx=5 dy=0 dh=10 dv=0
EndChar

StartChar: I
Encoding: 73 73 35
Width: 325
Flags: MW
HStem: 0 35<74 76 76 82> 562 35<74 74 243.5 249.5 249 251>
VStem: 93 138<57 541>
LayerCount: 2
Fore
SplineSet
39 37 m 1
 74 35 l 2
 75 35 75 35 76 35 c 0
 88 35 93 43 93 57 c 2
 93 541 l 2
 93 552 87 563 74 562 c 2
 39 560 l 1
 39 597 l 1
 286 597 l 1
 286 560 l 1
 251 562 l 2
 250 562 250 562 249 562 c 0
 238 562 231 552 231 541 c 2
 231 57 l 2
 231 42 238 34 251 35 c 2
 286 37 l 1
 286 0 l 1
 39 0 l 1
 39 37 l 1
EndSplineSet
Position2: "'cpsp' Capital Spacing lookup 0 per glyph data 2" dx=5 dy=0 dh=10 dv=0
EndChar

StartChar: IJ
Encoding: 306 306 36
Width: 784
Flags: MW
HStem: -10 34<474.5 506.5 444.5 565> 0 35<74 76 76 82> 5 167<371 377.5 376 384> 562 35<74 74 243.5 249 249 251 539 539 708 714.5 714 716>
VStem: 93 138<57 541> 349 44<144 172 144 172 144 172> 558 138<179 541 541 542>
LayerCount: 2
Fore
SplineSet
74 35 m 1x5e
 76 35 l 2
 88 35 93 43 93 57 c 2
 93 541 l 2
 93 552 87 563 74 562 c 2
 39 560 l 1
 39 597 l 1
 286 597 l 1
 286 560 l 1
 251 562 l 1
 249 562 l 2
 238 562 231 552 231 541 c 2
 231 57 l 2
 231 42 238 34 251 35 c 2
 286 37 l 1
 286 0 l 1
 39 0 l 1
 39 37 l 1
 74 35 l 1x5e
349 172 m 1x3e
 393 172 l 1
 393 116 411 24 478 24 c 0
 535 24 558 64 558 179 c 2
 558 541 l 2
 558 553 550 563 539 562 c 2
 470 560 l 1
 470 597 l 1
 750 597 l 1
 750 560 l 1
 716 562 l 2
 715 562 715 562 714 562 c 0
 702 562 696 552 696 542 c 2
 696 179 l 2
 696 51 629 -10 501 -10 c 0x9e
 448 -10 411 5 384 5 c 0
 382 5 379 5 376 5 c 0
 366 5 354 4 349 -1 c 1
 349 172 l 1x3e
EndSplineSet
EndChar

StartChar: Iacute
Encoding: 205 205 37
Width: 325
Flags: MW
HStem: 0 35<74 76 76 82> 562 35<74 74 243.5 249 249 251>
VStem: 93 138<57 541>
LayerCount: 2
Fore
SplineSet
208 801 m 2
 225 820 229 826 244 826 c 0
 268 826 312 803 312 789 c 0
 312 782 307 777 299 771 c 2
 132 669 l 2
 126 665 116 660 108 660 c 0
 101 660 97 664 97 670 c 0
 97 678 102 685 113 697 c 2
 208 801 l 2
74 35 m 1
 76 35 l 2
 88 35 93 43 93 57 c 2
 93 541 l 2
 93 552 87 563 74 562 c 2
 39 560 l 1
 39 597 l 1
 286 597 l 1
 286 560 l 1
 251 562 l 1
 249 562 l 2
 238 562 231 552 231 541 c 2
 231 57 l 2
 231 42 238 34 251 35 c 2
 286 37 l 1
 286 0 l 1
 39 0 l 1
 39 37 l 1
 74 35 l 1
EndSplineSet
Position2: "'cpsp' Capital Spacing lookup 0 per glyph data 2" dx=5 dy=0 dh=10 dv=0
EndChar

StartChar: Icircumflex
Encoding: 206 206 38
Width: 325
Flags: MW
HStem: 0 35<74 76 76 82> 562 35<74 74 243.5 249 249 251> 744 60<129 162>
VStem: 93 138<57 541>
LayerCount: 2
Fore
SplineSet
242 756 m 1
 283 710 318 684 318 674 c 0
 318 671 316 666 306 666 c 0
 294 666 281 673 273 678 c 2
 162 744 l 1
 50 678 l 2
 42 673 29 666 17 666 c 0
 8 666 6 671 6 674 c 0
 6 684 41 710 82 756 c 1
 105 780 l 1
 129 804 l 2
 140 816 152 822 162 822 c 0
 172 822 183 816 195 804 c 2
 219 780 l 1
 242 756 l 1
74 35 m 1
 76 35 l 2
 88 35 93 43 93 57 c 2
 93 541 l 2
 93 552 87 563 74 562 c 2
 39 560 l 1
 39 597 l 1
 286 597 l 1
 286 560 l 1
 251 562 l 1
 249 562 l 2
 238 562 231 552 231 541 c 2
 231 57 l 2
 231 42 238 34 251 35 c 2
 286 37 l 1
 286 0 l 1
 39 0 l 1
 39 37 l 1
 74 35 l 1
EndSplineSet
Position2: "'cpsp' Capital Spacing lookup 0 per glyph data 2" dx=5 dy=0 dh=10 dv=0
EndChar

StartChar: Idieresis
Encoding: 207 207 39
Width: 325
Flags: MW
HStem: 0 35<74 76 76 82> 562 35<74 74 243.5 249 249 251> 681 126<33.5 78 33.5 78.5 244.5 289>
VStem: -21 154<724.5 763> 93 138<57 541> 190 154<724.5 763>
LayerCount: 2
Fore
SplineSet
-21 744 m 0xf4
 -21 782 11 807 56 807 c 0
 100 807 133 782 133 744 c 0
 133 705 101 681 56 681 c 0
 11 681 -21 705 -21 744 c 0xf4
190 744 m 0
 190 782 222 807 267 807 c 0
 311 807 344 782 344 744 c 0
 344 705 312 681 267 681 c 0
 222 681 190 705 190 744 c 0
74 35 m 1xc8
 76 35 l 2
 88 35 93 43 93 57 c 2
 93 541 l 2
 93 552 87 563 74 562 c 2
 39 560 l 1
 39 597 l 1
 286 597 l 1
 286 560 l 1
 251 562 l 1
 249 562 l 2
 238 562 231 552 231 541 c 2
 231 57 l 2
 231 42 238 34 251 35 c 2
 286 37 l 1
 286 0 l 1
 39 0 l 1
 39 37 l 1
 74 35 l 1xc8
EndSplineSet
Position2: "'cpsp' Capital Spacing lookup 0 per glyph data 2" dx=5 dy=0 dh=10 dv=0
EndChar

StartChar: Idotaccent
Encoding: 304 304 40
Width: 325
Flags: MW
HStem: 0 35<74 76 76 82> 562 35<74 74 243.5 249 249 251> 681 126<139.5 184 139.5 184.5>
VStem: 85 154<724.5 763> 93 138<57 541>
LayerCount: 2
Fore
SplineSet
85 744 m 0xf0
 85 782 117 807 162 807 c 0
 206 807 239 782 239 744 c 0
 239 705 207 681 162 681 c 0
 117 681 85 705 85 744 c 0xf0
74 35 m 1xc8
 76 35 l 2
 88 35 93 43 93 57 c 2
 93 541 l 2
 93 552 87 563 74 562 c 2
 39 560 l 1
 39 597 l 1
 286 597 l 1
 286 560 l 1
 251 562 l 1
 249 562 l 2
 238 562 231 552 231 541 c 2
 231 57 l 2
 231 42 238 34 251 35 c 2
 286 37 l 1
 286 0 l 1
 39 0 l 1
 39 37 l 1
 74 35 l 1xc8
EndSplineSet
EndChar

StartChar: Igrave
Encoding: 204 204 41
Width: 325
Flags: MW
HStem: 0 35<74 76 76 82> 562 35<74 74 243.5 249 249 251>
VStem: 93 138<57 541>
LayerCount: 2
Fore
SplineSet
118 801 m 2
 101 820 97 826 82 826 c 0
 58 826 14 803 14 789 c 0
 14 782 19 777 27 771 c 2
 194 669 l 2
 200 665 210 660 218 660 c 0
 225 660 229 664 229 670 c 0
 229 678 224 685 213 697 c 2
 118 801 l 2
74 35 m 1
 76 35 l 2
 88 35 93 43 93 57 c 2
 93 541 l 2
 93 552 87 563 74 562 c 2
 39 560 l 1
 39 597 l 1
 286 597 l 1
 286 560 l 1
 251 562 l 1
 249 562 l 2
 238 562 231 552 231 541 c 2
 231 57 l 2
 231 42 238 34 251 35 c 2
 286 37 l 1
 286 0 l 1
 39 0 l 1
 39 37 l 1
 74 35 l 1
EndSplineSet
Position2: "'cpsp' Capital Spacing lookup 0 per glyph data 2" dx=5 dy=0 dh=10 dv=0
EndChar

StartChar: Imacron
Encoding: 298 298 42
Width: 325
Flags: MW
HStem: 0 35<74 76 76 82> 562 35<74 74 243.5 249 249 251> 699 47<42 281 42 281>
VStem: 42 239<699 746 699 746> 93 138<57 541>
LayerCount: 2
Fore
SplineSet
42 746 m 1xf0
 281 746 l 1
 281 699 l 1
 42 699 l 1
 42 746 l 1xf0
74 35 m 1xe8
 76 35 l 2
 88 35 93 43 93 57 c 2
 93 541 l 2
 93 552 87 563 74 562 c 2
 39 560 l 1
 39 597 l 1
 286 597 l 1
 286 560 l 1
 251 562 l 1
 249 562 l 2
 238 562 231 552 231 541 c 2
 231 57 l 2
 231 42 238 34 251 35 c 2
 286 37 l 1
 286 0 l 1
 39 0 l 1
 39 37 l 1
 74 35 l 1xe8
EndSplineSet
EndChar

StartChar: Iogonek
Encoding: 302 302 43
Width: 325
Flags: MW
HStem: -162 58<238.5 241.5> 0 35<74 76 76 82 74 194> 562 35<74 74 243.5 249 249 251>
VStem: 93 138<57 541> 139 67<-114 -46.5>
LayerCount: 2
Fore
SplineSet
338 -102 m 1xf0
 305 -140 263 -162 220 -162 c 0
 179 -162 139 -138 139 -90 c 0
 139 -56 157 -23 194 0 c 1
 39 0 l 1
 39 37 l 1xe8
 74 35 l 1
 76 35 l 2
 88 35 93 43 93 57 c 2
 93 541 l 2
 93 552 87 563 74 562 c 2
 39 560 l 1
 39 597 l 1
 286 597 l 1
 286 560 l 1
 251 562 l 1
 249 562 l 2
 238 562 231 552 231 541 c 2
 231 57 l 2
 231 42 238 34 251 35 c 2
 286 37 l 1
 286 0 l 1xf0
 232 0 l 1
 215 -14 206 -35 206 -58 c 0
 206 -83 221 -104 256 -104 c 0xe8
 280 -104 304 -96 326 -83 c 1
 338 -102 l 1xf0
EndSplineSet
EndChar

StartChar: J
Encoding: 74 74 44
Width: 459
Flags: MW
HStem: -10 34<149.5 181.5 119.5 240> 5 167<46 52.5 51 59> 562 35<214 214 383 389.5 389 391>
VStem: 24 44<144 172 144 172 144 172> 233 138<179 541 541 542>
LayerCount: 2
Fore
SplineSet
24 172 m 1x78
 68 172 l 1
 68 116 86 24 153 24 c 0
 210 24 233 64 233 179 c 2
 233 541 l 2
 233 553 225 563 214 562 c 2
 145 560 l 1
 145 597 l 1
 425 597 l 1
 425 560 l 1
 391 562 l 2
 390 562 390 562 389 562 c 0
 377 562 371 552 371 542 c 2
 371 179 l 2
 371 51 304 -10 176 -10 c 0xb8
 123 -10 86 5 59 5 c 0
 57 5 54 5 51 5 c 0
 41 5 29 4 24 -1 c 1
 24 172 l 1x78
EndSplineSet
Position2: "'cpsp' Capital Spacing lookup 0 per glyph data 2" dx=5 dy=0 dh=10 dv=0
EndChar

StartChar: K
Encoding: 75 75 45
Width: 639
Flags: MW
HStem: 0 34<391 394 394 401.5 598.5 608> 562 35<74 74 244.5 251 447 450.5 557 557>
VStem: 93 138<57 224 278 540> 411 180<560 597 560 597>
LayerCount: 2
Fore
SplineSet
579 48 m 2
 585 39 594 34 603 34 c 0
 613 34 624 35 633 37 c 1
 633 0 l 1
 348 0 l 1
 348 37 l 1
 391 34 l 2
 392 34 393 34 394 34 c 0
 409 34 417 41 406 59 c 2
 267 266 l 1
 231 224 l 1
 231 57 l 2
 231 42 238 34 251 35 c 2
 296 37 l 1
 296 0 l 1
 39 0 l 1
 39 37 l 1
 74 35 l 2
 75 35 75 35 76 35 c 0
 88 35 93 43 93 57 c 2
 93 541 l 2
 93 553 87 563 74 562 c 2
 39 560 l 1
 39 597 l 1
 300 597 l 1
 300 560 l 1
 251 562 l 2
 238 562 231 555 231 540 c 2
 231 278 l 1
 440 526 l 2
 456 545 457 550 457 553 c 0
 457 559 454 562 447 562 c 2
 411 560 l 1
 411 597 l 1
 591 597 l 1
 591 560 l 1
 557 562 l 2
 537 563 521 558 499 533 c 2
 360 372 l 1
 579 48 l 2
EndSplineSet
Position2: "'cpsp' Capital Spacing lookup 0 per glyph data 2" dx=5 dy=0 dh=10 dv=0
EndChar

StartChar: Kcommaaccent
Encoding: 310 310 46
Width: 639
Flags: MW
HStem: -141 107<306 313> 0 34<391 394 394 399 598.5 608> 562 35<74 74 244.5 251 447 450.5 557 557>
VStem: 93 138<57 224 278 540> 334 73<-179 -91.5> 411 180<560 597 560 597>
LayerCount: 2
Fore
SplineSet
579 48 m 2
 585 39 594 34 603 34 c 0
 613 34 624 35 633 37 c 1
 633 0 l 1
 348 0 l 1
 348 37 l 1
 391 34 l 1
 394 34 l 2
 404 34 411 37 411 45 c 0
 411 49 410 53 406 59 c 2
 267 266 l 1
 231 224 l 1
 231 57 l 2
 231 42 238 34 251 35 c 2
 296 37 l 1
 296 0 l 1
 39 0 l 1
 39 37 l 1
 74 35 l 1
 76 35 l 2
 88 35 93 43 93 57 c 2
 93 541 l 2
 93 553 87 563 74 562 c 2
 39 560 l 1
 39 597 l 1
 300 597 l 1
 300 560 l 1
 251 562 l 2
 238 562 231 555 231 540 c 2
 231 278 l 1
 440 526 l 2
 456 545 457 550 457 553 c 0
 457 559 454 562 447 562 c 2
 411 560 l 1
 411 597 l 1
 591 597 l 1
 591 560 l 1
 557 562 l 2
 537 563 521 558 499 533 c 2
 360 372 l 1
 579 48 l 2
286 -229 m 1xf8
 311 -214 334 -188 334 -170 c 0
 334 -147 320 -141 306 -141 c 0
 280 -141 265 -117 265 -92 c 0
 265 -64 284 -34 328 -34 c 0
 377 -34 407 -72 407 -111 c 0
 407 -175 358 -226 308 -251 c 1
 286 -229 l 1xf8
EndSplineSet
EndChar

StartChar: L
Encoding: 76 76 47
Width: 514
Flags: MW
HStem: 0 36<243 326 326 368> 562 35<74 74 243.5 249.5 249 251>
VStem: 93 138<57 541> 459 33<127 171>
LayerCount: 2
Fore
SplineSet
39 38 m 1
 78 35 l 2
 89 35 93 45 93 57 c 2
 93 541 l 2
 93 552 85 563 74 562 c 2
 39 560 l 1
 39 597 l 1
 300 597 l 1
 300 560 l 1
 251 562 l 2
 250 562 250 562 249 562 c 0
 238 562 231 552 231 541 c 2
 231 49 l 2
 231 40 235 36 243 36 c 2
 326 36 l 2
 413 36 459 83 459 171 c 1
 492 171 l 1
 492 -3 l 1
 480 -1 439 0 368 0 c 2
 39 0 l 1
 39 38 l 1
EndSplineSet
Position2: "Single Positioning lookup 3 subtable" dx=0 dy=0 dh=-40 dv=0
Position2: "'cpsp' Capital Spacing lookup 0 per glyph data 2" dx=5 dy=0 dh=10 dv=0
EndChar

StartChar: Lacute
Encoding: 313 313 48
Width: 514
Flags: MW
HStem: 0 36<243 326 326 368> 562 35<74 74 243.5 249 249 251>
VStem: 93 138<57 541> 459 33<127 171>
LayerCount: 2
Fore
SplineSet
222 801 m 2
 239 820 243 826 258 826 c 0
 282 826 326 803 326 789 c 0
 326 782 321 777 313 771 c 2
 146 669 l 2
 140 665 130 660 122 660 c 0
 115 660 111 664 111 670 c 0
 111 678 116 685 127 697 c 2
 222 801 l 2
78 35 m 2
 89 35 93 45 93 57 c 2
 93 541 l 2
 93 552 85 563 74 562 c 2
 39 560 l 1
 39 597 l 1
 300 597 l 1
 300 560 l 1
 251 562 l 1
 249 562 l 2
 238 562 231 552 231 541 c 2
 231 49 l 2
 231 40 235 36 243 36 c 2
 326 36 l 2
 413 36 459 83 459 171 c 1
 492 171 l 1
 492 -3 l 1
 480 -1 439 0 368 0 c 2
 39 0 l 1
 39 38 l 1
 78 35 l 2
EndSplineSet
EndChar

StartChar: Lcaron
Encoding: 317 317 49
Width: 514
Flags: MW
HStem: 0 36<243 326 326 368> 526 97<404.5 460> 562 35<74 74 243.5 249 249 251>
VStem: 93 138<57 541> 437 73<495 573.5> 459 33<127 171>
LayerCount: 2
Fore
SplineSet
400 453 m 1xd8
 418 465 437 485 437 505 c 0
 437 521 427 526 416 526 c 0
 393 526 378 543 378 568 c 0
 378 602 405 623 440 623 c 0
 480 623 510 594 510 553 c 0
 510 499 464 452 421 431 c 1
 400 453 l 1xd8
78 35 m 2
 89 35 93 45 93 57 c 2
 93 541 l 2
 93 552 85 563 74 562 c 2
 39 560 l 1
 39 597 l 1
 300 597 l 1
 300 560 l 1
 251 562 l 1
 249 562 l 2
 238 562 231 552 231 541 c 2
 231 49 l 2
 231 40 235 36 243 36 c 2
 326 36 l 2
 413 36 459 83 459 171 c 1
 492 171 l 1
 492 -3 l 1xb4
 480 -1 439 0 368 0 c 2
 39 0 l 1
 39 38 l 1
 78 35 l 2
EndSplineSet
EndChar

StartChar: Lcommaaccent
Encoding: 315 315 50
Width: 514
Flags: MW
HStem: -141 107<240 247> 0 36<243 326 326 368> 562 35<74 74 243.5 249 249 251>
VStem: 93 138<57 541> 268 73<-179 -91.5> 459 33<127 171>
LayerCount: 2
Fore
SplineSet
78 35 m 2
 89 35 93 45 93 57 c 2
 93 541 l 2
 93 552 85 563 74 562 c 2
 39 560 l 1
 39 597 l 1
 300 597 l 1
 300 560 l 1
 251 562 l 1
 249 562 l 2
 238 562 231 552 231 541 c 2
 231 49 l 2
 231 40 235 36 243 36 c 2
 326 36 l 2
 413 36 459 83 459 171 c 1
 492 171 l 1
 492 -3 l 1
 480 -1 439 0 368 0 c 2
 39 0 l 1
 39 38 l 1
 78 35 l 2
220 -229 m 1
 245 -214 268 -188 268 -170 c 0
 268 -147 254 -141 240 -141 c 0
 214 -141 199 -117 199 -92 c 0
 199 -64 218 -34 262 -34 c 0
 311 -34 341 -72 341 -111 c 0
 341 -175 292 -226 242 -251 c 1
 220 -229 l 1
EndSplineSet
EndChar

StartChar: Ldot
Encoding: 319 319 51
Width: 514
Flags: MW
HStem: 0 36<243 326 326 368> 269 150<390.5 444> 562 35<74 74 243.5 249 249 251>
VStem: 93 138<57 541> 459 33<127 171>
LayerCount: 2
Fore
SplineSet
78 35 m 2
 89 35 93 45 93 57 c 2
 93 541 l 2
 93 552 85 563 74 562 c 2
 39 560 l 1
 39 597 l 1
 300 597 l 1
 300 560 l 1
 251 562 l 1
 249 562 l 2
 238 562 231 552 231 541 c 2
 231 49 l 2
 231 40 235 36 243 36 c 2
 326 36 l 2
 413 36 459 83 459 171 c 1
 492 171 l 1
 492 -3 l 1
 480 -1 439 0 368 0 c 2
 39 0 l 1
 39 38 l 1
 78 35 l 2
325 344 m 0
 325 390 364 419 417 419 c 0
 471 419 510 390 510 344 c 0
 510 297 471 269 417 269 c 0
 364 269 325 297 325 344 c 0
EndSplineSet
Ligature2: "Ligature Substitution lookup 16 subtable" L periodcentered
EndChar

StartChar: Lslash
Encoding: 321 321 52
Width: 514
Flags: MW
HStem: 0 36<243 326 326 368> 562 35<74 74 243.5 249 249 251>
VStem: 93 138<57 204 204 204 256 312 365 541> 459 33<127 171>
LayerCount: 2
Fore
SplineSet
492 171 m 1
 492 -3 l 1
 480 -1 439 0 368 0 c 2
 39 0 l 1
 39 38 l 1
 78 35 l 2
 89 35 93 45 93 57 c 2
 93 204 l 1
 50 168 l 1
 50 220 l 1
 93 256 l 1
 93 541 l 2
 93 552 85 563 74 562 c 2
 39 560 l 1
 39 597 l 1
 300 597 l 1
 300 560 l 1
 251 562 l 1
 249 562 l 2
 238 562 231 552 231 541 c 2
 231 365 l 1
 337 454 l 1
 337 399 l 1
 231 312 l 1
 231 49 l 2
 231 40 235 36 243 36 c 2
 326 36 l 2
 413 36 459 83 459 171 c 1
 492 171 l 1
EndSplineSet
Position2: "'cpsp' Capital Spacing lookup 0 per glyph data 2" dx=5 dy=0 dh=10 dv=0
EndChar

StartChar: M
Encoding: 77 77 53
Width: 884
Flags: MW
HStem: 0 35<73 79.5 146.5 153 633 639.5> 562 35<83 83 802.5 808.5 808 810>
VStem: 93 41<57 527> 653 137<57 501 501 501>
LayerCount: 2
Fore
SplineSet
846 37 m 1
 846 0 l 1
 584 0 l 1
 584 37 l 1
 633 35 l 2
 646 35 653 42 653 57 c 2
 653 501 l 1
 423 -10 l 1
 391 -10 l 1
 134 527 l 1
 134 57 l 2
 134 42 140 35 153 35 c 2
 202 37 l 1
 202 0 l 1
 34 0 l 1
 34 37 l 1
 73 35 l 2
 86 35 93 42 93 57 c 2
 93 556 l 2
 93 561 90 563 83 562 c 2
 41 560 l 1
 41 597 l 1
 247 597 l 1
 457 161 l 1
 654 597 l 1
 841 597 l 1
 841 560 l 1
 810 562 l 2
 809 562 809 562 808 562 c 0
 797 562 790 552 790 542 c 2
 790 57 l 2
 790 42 797 34 810 35 c 2
 846 37 l 1
EndSplineSet
Position2: "'cpsp' Capital Spacing lookup 0 per glyph data 2" dx=5 dy=0 dh=10 dv=0
EndChar

StartChar: N
Encoding: 78 78 54
Width: 677
Flags: MW
HStem: 0 27<73 79.5 146.5 153> 569 28<73 73 524 524 524 527 596.5 602 602 604>
VStem: 93 41<49 525> 544 41<183 548 -6 549 -6 555.5>
LayerCount: 2
Fore
SplineSet
643 597 m 1
 643 567 l 1
 604 569 l 1
 602 569 l 2
 591 569 585 562 585 548 c 2
 585 -6 l 1
 525 -6 l 1
 134 525 l 1
 134 49 l 2
 134 34 140 27 153 27 c 2
 202 29 l 1
 202 0 l 1
 34 0 l 1
 34 29 l 1
 73 27 l 2
 86 27 93 34 93 49 c 2
 93 548 l 2
 93 559 86 570 73 569 c 2
 34 567 l 1
 34 597 l 1
 240 597 l 1
 544 183 l 1
 544 549 l 2
 544 562 538 569 527 569 c 2
 524 569 l 1
 475 567 l 1
 475 597 l 1
 643 597 l 1
EndSplineSet
Position2: "'cpsp' Capital Spacing lookup 0 per glyph data 2" dx=5 dy=0 dh=10 dv=0
EndChar

StartChar: Nacute
Encoding: 323 323 55
Width: 677
Flags: MW
HStem: 0 27<73 79.5 146.5 153> 569 28<73 73 524 524 524 527 596.5 602 602 604>
VStem: 93 41<49 525> 544 41<183 548 -6 549 -6 555.5>
LayerCount: 2
Fore
SplineSet
387 801 m 2
 404 820 408 826 423 826 c 0
 447 826 491 803 491 789 c 0
 491 782 486 777 478 771 c 2
 311 669 l 2
 305 665 295 660 287 660 c 0
 280 660 276 664 276 670 c 0
 276 678 281 685 292 697 c 2
 387 801 l 2
643 567 m 1
 604 569 l 1
 602 569 l 2
 591 569 585 562 585 548 c 2
 585 -6 l 1
 525 -6 l 1
 134 525 l 1
 134 49 l 2
 134 34 140 27 153 27 c 2
 202 29 l 1
 202 0 l 1
 34 0 l 1
 34 29 l 1
 73 27 l 2
 86 27 93 34 93 49 c 2
 93 548 l 2
 93 559 86 570 73 569 c 2
 34 567 l 1
 34 597 l 1
 240 597 l 1
 544 183 l 1
 544 549 l 2
 544 562 538 569 527 569 c 2
 524 569 l 1
 475 567 l 1
 475 597 l 1
 643 597 l 1
 643 567 l 1
EndSplineSet
EndChar

StartChar: Ncaron
Encoding: 327 327 56
Width: 677
Flags: MW
HStem: 0 27<73 79.5 146.5 153> 569 28<73 73 524 524 524 527 596.5 602 602 604> 686 60<309 342 342 375>
VStem: 93 41<49 525> 544 41<183 548 -6 549 -6 555.5>
LayerCount: 2
Fore
SplineSet
262 734 m 1
 221 780 186 806 186 816 c 0
 186 819 188 824 198 824 c 0
 210 824 223 817 231 812 c 2
 342 746 l 1
 454 812 l 2
 462 817 475 824 487 824 c 0
 496 824 498 819 498 816 c 0
 498 806 463 780 422 734 c 1
 399 710 l 1
 375 686 l 2
 364 674 352 668 342 668 c 0
 332 668 321 674 309 686 c 2
 285 710 l 1
 262 734 l 1
643 567 m 1
 604 569 l 1
 602 569 l 2
 591 569 585 562 585 548 c 2
 585 -6 l 1
 525 -6 l 1
 134 525 l 1
 134 49 l 2
 134 34 140 27 153 27 c 2
 202 29 l 1
 202 0 l 1
 34 0 l 1
 34 29 l 1
 73 27 l 2
 86 27 93 34 93 49 c 2
 93 548 l 2
 93 559 86 570 73 569 c 2
 34 567 l 1
 34 597 l 1
 240 597 l 1
 544 183 l 1
 544 549 l 2
 544 562 538 569 527 569 c 2
 524 569 l 1
 475 567 l 1
 475 597 l 1
 643 597 l 1
 643 567 l 1
EndSplineSet
EndChar

StartChar: Ncommaaccent
Encoding: 325 325 57
Width: 677
Flags: MW
HStem: -141 107<325 332> 0 27<73 79.5 146.5 153> 569 28<73 73 524 524 524 527 596.5 602 602 604>
VStem: 93 41<49 525> 353 73<-179 -91.5> 544 41<183 548 -6 549 -6 555.5>
LayerCount: 2
Fore
SplineSet
643 567 m 1
 604 569 l 1
 602 569 l 2
 591 569 585 562 585 548 c 2
 585 -6 l 1
 525 -6 l 1
 134 525 l 1
 134 49 l 2
 134 34 140 27 153 27 c 2
 202 29 l 1
 202 0 l 1
 34 0 l 1
 34 29 l 1
 73 27 l 2
 86 27 93 34 93 49 c 2
 93 548 l 2
 93 559 86 570 73 569 c 2
 34 567 l 1
 34 597 l 1
 240 597 l 1
 544 183 l 1
 544 549 l 2
 544 562 538 569 527 569 c 2
 524 569 l 1
 475 567 l 1
 475 597 l 1
 643 597 l 1
 643 567 l 1
305 -229 m 1
 330 -214 353 -188 353 -170 c 0
 353 -147 339 -141 325 -141 c 0
 299 -141 284 -117 284 -92 c 0
 284 -64 303 -34 347 -34 c 0
 396 -34 426 -72 426 -111 c 0
 426 -175 377 -226 327 -251 c 1
 305 -229 l 1
EndSplineSet
EndChar

StartChar: Ntilde
Encoding: 209 209 58
Width: 677
Flags: MW
HStem: 0 27<73 79.5 146.5 153> 569 28<73 73 524 524 524 527 596.5 602 602 604> 671 61<406 434.5 406 443.5> 711 60<250.5 279>
VStem: 93 41<49 525> 199 28<672 684 672 700.5> 458 27<758.5 770> 544 41<183 548 -6 549 -6 555.5>
LayerCount: 2
Fore
SplineSet
199 672 m 1xdf
 199 729 219 771 263 771 c 0xdf
 311 771 387 732 425 732 c 0
 444 732 458 747 458 770 c 1
 485 770 l 1
 485 713 466 671 421 671 c 0xef
 372 671 298 711 260 711 c 0
 241 711 227 696 227 672 c 1
 199 672 l 1xdf
643 567 m 1
 604 569 l 1
 602 569 l 2
 591 569 585 562 585 548 c 2
 585 -6 l 1
 525 -6 l 1
 134 525 l 1
 134 49 l 2
 134 34 140 27 153 27 c 2
 202 29 l 1
 202 0 l 1
 34 0 l 1
 34 29 l 1
 73 27 l 2
 86 27 93 34 93 49 c 2
 93 548 l 2
 93 559 86 570 73 569 c 2
 34 567 l 1
 34 597 l 1
 240 597 l 1
 544 183 l 1
 544 549 l 2
 544 562 538 569 527 569 c 2
 524 569 l 1
 475 567 l 1
 475 597 l 1
 643 597 l 1
 643 567 l 1
EndSplineSet
Position2: "'cpsp' Capital Spacing lookup 0 per glyph data 2" dx=5 dy=0 dh=10 dv=0
EndChar

StartChar: O
Encoding: 79 79 59
Width: 678
Flags: MW
HStem: -10 35<285.5 392.5 285.5 437> 573 34<285.5 392.5>
VStem: 30 151<201 399> 497 151<201 396 201 404.5>
LayerCount: 2
Fore
SplineSet
30 299 m 0
 30 499 145 607 339 607 c 0
 539 607 648 493 648 299 c 0
 648 103 535 -10 339 -10 c 0
 143 -10 30 103 30 299 c 0
181 299 m 0
 181 87 232 25 339 25 c 0
 446 25 497 87 497 299 c 0
 497 510 446 573 339 573 c 0
 232 573 181 510 181 299 c 0
EndSplineSet
Substitution2: "Single Substitution lookup 17 subtable" ordmasculine
Substitution2: "'aalt' Access All Alternates lookup 0 subtable" ordmasculine
Position2: "'cpsp' Capital Spacing lookup 0 per glyph data 2" dx=5 dy=0 dh=10 dv=0
EndChar

StartChar: Oacute
Encoding: 211 211 60
Width: 678
Flags: MW
HStem: -10 35<285.5 392.5 285.5 437> 573 34<285.5 392.5>
VStem: 30 151<201 399> 497 151<201 396 201 404.5>
LayerCount: 2
Fore
SplineSet
384 801 m 2
 401 820 405 826 420 826 c 0
 444 826 488 803 488 789 c 0
 488 782 483 777 475 771 c 2
 308 669 l 2
 302 665 292 660 284 660 c 0
 277 660 273 664 273 670 c 0
 273 678 278 685 289 697 c 2
 384 801 l 2
30 299 m 0
 30 499 145 607 339 607 c 0
 539 607 648 493 648 299 c 0
 648 103 535 -10 339 -10 c 0
 143 -10 30 103 30 299 c 0
181 299 m 0
 181 87 232 25 339 25 c 0
 446 25 497 87 497 299 c 0
 497 510 446 573 339 573 c 0
 232 573 181 510 181 299 c 0
EndSplineSet
Position2: "'cpsp' Capital Spacing lookup 0 per glyph data 2" dx=5 dy=0 dh=10 dv=0
EndChar

StartChar: Ocircumflex
Encoding: 212 212 61
Width: 678
Flags: MW
HStem: -10 35<285.5 392.5 285.5 437> 573 34<285.5 392.5> 744 60<306 339>
VStem: 30 151<201 399> 497 151<201 396 201 404.5>
LayerCount: 2
Fore
SplineSet
419 756 m 1
 460 710 495 684 495 674 c 0
 495 671 493 666 483 666 c 0
 471 666 458 673 450 678 c 2
 339 744 l 1
 227 678 l 2
 219 673 206 666 194 666 c 0
 185 666 183 671 183 674 c 0
 183 684 218 710 259 756 c 1
 282 780 l 1
 306 804 l 2
 317 816 329 822 339 822 c 0
 349 822 360 816 372 804 c 2
 396 780 l 1
 419 756 l 1
30 299 m 0
 30 499 145 607 339 607 c 0
 539 607 648 493 648 299 c 0
 648 103 535 -10 339 -10 c 0
 143 -10 30 103 30 299 c 0
181 299 m 0
 181 87 232 25 339 25 c 0
 446 25 497 87 497 299 c 0
 497 510 446 573 339 573 c 0
 232 573 181 510 181 299 c 0
EndSplineSet
Position2: "'cpsp' Capital Spacing lookup 0 per glyph data 2" dx=5 dy=0 dh=10 dv=0
EndChar

StartChar: Odieresis
Encoding: 214 214 62
Width: 678
Flags: MW
HStem: -10 35<285.5 392.5 285.5 437> 573 34<285.5 392.5> 681 126<211.5 256 211.5 256.5 421.5 466>
VStem: 30 151<201 399> 157 154<724.5 763> 367 154<724.5 763> 497 151<201 396 201 404.5>
LayerCount: 2
Fore
SplineSet
157 744 m 0xec
 157 782 189 807 234 807 c 0
 278 807 311 782 311 744 c 0
 311 705 279 681 234 681 c 0
 189 681 157 705 157 744 c 0xec
367 744 m 0
 367 782 399 807 444 807 c 0
 488 807 521 782 521 744 c 0
 521 705 489 681 444 681 c 0
 399 681 367 705 367 744 c 0
30 299 m 0xd2
 30 499 145 607 339 607 c 0
 539 607 648 493 648 299 c 0
 648 103 535 -10 339 -10 c 0
 143 -10 30 103 30 299 c 0xd2
181 299 m 0
 181 87 232 25 339 25 c 0
 446 25 497 87 497 299 c 0
 497 510 446 573 339 573 c 0
 232 573 181 510 181 299 c 0
EndSplineSet
Position2: "'cpsp' Capital Spacing lookup 0 per glyph data 2" dx=5 dy=0 dh=10 dv=0
EndChar

StartChar: Ograve
Encoding: 210 210 63
Width: 678
Flags: MW
HStem: -10 35<285.5 392.5 285.5 437> 573 34<285.5 392.5>
VStem: 30 151<201 399> 497 151<201 396 201 404.5>
LayerCount: 2
Fore
SplineSet
295 801 m 2
 278 820 274 826 259 826 c 0
 235 826 191 803 191 789 c 0
 191 782 196 777 204 771 c 2
 371 669 l 2
 377 665 387 660 395 660 c 0
 402 660 406 664 406 670 c 0
 406 678 401 685 390 697 c 2
 295 801 l 2
30 299 m 0
 30 499 145 607 339 607 c 0
 539 607 648 493 648 299 c 0
 648 103 535 -10 339 -10 c 0
 143 -10 30 103 30 299 c 0
181 299 m 0
 181 87 232 25 339 25 c 0
 446 25 497 87 497 299 c 0
 497 510 446 573 339 573 c 0
 232 573 181 510 181 299 c 0
EndSplineSet
Position2: "'cpsp' Capital Spacing lookup 0 per glyph data 2" dx=5 dy=0 dh=10 dv=0
EndChar

StartChar: Ohungarumlaut
Encoding: 336 336 64
Width: 678
Flags: MW
HStem: -10 35<285.5 392.5 285.5 437> 573 34<285.5 392.5>
VStem: 30 151<201 399> 497 151<201 396 201 404.5>
LayerCount: 2
Fore
SplineSet
221 685 m 0
 279 792 289 811 294 817 c 0
 300 825 302 826 307 826 c 0
 317 826 354 814 365 810 c 0
 370 808 374 804 374 798 c 0
 374 795 372 791 368 786 c 0
 360 777 344 762 253 677 c 0
 242 667 235 665 229 665 c 0
 221 665 218 670 218 674 c 0
 218 678 219 681 221 685 c 0
349 685 m 0
 407 792 417 811 421 817 c 0
 427 825 429 826 434 826 c 0
 444 826 482 814 493 810 c 0
 498 808 502 804 502 798 c 0
 502 795 500 791 496 786 c 0
 487 777 471 762 380 677 c 0
 369 667 363 665 356 665 c 0
 349 665 346 670 346 674 c 0
 346 678 347 681 349 685 c 0
30 299 m 0
 30 499 145 607 339 607 c 0
 539 607 648 493 648 299 c 0
 648 103 535 -10 339 -10 c 0
 143 -10 30 103 30 299 c 0
181 299 m 0
 181 87 232 25 339 25 c 0
 446 25 497 87 497 299 c 0
 497 510 446 573 339 573 c 0
 232 573 181 510 181 299 c 0
EndSplineSet
EndChar

StartChar: Omacron
Encoding: 332 332 65
Width: 678
Flags: MW
HStem: -10 35<285.5 392.5 285.5 437> 573 34<285.5 392.5> 699 47<219 458 219 458>
VStem: 30 151<201 399> 219 239<699 746 699 746> 497 151<201 396 201 404.5>
LayerCount: 2
Fore
SplineSet
219 746 m 1
 458 746 l 1
 458 699 l 1
 219 699 l 1
 219 746 l 1
30 299 m 0
 30 499 145 607 339 607 c 0
 539 607 648 493 648 299 c 0
 648 103 535 -10 339 -10 c 0
 143 -10 30 103 30 299 c 0
181 299 m 0
 181 87 232 25 339 25 c 0
 446 25 497 87 497 299 c 0
 497 510 446 573 339 573 c 0
 232 573 181 510 181 299 c 0
EndSplineSet
EndChar

StartChar: Oslash
Encoding: 216 216 66
Width: 676
Flags: MW
HStem: -10 35<315 392.5 315 437> 517 20G<442 442> 573 34<285.5 360.5>
VStem: 30 151<261.5 399> 497 151<201 341>
LayerCount: 2
Fore
SplineSet
519 564 m 1
 603 515 648 423 648 299 c 0
 648 103 535 -10 339 -10 c 0
 284 -10 236 -1 195 16 c 1
 130 -95 l 1
 85 -71 l 1
 150 39 l 1
 72 90 30 179 30 299 c 0
 30 499 145 607 339 607 c 0
 389 607 433 600 471 586 c 1
 531 689 l 1
 576 662 l 1
 519 564 l 1
442 537 m 1
 416 563 382 573 339 573 c 0
 232 573 181 510 181 299 c 0
 181 224 187 167 201 126 c 1
 442 537 l 1
228 71 m 1
 254 38 291 25 339 25 c 0
 446 25 497 87 497 299 c 0
 497 383 489 444 472 486 c 1
 228 71 l 1
EndSplineSet
Position2: "'cpsp' Capital Spacing lookup 0 per glyph data 2" dx=5 dy=0 dh=10 dv=0
EndChar

StartChar: Otilde
Encoding: 213 213 67
Width: 678
Flags: MW
HStem: -10 35<285.5 392.5 285.5 437> 573 34<285.5 392.5> 671 61<403 431.5 403 440.5> 711 60<247.5 276>
VStem: 30 151<201 399> 196 28<672 684 672 700.5> 455 27<758.5 770> 497 151<201 396 201 404.5>
LayerCount: 2
Fore
SplineSet
196 672 m 1xdd
 196 729 216 771 260 771 c 0xdd
 308 771 384 732 422 732 c 0
 441 732 455 747 455 770 c 1
 482 770 l 1
 482 713 463 671 418 671 c 0xeb
 369 671 295 711 257 711 c 0
 238 711 224 696 224 672 c 1
 196 672 l 1xdd
30 299 m 0xd9
 30 499 145 607 339 607 c 0
 539 607 648 493 648 299 c 0
 648 103 535 -10 339 -10 c 0
 143 -10 30 103 30 299 c 0xd9
181 299 m 0
 181 87 232 25 339 25 c 0
 446 25 497 87 497 299 c 0
 497 510 446 573 339 573 c 0
 232 573 181 510 181 299 c 0
EndSplineSet
Position2: "'cpsp' Capital Spacing lookup 0 per glyph data 2" dx=5 dy=0 dh=10 dv=0
EndChar

StartChar: OE
Encoding: 338 338 68
Width: 905
Flags: MW
HStem: -10 36<279.5 340.5> 0 35<585 687 687 733.5> 290 35<572 638 572 638> 406 20G<715 749 749 749> 443 154<800 834 800 800> 562 35<580.5 585 585 658> 574 33<280 362.5>
VStem: 30 150<198.5 389> 434 138<90 290 325 526 526 539.5> 715 34<191 219.5 394.5 426> 800 34<443 486> 827 34<133 179>
LayerCount: 2
Fore
SplineSet
479 0 m 2x75d0
 407 0 342 -10 339 -10 c 0
 141 -10 30 105 30 292 c 0xb3d0
 30 486 127 607 342 607 c 0
 395 607 424 597 471 597 c 2
 834 597 l 1x75e0
 834 443 l 1
 800 443 l 1x79e0
 800 529 757 562 658 562 c 2
 585 562 l 2
 576 562 572 557 572 548 c 2
 572 325 l 1
 638 325 l 2
 683 325 715 363 715 426 c 1
 749 426 l 1
 749 191 l 1
 715 191 l 1
 715 248 679 290 638 290 c 2
 572 290 l 1
 572 48 l 2
 572 39 576 35 585 35 c 2
 687 35 l 2
 780 35 827 87 827 179 c 1
 861 179 l 1
 861 -3 l 1
 844 -1 813 0 766 0 c 2
 479 0 l 2x75d0
434 526 m 2xb3d0
 434 553 390 574 335 574 c 0
 225 574 180 498 180 296 c 0
 180 97 224 26 335 26 c 0
 415 26 434 60 434 90 c 2
 434 526 l 2xb3d0
EndSplineSet
Position2: "'cpsp' Capital Spacing lookup 0 per glyph data 2" dx=5 dy=0 dh=10 dv=0
EndChar

StartChar: P
Encoding: 80 80 69
Width: 547
Flags: MW
HStem: 0 35<74 76 76 82 244.5 251> 248 36<231 286 286 312.5 231 329 231 286> 562 35<70 70 240.5 243 243 283>
VStem: 93 138<57 248 284 540 540 547.5> 379 144<387 468.5>
LayerCount: 2
Fore
SplineSet
39 37 m 1
 74 35 l 2
 75 35 75 35 76 35 c 0
 88 35 93 43 93 57 c 2
 93 540 l 2
 93 555 89 563 70 562 c 2
 39 560 l 1
 39 597 l 1
 302 597 l 2
 454 597 523 542 523 429 c 0
 523 320 448 248 329 248 c 2
 231 248 l 1
 231 57 l 2
 231 42 238 35 251 35 c 2
 300 37 l 1
 300 0 l 1
 39 0 l 1
 39 37 l 1
286 284 m 2
 339 284 379 345 379 429 c 0
 379 508 341 562 283 562 c 2
 243 562 l 2
 238 562 231 557 231 550 c 2
 231 284 l 1
 286 284 l 2
EndSplineSet
Position2: "'cpsp' Capital Spacing lookup 0 per glyph data 2" dx=5 dy=0 dh=10 dv=0
EndChar

StartChar: Thorn
Encoding: 222 222 70
Width: 543
Flags: MW
HStem: 0 27<74 76 76 82> 162 26<244 291 291 314.5 244 327 231 291> 471 25<231 275 231 306> 569 28<74 74 245 251>
VStem: 93 138<49 162 197.5 201 201 471 496 548> 378 141<289.5 378.5>
LayerCount: 2
Fore
SplineSet
39 29 m 1
 74 27 l 2
 75 27 75 27 76 27 c 0
 88 27 93 37 93 49 c 2
 93 548 l 2
 93 559 87 570 74 569 c 2
 39 567 l 1
 39 597 l 1
 300 597 l 1
 300 567 l 1
 251 569 l 2
 239 569 231 559 231 548 c 2
 231 496 l 1
 306 496 l 2
 452 496 519 454 519 334 c 0
 519 223 448 162 327 162 c 2
 231 162 l 1
 231 49 l 2
 231 36 236 26 251 27 c 2
 300 29 l 1
 300 0 l 1
 39 0 l 1
 39 29 l 1
231 201 m 2
 231 194 237 188 244 188 c 2
 291 188 l 2
 338 188 378 245 378 334 c 0
 378 423 340 471 275 471 c 2
 231 471 l 1
 231 201 l 2
EndSplineSet
Position2: "'cpsp' Capital Spacing lookup 0 per glyph data 2" dx=5 dy=0 dh=10 dv=0
EndChar

StartChar: Q
Encoding: 81 81 71
Width: 669
Flags: MW
HStem: -196 36<506.5 541> -5 30 573 34<285.5 392.5>
VStem: 30 151<214.5 399> 497 151<213 396 213 404.5>
LayerCount: 2
Fore
SplineSet
541 -196 m 1
 370 -196 259 -116 262 -3 c 1
 114 23 30 130 30 299 c 0
 30 499 145 607 339 607 c 0
 539 607 648 493 648 299 c 0
 648 127 561 19 408 -5 c 1
 406 -94 462 -160 551 -160 c 1
 541 -196 l 1
181 299 m 0
 181 87 232 25 339 25 c 0
 446 25 497 87 497 299 c 0
 497 510 446 573 339 573 c 0
 232 573 181 510 181 299 c 0
EndSplineSet
Position2: "'cpsp' Capital Spacing lookup 0 per glyph data 2" dx=5 dy=0 dh=10 dv=0
EndChar

StartChar: R
Encoding: 82 82 72
Width: 597
Flags: MW
HStem: 0 35<74 76 76 82 244.5 251> 271 35<231 258 231 294> 562 35<71 71 239 243 243 275>
VStem: 93 138<57 271 306 541 541 546.5> 373 136<406 479.5> 388 135<105.5 137 137 176.5 105.5 186>
LayerCount: 2
Fore
SplineSet
39 37 m 1xf4
 74 35 l 2
 75 35 75 35 76 35 c 0
 88 35 93 43 93 57 c 2
 93 541 l 2
 93 552 87 563 71 562 c 2
 39 560 l 1
 39 597 l 1
 298 597 l 2
 441 597 509 550 509 447 c 0xf8
 509 365 453 309 364 290 c 1
 432 290 523 231 523 122 c 0
 523 89 534 33 552 28 c 0
 555 27 560 26 565 26 c 0
 570 26 576 27 581 30 c 1
 581 0 l 1
 404 0 l 1
 396 16 391 39 390 66 c 0
 389 79 388 92 388 104 c 2
 388 137 l 2
 388 235 322 271 258 271 c 2
 231 271 l 1
 231 57 l 2
 231 42 238 35 251 35 c 2
 300 37 l 1
 300 0 l 1
 39 0 l 1
 39 37 l 1xf4
294 306 m 2
 341 306 373 354 373 434 c 0
 373 525 341 562 275 562 c 2
 243 562 l 2
 235 562 231 559 231 552 c 2
 231 306 l 1
 294 306 l 2
EndSplineSet
Position2: "'cpsp' Capital Spacing lookup 0 per glyph data 2" dx=5 dy=0 dh=10 dv=0
EndChar

StartChar: Racute
Encoding: 340 340 73
Width: 597
Flags: MW
HStem: 0 35<74 76 76 82 244.5 251> 271 35<231 258 231 294> 562 35<71 71 239 243 243 275>
VStem: 93 138<57 271 306 541 541 546.5> 373 136<406 479.5> 388 135<105.5 137 137 176.5 105.5 186>
LayerCount: 2
Fore
SplineSet
336 801 m 2xf4
 353 820 357 826 372 826 c 0
 396 826 440 803 440 789 c 0
 440 782 435 777 427 771 c 2
 260 669 l 2
 254 665 244 660 236 660 c 0
 229 660 225 664 225 670 c 0
 225 678 230 685 241 697 c 2
 336 801 l 2xf4
74 35 m 1
 76 35 l 2xf4
 88 35 93 43 93 57 c 2
 93 541 l 2
 93 552 87 563 71 562 c 2
 39 560 l 1
 39 597 l 1
 298 597 l 2
 441 597 509 550 509 447 c 0xf8
 509 365 453 309 364 290 c 1
 432 290 523 231 523 122 c 0
 523 89 534 33 552 28 c 0
 555 27 560 26 565 26 c 0
 570 26 576 27 581 30 c 1
 581 0 l 1
 404 0 l 1
 396 16 391 39 390 66 c 0
 389 79 388 92 388 104 c 2
 388 137 l 2
 388 235 322 271 258 271 c 2
 231 271 l 1
 231 57 l 2
 231 42 238 35 251 35 c 2
 300 37 l 1
 300 0 l 1
 39 0 l 1
 39 37 l 1
 74 35 l 1
294 306 m 2xf8
 341 306 373 354 373 434 c 0
 373 525 341 562 275 562 c 2
 243 562 l 2
 235 562 231 559 231 552 c 2
 231 306 l 1
 294 306 l 2xf8
EndSplineSet
EndChar

StartChar: Rcaron
Encoding: 344 344 74
Width: 597
Flags: MW
HStem: 0 35<74 76 76 82 244.5 251> 271 35<231 258 231 294> 562 35<71 71 239 243 243 275> 686 60<258 291 291 324>
VStem: 93 138<57 271 306 541 541 546.5> 373 136<406 479.5> 388 135<105.5 137 137 176.5 105.5 186>
LayerCount: 2
Fore
SplineSet
211 734 m 1xfa
 170 780 135 806 135 816 c 0
 135 819 137 824 147 824 c 0
 159 824 172 817 180 812 c 2
 291 746 l 1
 403 812 l 2
 411 817 424 824 436 824 c 0
 445 824 447 819 447 816 c 0
 447 806 412 780 371 734 c 1
 348 710 l 1
 324 686 l 2
 313 674 301 668 291 668 c 0
 281 668 270 674 258 686 c 2
 234 710 l 1
 211 734 l 1xfa
74 35 m 1
 76 35 l 2xfa
 88 35 93 43 93 57 c 2
 93 541 l 2
 93 552 87 563 71 562 c 2
 39 560 l 1
 39 597 l 1
 298 597 l 2
 441 597 509 550 509 447 c 0xfc
 509 365 453 309 364 290 c 1
 432 290 523 231 523 122 c 0
 523 89 534 33 552 28 c 0
 555 27 560 26 565 26 c 0
 570 26 576 27 581 30 c 1
 581 0 l 1
 404 0 l 1
 396 16 391 39 390 66 c 0
 389 79 388 92 388 104 c 2
 388 137 l 2
 388 235 322 271 258 271 c 2
 231 271 l 1
 231 57 l 2
 231 42 238 35 251 35 c 2
 300 37 l 1
 300 0 l 1
 39 0 l 1
 39 37 l 1
 74 35 l 1
294 306 m 2xfc
 341 306 373 354 373 434 c 0
 373 525 341 562 275 562 c 2
 243 562 l 2
 235 562 231 559 231 552 c 2
 231 306 l 1
 294 306 l 2xfc
EndSplineSet
EndChar

StartChar: Rcommaaccent
Encoding: 342 342 75
Width: 597
Flags: MW
HStem: -141 107<274 281> 0 35<74 76 76 82 244.5 251> 271 35<231 258 231 294> 562 35<71 71 239 243 243 275>
VStem: 93 138<57 271 306 541 541 546.5> 302 73<-179 -91.5> 373 136<406 479.5> 388 135<105.5 137 137 176.5 105.5 186>
LayerCount: 2
Fore
SplineSet
74 35 m 1x79
 76 35 l 2x79
 88 35 93 43 93 57 c 2
 93 541 l 2
 93 552 87 563 71 562 c 2
 39 560 l 1
 39 597 l 1
 298 597 l 2
 441 597 509 550 509 447 c 0x7a
 509 365 453 309 364 290 c 1
 432 290 523 231 523 122 c 0
 523 89 534 33 552 28 c 0
 555 27 560 26 565 26 c 0
 570 26 576 27 581 30 c 1
 581 0 l 1
 404 0 l 1
 396 16 391 39 390 66 c 0
 389 79 388 92 388 104 c 2
 388 137 l 2
 388 235 322 271 258 271 c 2
 231 271 l 1
 231 57 l 2
 231 42 238 35 251 35 c 2
 300 37 l 1
 300 0 l 1
 39 0 l 1
 39 37 l 1
 74 35 l 1x79
294 306 m 2x7a
 341 306 373 354 373 434 c 0
 373 525 341 562 275 562 c 2
 243 562 l 2
 235 562 231 559 231 552 c 2
 231 306 l 1
 294 306 l 2x7a
254 -229 m 1xfd
 279 -214 302 -188 302 -170 c 0
 302 -147 288 -141 274 -141 c 0
 248 -141 233 -117 233 -92 c 0
 233 -64 252 -34 296 -34 c 0
 345 -34 375 -72 375 -111 c 0
 375 -175 326 -226 276 -251 c 1
 254 -229 l 1xfd
EndSplineSet
EndChar

StartChar: S
Encoding: 83 83 76
Width: 498
Flags: MW
HStem: -10 36<240 279.5 200.5 328> 434 138<414 421.5 412 448 414 414> 573 34<236.5 279.5 183 308>
VStem: 48 110<464.5 477.5> 355 119<129 151.5> 414 28<434 518>
LayerCount: 2
Fore
SplineSet
73 203 m 1xa4
 87 84 156 26 245 26 c 0
 314 26 355 68 355 128 c 0
 355 175 325 210 260 235 c 1
 162 276 l 2
 87 307 48 359 48 431 c 0
 48 524 114 607 252 607 c 0xb8
 307 607 335 595 387 578 c 0
 398 574 407 572 417 572 c 0
 426 572 437 573 445 576 c 1
 443 560 442 536 442 500 c 0
 442 462 443 449 448 434 c 1xc4
 414 434 l 1xa4
 414 518 348 573 268 573 c 0
 205 573 158 537 158 483 c 0
 158 446 183 417 244 392 c 2
 329 356 l 1
 429 312 474 268 474 182 c 0xb8
 474 76 400 -10 256 -10 c 0
 224 -10 200 -7 161 3 c 0
 119 14 99 18 83 18 c 0
 69 18 46 14 45 13 c 1
 48 29 49 59 49 90 c 0
 49 139 46 197 41 200 c 1
 73 203 l 1xa4
EndSplineSet
Position2: "'cpsp' Capital Spacing lookup 0 per glyph data 2" dx=5 dy=0 dh=10 dv=0
EndChar

StartChar: Sacute
Encoding: 346 346 77
Width: 498
Flags: MW
HStem: -10 36<240 279.5 200.5 328> 434 138<414 421.5 412 448 414 414> 573 34<236.5 279.5 183 308>
VStem: 48 110<464.5 477.5> 355 119<129 151.5> 414 28<434 518>
LayerCount: 2
Fore
SplineSet
296 801 m 2xa4
 313 820 317 826 332 826 c 0
 356 826 400 803 400 789 c 0
 400 782 395 777 387 771 c 2
 220 669 l 2
 214 665 204 660 196 660 c 0
 189 660 185 664 185 670 c 0
 185 678 190 685 201 697 c 2
 296 801 l 2xa4
73 203 m 1
 87 84 156 26 245 26 c 0
 314 26 355 68 355 128 c 0
 355 175 325 210 260 235 c 1
 162 276 l 2
 87 307 48 359 48 431 c 0
 48 524 114 607 252 607 c 0xb8
 307 607 335 595 387 578 c 0
 398 574 407 572 417 572 c 0
 426 572 437 573 445 576 c 1
 443 560 442 536 442 500 c 0
 442 462 443 449 448 434 c 1xc4
 414 434 l 1xa4
 414 518 348 573 268 573 c 0
 205 573 158 537 158 483 c 0
 158 446 183 417 244 392 c 2
 329 356 l 1
 429 312 474 268 474 182 c 0xb8
 474 76 400 -10 256 -10 c 0
 224 -10 200 -7 161 3 c 0
 119 14 99 18 83 18 c 0
 69 18 46 14 45 13 c 1
 48 29 49 59 49 90 c 0
 49 139 46 197 41 200 c 1
 73 203 l 1
EndSplineSet
EndChar

StartChar: Scaron
Encoding: 352 352 78
Width: 498
Flags: MW
HStem: -10 36<240 279.5 200.5 328> 434 138<414 421.5 412 448 414 414> 573 34<236.5 279.5 183 308> 686 60<218 251 251 284>
VStem: 48 110<464.5 477.5> 355 119<129 151.5> 414 28<434 518>
LayerCount: 2
Fore
SplineSet
171 734 m 1xb2
 130 780 95 806 95 816 c 0
 95 819 97 824 107 824 c 0
 119 824 132 817 140 812 c 2
 251 746 l 1
 363 812 l 2
 371 817 384 824 396 824 c 0
 405 824 407 819 407 816 c 0
 407 806 372 780 331 734 c 1
 308 710 l 1
 284 686 l 2
 273 674 261 668 251 668 c 0
 241 668 230 674 218 686 c 2
 194 710 l 1
 171 734 l 1xb2
73 203 m 1
 87 84 156 26 245 26 c 0
 314 26 355 68 355 128 c 0
 355 175 325 210 260 235 c 1
 162 276 l 2
 87 307 48 359 48 431 c 0
 48 524 114 607 252 607 c 0xbc
 307 607 335 595 387 578 c 0
 398 574 407 572 417 572 c 0
 426 572 437 573 445 576 c 1
 443 560 442 536 442 500 c 0
 442 462 443 449 448 434 c 1xd2
 414 434 l 1xb2
 414 518 348 573 268 573 c 0
 205 573 158 537 158 483 c 0
 158 446 183 417 244 392 c 2
 329 356 l 1
 429 312 474 268 474 182 c 0xbc
 474 76 400 -10 256 -10 c 0
 224 -10 200 -7 161 3 c 0
 119 14 99 18 83 18 c 0
 69 18 46 14 45 13 c 1
 48 29 49 59 49 90 c 0
 49 139 46 197 41 200 c 1
 73 203 l 1
EndSplineSet
Position2: "'cpsp' Capital Spacing lookup 0 per glyph data 2" dx=5 dy=0 dh=10 dv=0
EndChar

StartChar: Scedilla
Encoding: 350 350 79
Width: 498
Flags: MW
HStem: -214 35<199.5 254.5> -9 35<229 229> 434 138<414 421.5 412 448 414 414> 573 34<236.5 279.5 183 308>
VStem: 48 110<464.5 477.5> 189 59<-67.5 -62.5> 257 87<-145 -124.5> 355 119<131 151.5> 414 28<434 518>
LayerCount: 2
Fore
SplineSet
254 -36 m 2xd480
 250 -43 248 -50 248 -55 c 0xd480
 248 -81 344 -60 344 -122 c 0
 344 -186 281 -214 228 -214 c 0
 211 -214 182 -213 159 -198 c 1
 172 -166 l 1
 180 -175 192 -179 207 -179 c 0
 232 -179 257 -157 257 -133 c 0
 257 -116 240 -103 223 -94 c 1xd680
 200 -80 l 2
 193 -75 189 -70 189 -65 c 0
 189 -60 191 -56 195 -52 c 2
 229 -9 l 1
 208 -8 188 -4 161 3 c 0
 119 14 99 18 83 18 c 0
 69 18 46 14 45 13 c 1
 48 29 49 59 49 90 c 0
 49 139 46 197 41 200 c 1
 73 203 l 1
 87 84 156 26 245 26 c 0
 314 26 355 68 355 128 c 0
 355 175 325 210 260 235 c 1
 162 276 l 2
 87 307 48 359 48 431 c 0
 48 524 114 607 252 607 c 0xdd
 307 607 335 595 387 578 c 0
 398 574 407 572 417 572 c 0
 426 572 437 573 445 576 c 1
 443 560 442 536 442 500 c 0
 442 462 443 449 448 434 c 1xe480
 414 434 l 1xd480
 414 518 348 573 268 573 c 0
 205 573 158 537 158 483 c 0
 158 446 183 417 244 392 c 2
 329 356 l 1
 429 312 474 268 474 182 c 0xdd
 474 80 405 -4 270 -10 c 1
 254 -36 l 2xd480
EndSplineSet
EndChar

StartChar: Scommaaccent
Encoding: 536 536 80
Width: 498
Flags: MW
HStem: -141 107<234 241> -10 36<240 279.5 200.5 328> 434 138<414 421.5 412 448 414 414> 573 34<236.5 279.5 183 308>
VStem: 48 110<464.5 477.5> 262 73<-179 -91.5> 355 119<129 151.5> 414 28<434 518>
LayerCount: 2
Fore
SplineSet
73 203 m 1x51
 87 84 156 26 245 26 c 0
 314 26 355 68 355 128 c 0
 355 175 325 210 260 235 c 1
 162 276 l 2
 87 307 48 359 48 431 c 0
 48 524 114 607 252 607 c 0x5a
 307 607 335 595 387 578 c 0
 398 574 407 572 417 572 c 0
 426 572 437 573 445 576 c 1
 443 560 442 536 442 500 c 0
 442 462 443 449 448 434 c 1x61
 414 434 l 1x51
 414 518 348 573 268 573 c 0
 205 573 158 537 158 483 c 0
 158 446 183 417 244 392 c 2
 329 356 l 1
 429 312 474 268 474 182 c 0x5a
 474 76 400 -10 256 -10 c 0
 224 -10 200 -7 161 3 c 0
 119 14 99 18 83 18 c 0
 69 18 46 14 45 13 c 1
 48 29 49 59 49 90 c 0
 49 139 46 197 41 200 c 1
 73 203 l 1x51
214 -229 m 1xd5
 239 -214 262 -188 262 -170 c 0
 262 -147 248 -141 234 -141 c 0
 208 -141 193 -117 193 -92 c 0
 193 -64 212 -34 256 -34 c 0
 305 -34 335 -72 335 -111 c 0
 335 -175 286 -226 236 -251 c 1
 214 -229 l 1xd5
EndSplineSet
EndChar

StartChar: T
Encoding: 84 84 81
Width: 544
Flags: MW
HStem: 0 35<184 190 354.5 361> 444 154<15 482 15 482 63 529 63 496> 563 35<128.5 173 173 191 349.5 353 353 373>
VStem: 15 34<444 484 444 600> 203 138<60 551 551 552> 496 33<444 484>
LayerCount: 2
Fore
SplineSet
15 600 m 1xbc
 24 599 40 598 63 598 c 2
 482 598 l 2
 509 598 524 599 529 600 c 1xbc
 529 444 l 1
 496 444 l 1xdc
 496 524 462 563 373 563 c 2
 353 563 l 2
 346 563 342 559 341 552 c 1
 341 57 l 2
 341 42 348 35 361 35 c 2
 414 37 l 1
 414 0 l 1
 130 0 l 1
 130 37 l 1
 184 35 l 2
 196 35 203 47 203 60 c 2
 203 551 l 2
 203 559 199 563 191 563 c 2
 173 563 l 2xbc
 84 563 49 524 49 444 c 1
 15 444 l 1xdc
 15 600 l 1xbc
EndSplineSet
Position2: "'cpsp' Capital Spacing lookup 0 per glyph data 2" dx=5 dy=0 dh=10 dv=0
EndChar

StartChar: Tcaron
Encoding: 356 356 82
Width: 544
Flags: MW
HStem: 0 35<184 190 354.5 361> 444 154<15 482 15 482 63 529 63 496> 563 35<128.5 173 173 191 349.5 353 353 373> 686 60<240 273 273 306>
VStem: 15 34<444 484 444 600> 203 138<60 551 551 552> 496 33<444 484>
LayerCount: 2
Fore
SplineSet
193 734 m 1xbe
 152 780 117 806 117 816 c 0
 117 819 119 824 129 824 c 0
 141 824 154 817 162 812 c 2
 273 746 l 1
 385 812 l 2
 393 817 406 824 418 824 c 0
 427 824 429 819 429 816 c 0
 429 806 394 780 353 734 c 1
 330 710 l 1
 306 686 l 2
 295 674 283 668 273 668 c 0
 263 668 252 674 240 686 c 2
 216 710 l 1
 193 734 l 1xbe
15 600 m 1
 24 599 40 598 63 598 c 2
 482 598 l 2
 509 598 524 599 529 600 c 1xbe
 529 444 l 1
 496 444 l 1xde
 496 524 462 563 373 563 c 2
 353 563 l 2
 346 563 342 559 341 552 c 1
 341 57 l 2
 341 42 348 35 361 35 c 2
 414 37 l 1
 414 0 l 1
 130 0 l 1
 130 37 l 1
 184 35 l 2
 196 35 203 47 203 60 c 2
 203 551 l 2
 203 559 199 563 191 563 c 2
 173 563 l 2xbe
 84 563 49 524 49 444 c 1
 15 444 l 1xde
 15 600 l 1
EndSplineSet
EndChar

StartChar: Tcedilla
Encoding: 354 354 83
Width: 544
Flags: MW
HStem: -214 35<221.5 276.5> 0 35<184 190 184 258 354.5 361> 444 154<15 482 15 482 63 529 63 496> 563 35<128.5 173 173 191 349.5 353 353 373>
VStem: 15 34<444 484 444 600> 203 138<60 551 551 552> 211 59<-67.5 -62.5> 279 87<-145 -124.5> 496 33<444 484>
LayerCount: 2
Fore
SplineSet
482 598 m 2xdc80
 509 598 524 599 529 600 c 1xdc80
 529 444 l 1
 496 444 l 1xec80
 496 524 462 563 373 563 c 2
 353 563 l 2
 346 563 342 559 341 552 c 1
 341 57 l 2
 341 42 348 35 361 35 c 2
 414 37 l 1
 414 0 l 1
 298 0 l 1
 276 -36 l 2
 272 -43 270 -50 270 -55 c 0xdc80
 270 -81 366 -60 366 -122 c 0
 366 -186 303 -214 250 -214 c 0
 233 -214 204 -213 181 -198 c 1
 194 -166 l 1
 202 -175 214 -179 229 -179 c 0
 254 -179 279 -157 279 -133 c 0
 279 -116 262 -103 245 -94 c 1xd980
 222 -80 l 2
 215 -75 211 -70 211 -65 c 0
 211 -60 213 -56 217 -52 c 2
 258 0 l 1
 130 0 l 1
 130 37 l 1xda80
 184 35 l 2
 196 35 203 47 203 60 c 2
 203 551 l 2
 203 559 199 563 191 563 c 2
 173 563 l 2xdc80
 84 563 49 524 49 444 c 1
 15 444 l 1xec80
 15 600 l 1
 24 599 40 598 63 598 c 2
 482 598 l 2xdc80
EndSplineSet
EndChar

StartChar: uni021A
Encoding: 538 538 84
Width: 544
Flags: MW
HStem: -141 107<256 263> 0 35<184 190 354.5 361> 444 154<15 482 15 482 63 529 63 496> 563 35<128.5 173 173 191 349.5 353 353 373>
VStem: 15 34<444 484 444 600> 203 138<60 551 551 552> 284 73<-179 -91.5> 496 33<444 484>
LayerCount: 2
Fore
SplineSet
15 600 m 1x5d
 24 599 40 598 63 598 c 2
 482 598 l 2
 509 598 524 599 529 600 c 1x5d
 529 444 l 1
 496 444 l 1x6d
 496 524 462 563 373 563 c 2
 353 563 l 2
 346 563 342 559 341 552 c 1
 341 57 l 2
 341 42 348 35 361 35 c 2
 414 37 l 1
 414 0 l 1
 130 0 l 1
 130 37 l 1
 184 35 l 2
 196 35 203 47 203 60 c 2
 203 551 l 2
 203 559 199 563 191 563 c 2
 173 563 l 2x5d
 84 563 49 524 49 444 c 1
 15 444 l 1x6d
 15 600 l 1x5d
236 -229 m 1xdb
 261 -214 284 -188 284 -170 c 0
 284 -147 270 -141 256 -141 c 0
 230 -141 215 -117 215 -92 c 0
 215 -64 234 -34 278 -34 c 0
 327 -34 357 -72 357 -111 c 0
 357 -175 308 -226 258 -251 c 1
 236 -229 l 1xdb
EndSplineSet
EndChar

StartChar: U
Encoding: 85 85 85
Width: 659
Flags: MW
HStem: -10 41<335.5 433> 562 35<73 73 242.5 248.5 248 250 514 514 587.5 593.5 593 595>
VStem: 92 138<199 541 541 542> 532 43<203 541 541 542>
LayerCount: 2
Fore
SplineSet
35 597 m 1
 299 597 l 1
 299 560 l 1
 250 562 l 2
 249 562 249 562 248 562 c 0
 237 562 230 553 230 542 c 2
 230 199 l 2
 230 83 287 31 384 31 c 0
 491 31 532 103 532 203 c 2
 532 541 l 2
 532 554 525 563 514 562 c 2
 465 560 l 1
 465 597 l 1
 634 597 l 1
 634 560 l 1
 595 562 l 2
 594 562 594 562 593 562 c 0
 582 562 575 553 575 542 c 2
 575 203 l 2
 575 73 508 -10 358 -10 c 0
 186 -10 92 55 92 199 c 2
 92 541 l 2
 92 552 84 563 73 562 c 2
 35 560 l 1
 35 597 l 1
EndSplineSet
Position2: "'cpsp' Capital Spacing lookup 0 per glyph data 2" dx=5 dy=0 dh=10 dv=0
EndChar

StartChar: Uacute
Encoding: 218 218 86
Width: 659
Flags: MW
HStem: -10 41<335.5 433> 562 35<73 73 242.5 248 248 250 514 514 587.5 593 593 595>
VStem: 92 138<199 541 541 542> 532 43<203 541 541 542>
LayerCount: 2
Fore
SplineSet
389 801 m 2
 406 820 410 826 425 826 c 0
 449 826 493 803 493 789 c 0
 493 782 488 777 480 771 c 2
 313 669 l 2
 307 665 297 660 289 660 c 0
 282 660 278 664 278 670 c 0
 278 678 283 685 294 697 c 2
 389 801 l 2
299 597 m 1
 299 560 l 1
 250 562 l 1
 248 562 l 2
 237 562 230 553 230 542 c 2
 230 199 l 2
 230 83 287 31 384 31 c 0
 491 31 532 103 532 203 c 2
 532 541 l 2
 532 554 525 563 514 562 c 2
 465 560 l 1
 465 597 l 1
 634 597 l 1
 634 560 l 1
 595 562 l 1
 593 562 l 2
 582 562 575 553 575 542 c 2
 575 203 l 2
 575 73 508 -10 358 -10 c 0
 186 -10 92 55 92 199 c 2
 92 541 l 2
 92 552 84 563 73 562 c 2
 35 560 l 1
 35 597 l 1
 299 597 l 1
EndSplineSet
Position2: "'cpsp' Capital Spacing lookup 0 per glyph data 2" dx=5 dy=0 dh=10 dv=0
EndChar

StartChar: Ucircumflex
Encoding: 219 219 87
Width: 659
Flags: MW
HStem: -10 41<335.5 433> 562 35<73 73 242.5 248 248 250 514 514 587.5 593 593 595> 744 60<311 344>
VStem: 92 138<199 541 541 542> 532 43<203 541 541 542>
LayerCount: 2
Fore
SplineSet
424 756 m 1
 465 710 500 684 500 674 c 0
 500 671 498 666 488 666 c 0
 476 666 463 673 455 678 c 2
 344 744 l 1
 232 678 l 2
 224 673 211 666 199 666 c 0
 190 666 188 671 188 674 c 0
 188 684 223 710 264 756 c 1
 287 780 l 1
 311 804 l 2
 322 816 334 822 344 822 c 0
 354 822 365 816 377 804 c 2
 401 780 l 1
 424 756 l 1
299 597 m 1
 299 560 l 1
 250 562 l 1
 248 562 l 2
 237 562 230 553 230 542 c 2
 230 199 l 2
 230 83 287 31 384 31 c 0
 491 31 532 103 532 203 c 2
 532 541 l 2
 532 554 525 563 514 562 c 2
 465 560 l 1
 465 597 l 1
 634 597 l 1
 634 560 l 1
 595 562 l 1
 593 562 l 2
 582 562 575 553 575 542 c 2
 575 203 l 2
 575 73 508 -10 358 -10 c 0
 186 -10 92 55 92 199 c 2
 92 541 l 2
 92 552 84 563 73 562 c 2
 35 560 l 1
 35 597 l 1
 299 597 l 1
EndSplineSet
Position2: "'cpsp' Capital Spacing lookup 0 per glyph data 2" dx=5 dy=0 dh=10 dv=0
EndChar

StartChar: Udieresis
Encoding: 220 220 88
Width: 659
Flags: MW
HStem: -10 41<335.5 433> 562 35<73 73 242.5 248 248 250 514 514 587.5 593 593 595> 681 126<215.5 260 215.5 260.5 425.5 470>
VStem: 92 138<199 541 541 542> 161 154<724.5 763> 371 154<724.5 763> 532 43<203 541 541 542>
LayerCount: 2
Fore
SplineSet
161 744 m 0xec
 161 782 193 807 238 807 c 0
 282 807 315 782 315 744 c 0
 315 705 283 681 238 681 c 0
 193 681 161 705 161 744 c 0xec
371 744 m 0
 371 782 403 807 448 807 c 0
 492 807 525 782 525 744 c 0
 525 705 493 681 448 681 c 0
 403 681 371 705 371 744 c 0
299 597 m 1
 299 560 l 1
 250 562 l 1
 248 562 l 2
 237 562 230 553 230 542 c 2
 230 199 l 2
 230 83 287 31 384 31 c 0
 491 31 532 103 532 203 c 2
 532 541 l 2
 532 554 525 563 514 562 c 2
 465 560 l 1
 465 597 l 1
 634 597 l 1
 634 560 l 1
 595 562 l 1
 593 562 l 2
 582 562 575 553 575 542 c 2
 575 203 l 2
 575 73 508 -10 358 -10 c 0
 186 -10 92 55 92 199 c 2
 92 541 l 2
 92 552 84 563 73 562 c 2
 35 560 l 1
 35 597 l 1xd2
 299 597 l 1
EndSplineSet
Position2: "'cpsp' Capital Spacing lookup 0 per glyph data 2" dx=5 dy=0 dh=10 dv=0
EndChar

StartChar: Ugrave
Encoding: 217 217 89
Width: 659
Flags: MW
HStem: -10 41<335.5 433> 562 35<73 73 242.5 248 248 250 514 514 587.5 593 593 595>
VStem: 92 138<199 541 541 542> 532 43<203 541 541 542>
LayerCount: 2
Fore
SplineSet
300 801 m 2
 283 820 279 826 264 826 c 0
 240 826 196 803 196 789 c 0
 196 782 201 777 209 771 c 2
 376 669 l 2
 382 665 392 660 400 660 c 0
 407 660 411 664 411 670 c 0
 411 678 406 685 395 697 c 2
 300 801 l 2
299 597 m 1
 299 560 l 1
 250 562 l 1
 248 562 l 2
 237 562 230 553 230 542 c 2
 230 199 l 2
 230 83 287 31 384 31 c 0
 491 31 532 103 532 203 c 2
 532 541 l 2
 532 554 525 563 514 562 c 2
 465 560 l 1
 465 597 l 1
 634 597 l 1
 634 560 l 1
 595 562 l 1
 593 562 l 2
 582 562 575 553 575 542 c 2
 575 203 l 2
 575 73 508 -10 358 -10 c 0
 186 -10 92 55 92 199 c 2
 92 541 l 2
 92 552 84 563 73 562 c 2
 35 560 l 1
 35 597 l 1
 299 597 l 1
EndSplineSet
Position2: "'cpsp' Capital Spacing lookup 0 per glyph data 2" dx=5 dy=0 dh=10 dv=0
EndChar

StartChar: Uhungarumlaut
Encoding: 368 368 90
Width: 659
Flags: MW
HStem: -10 41<335.5 433> 562 35<73 73 242.5 248 248 250 514 514 587.5 593 593 595>
VStem: 92 138<199 541 541 542> 532 43<203 541 541 542>
LayerCount: 2
Fore
SplineSet
226 685 m 0
 284 792 294 811 299 817 c 0
 305 825 307 826 312 826 c 0
 322 826 359 814 370 810 c 0
 375 808 379 804 379 798 c 0
 379 795 377 791 373 786 c 0
 365 777 349 762 258 677 c 0
 247 667 240 665 234 665 c 0
 226 665 223 670 223 674 c 0
 223 678 224 681 226 685 c 0
354 685 m 0
 412 792 422 811 426 817 c 0
 432 825 434 826 439 826 c 0
 449 826 487 814 498 810 c 0
 503 808 507 804 507 798 c 0
 507 795 505 791 501 786 c 0
 492 777 476 762 385 677 c 0
 374 667 368 665 361 665 c 0
 354 665 351 670 351 674 c 0
 351 678 352 681 354 685 c 0
299 597 m 1
 299 560 l 1
 250 562 l 1
 248 562 l 2
 237 562 230 553 230 542 c 2
 230 199 l 2
 230 83 287 31 384 31 c 0
 491 31 532 103 532 203 c 2
 532 541 l 2
 532 554 525 563 514 562 c 2
 465 560 l 1
 465 597 l 1
 634 597 l 1
 634 560 l 1
 595 562 l 1
 593 562 l 2
 582 562 575 553 575 542 c 2
 575 203 l 2
 575 73 508 -10 358 -10 c 0
 186 -10 92 55 92 199 c 2
 92 541 l 2
 92 552 84 563 73 562 c 2
 35 560 l 1
 35 597 l 1
 299 597 l 1
EndSplineSet
EndChar

StartChar: Umacron
Encoding: 362 362 91
Width: 659
Flags: MW
HStem: -10 41<335.5 433> 562 35<73 73 242.5 248 248 250 514 514 587.5 593 593 595> 699 47<224 463 224 463>
VStem: 92 138<199 541 541 542> 224 239<699 746 699 746> 532 43<203 541 541 542>
LayerCount: 2
Fore
SplineSet
224 746 m 1xec
 463 746 l 1
 463 699 l 1
 224 699 l 1
 224 746 l 1xec
299 597 m 1
 299 560 l 1
 250 562 l 1
 248 562 l 2
 237 562 230 553 230 542 c 2
 230 199 l 2
 230 83 287 31 384 31 c 0
 491 31 532 103 532 203 c 2
 532 541 l 2
 532 554 525 563 514 562 c 2
 465 560 l 1
 465 597 l 1
 634 597 l 1
 634 560 l 1
 595 562 l 1
 593 562 l 2
 582 562 575 553 575 542 c 2
 575 203 l 2
 575 73 508 -10 358 -10 c 0
 186 -10 92 55 92 199 c 2
 92 541 l 2
 92 552 84 563 73 562 c 2
 35 560 l 1
 35 597 l 1xf4
 299 597 l 1
EndSplineSet
EndChar

StartChar: Uogonek
Encoding: 370 370 92
Width: 659
Flags: MW
HStem: -159 58<465.5 468.5> -10 41<335.5 367> 562 35<73 73 242.5 248 248 250 514 514 587.5 593 593 595>
VStem: 92 138<199 541 541 542> 366 67<-111 -41> 532 43<203 541 541 542>
LayerCount: 2
Fore
SplineSet
634 597 m 1
 634 560 l 1
 595 562 l 1
 593 562 l 2
 582 562 575 553 575 542 c 2
 575 203 l 2
 575 112 542 44 472 12 c 1
 447 -2 433 -27 433 -55 c 0
 433 -80 448 -101 483 -101 c 0
 507 -101 531 -93 553 -80 c 1
 565 -99 l 1
 532 -137 490 -159 447 -159 c 0
 406 -159 366 -135 366 -87 c 0
 366 -57 380 -29 407 -7 c 1
 392 -9 376 -10 358 -10 c 0
 186 -10 92 55 92 199 c 2
 92 541 l 2
 92 552 84 563 73 562 c 2
 35 560 l 1
 35 597 l 1
 299 597 l 1
 299 560 l 1
 250 562 l 1
 248 562 l 2
 237 562 230 553 230 542 c 2
 230 199 l 2
 230 83 287 31 384 31 c 0
 491 31 532 103 532 203 c 2
 532 541 l 2
 532 554 525 563 514 562 c 2
 465 560 l 1
 465 597 l 1
 634 597 l 1
EndSplineSet
EndChar

StartChar: Uring
Encoding: 366 366 93
Width: 659
Flags: MW
HStem: -10 41<335.5 433> 562 35<73 73 242.5 248 248 250 514 514 587.5 593 593 595> 665 41<331.5 354.5 331.5 368.5> 789 42<331.5 354.5>
VStem: 92 138<199 541 541 542> 256 50<735 760.5 735 771.5> 381 50<735 760.5> 532 43<203 541 541 542>
LayerCount: 2
Fore
SplineSet
256 748 m 0
 256 795 294 831 343 831 c 0
 394 831 431 796 431 748 c 0
 431 700 394 665 343 665 c 0
 293 665 256 700 256 748 c 0
306 748 m 0
 306 722 320 706 343 706 c 0
 366 706 381 722 381 748 c 0
 381 773 366 789 343 789 c 0
 320 789 306 773 306 748 c 0
299 597 m 1
 299 560 l 1
 250 562 l 1
 248 562 l 2
 237 562 230 553 230 542 c 2
 230 199 l 2
 230 83 287 31 384 31 c 0
 491 31 532 103 532 203 c 2
 532 541 l 2
 532 554 525 563 514 562 c 2
 465 560 l 1
 465 597 l 1
 634 597 l 1
 634 560 l 1
 595 562 l 1
 593 562 l 2
 582 562 575 553 575 542 c 2
 575 203 l 2
 575 73 508 -10 358 -10 c 0
 186 -10 92 55 92 199 c 2
 92 541 l 2
 92 552 84 563 73 562 c 2
 35 560 l 1
 35 597 l 1xfb
 299 597 l 1
EndSplineSet
EndChar

StartChar: V
Encoding: 86 86 94
Width: 607
Flags: MW
HStem: 562 35<26 30.5 200.5 204 514 518 591 591>
VStem: 466 161<560 597 560 597>
LayerCount: 2
Fore
SplineSet
627 597 m 1
 627 560 l 1
 591 562 l 2
 580 563 577 555 570 539 c 2
 335 -4 l 1
 283 -4 l 1
 49 539 l 2
 42 554 35 562 26 562 c 2
 -2 560 l 1
 -2 597 l 1
 254 597 l 1
 254 560 l 1
 204 562 l 2
 197 562 193 555 193 547 c 0
 193 544 194 541 195 538 c 2
 359 159 l 1
 519 527 l 2
 524 538 526 546 526 551 c 0
 526 559 522 562 514 562 c 2
 466 560 l 1
 466 597 l 1
 627 597 l 1
EndSplineSet
Position2: "'cpsp' Capital Spacing lookup 0 per glyph data 2" dx=5 dy=0 dh=10 dv=0
EndChar

StartChar: W
Encoding: 87 87 95
Width: 911
Flags: MW
HStem: 562 35<27 31.5 197.5 202 411 411 569.5 575 823 823 901 901>
VStem: 771 160<560 597 560 597>
LayerCount: 2
Fore
SplineSet
931 597 m 1
 931 560 l 1
 901 562 l 2
 888 563 879 550 876 541 c 2
 691 -10 l 1
 645 -10 l 1
 461 468 l 1
 299 -10 l 1
 250 -10 l 1
 48 540 l 2
 43 555 36 562 27 562 c 2
 -3 560 l 1
 -3 597 l 1
 252 597 l 1
 252 560 l 1
 202 562 l 2
 193 562 189 560 189 551 c 0
 189 550 190 546 192 540 c 2
 321 182 l 1
 439 526 l 1
 437 531 l 2
 430 550 425 563 411 562 c 2
 370 560 l 1
 370 597 l 1
 617 597 l 1
 617 560 l 1
 575 562 l 2
 564 562 562 548 565 540 c 2
 705 159 l 1
 834 542 l 2
 835 545 836 548 836 550 c 0
 836 557 831 563 823 562 c 2
 771 560 l 1
 771 597 l 1
 931 597 l 1
EndSplineSet
Position2: "'cpsp' Capital Spacing lookup 0 per glyph data 2" dx=5 dy=0 dh=10 dv=0
EndChar

StartChar: Wacute
Encoding: 7810 7810 96
Width: 911
Flags: MW
HStem: 562 35<27 31.5 197.5 202 411 411 569.5 575 823 823 901 901>
VStem: 771 160<560 597 560 597>
LayerCount: 2
Fore
SplineSet
527 801 m 2
 544 820 548 826 563 826 c 0
 587 826 631 803 631 789 c 0
 631 782 626 777 618 771 c 2
 451 669 l 2
 445 665 435 660 427 660 c 0
 420 660 416 664 416 670 c 0
 416 678 421 685 432 697 c 2
 527 801 l 2
931 560 m 1
 901 562 l 2
 888 563 879 550 876 541 c 2
 691 -10 l 1
 645 -10 l 1
 461 468 l 1
 299 -10 l 1
 250 -10 l 1
 48 540 l 2
 43 555 36 562 27 562 c 2
 -3 560 l 1
 -3 597 l 1
 252 597 l 1
 252 560 l 1
 202 562 l 2
 193 562 189 560 189 551 c 0
 189 550 190 546 192 540 c 2
 321 182 l 1
 439 526 l 1
 437 531 l 2
 430 550 425 563 411 562 c 2
 370 560 l 1
 370 597 l 1
 617 597 l 1
 617 560 l 1
 575 562 l 2
 564 562 562 548 565 540 c 2
 705 159 l 1
 834 542 l 2
 835 545 836 548 836 550 c 0
 836 557 831 563 823 562 c 2
 771 560 l 1
 771 597 l 1
 931 597 l 1
 931 560 l 1
EndSplineSet
EndChar

StartChar: Wcircumflex
Encoding: 372 372 97
Width: 911
Flags: MW
HStem: 562 35<27 31.5 197.5 202 411 411 569.5 575 823 823 901 901> 744 60<449 482>
VStem: 771 160<560 597 560 597>
LayerCount: 2
Fore
SplineSet
562 756 m 1
 603 710 638 684 638 674 c 0
 638 671 636 666 626 666 c 0
 614 666 601 673 593 678 c 2
 482 744 l 1
 370 678 l 2
 362 673 349 666 337 666 c 0
 328 666 326 671 326 674 c 0
 326 684 361 710 402 756 c 1
 425 780 l 1
 449 804 l 2
 460 816 472 822 482 822 c 0
 492 822 503 816 515 804 c 2
 539 780 l 1
 562 756 l 1
931 560 m 1
 901 562 l 2
 888 563 879 550 876 541 c 2
 691 -10 l 1
 645 -10 l 1
 461 468 l 1
 299 -10 l 1
 250 -10 l 1
 48 540 l 2
 43 555 36 562 27 562 c 2
 -3 560 l 1
 -3 597 l 1
 252 597 l 1
 252 560 l 1
 202 562 l 2
 193 562 189 560 189 551 c 0
 189 550 190 546 192 540 c 2
 321 182 l 1
 439 526 l 1
 437 531 l 2
 430 550 425 563 411 562 c 2
 370 560 l 1
 370 597 l 1
 617 597 l 1
 617 560 l 1
 575 562 l 2
 564 562 562 548 565 540 c 2
 705 159 l 1
 834 542 l 2
 835 545 836 548 836 550 c 0
 836 557 831 563 823 562 c 2
 771 560 l 1
 771 597 l 1
 931 597 l 1
 931 560 l 1
EndSplineSet
EndChar

StartChar: Wdieresis
Encoding: 7812 7812 98
Width: 911
Flags: MW
HStem: 562 35<27 31.5 197.5 202 411 411 569.5 575 823 823 901 901> 681 126<354.5 399 354.5 399.5 564.5 609>
VStem: 300 154<724.5 763> 510 154<724.5 763> 771 160<560 597 560 597>
LayerCount: 2
Fore
SplineSet
300 744 m 0
 300 782 332 807 377 807 c 0
 421 807 454 782 454 744 c 0
 454 705 422 681 377 681 c 0
 332 681 300 705 300 744 c 0
510 744 m 0
 510 782 542 807 587 807 c 0
 631 807 664 782 664 744 c 0
 664 705 632 681 587 681 c 0
 542 681 510 705 510 744 c 0
931 560 m 1
 901 562 l 2
 888 563 879 550 876 541 c 2
 691 -10 l 1
 645 -10 l 1
 461 468 l 1
 299 -10 l 1
 250 -10 l 1
 48 540 l 2
 43 555 36 562 27 562 c 2
 -3 560 l 1
 -3 597 l 1
 252 597 l 1
 252 560 l 1
 202 562 l 2
 193 562 189 560 189 551 c 0
 189 550 190 546 192 540 c 2
 321 182 l 1
 439 526 l 1
 437 531 l 2
 430 550 425 563 411 562 c 2
 370 560 l 1
 370 597 l 1
 617 597 l 1
 617 560 l 1
 575 562 l 2
 564 562 562 548 565 540 c 2
 705 159 l 1
 834 542 l 2
 835 545 836 548 836 550 c 0
 836 557 831 563 823 562 c 2
 771 560 l 1
 771 597 l 1
 931 597 l 1
 931 560 l 1
EndSplineSet
EndChar

StartChar: Wgrave
Encoding: 7808 7808 99
Width: 911
Flags: MW
HStem: 562 35<27 31.5 197.5 202 411 411 569.5 575 823 823 901 901>
VStem: 771 160<560 597 560 597>
LayerCount: 2
Fore
SplineSet
438 801 m 2
 421 820 417 826 402 826 c 0
 378 826 334 803 334 789 c 0
 334 782 339 777 347 771 c 2
 514 669 l 2
 520 665 530 660 538 660 c 0
 545 660 549 664 549 670 c 0
 549 678 544 685 533 697 c 2
 438 801 l 2
931 560 m 1
 901 562 l 2
 888 563 879 550 876 541 c 2
 691 -10 l 1
 645 -10 l 1
 461 468 l 1
 299 -10 l 1
 250 -10 l 1
 48 540 l 2
 43 555 36 562 27 562 c 2
 -3 560 l 1
 -3 597 l 1
 252 597 l 1
 252 560 l 1
 202 562 l 2
 193 562 189 560 189 551 c 0
 189 550 190 546 192 540 c 2
 321 182 l 1
 439 526 l 1
 437 531 l 2
 430 550 425 563 411 562 c 2
 370 560 l 1
 370 597 l 1
 617 597 l 1
 617 560 l 1
 575 562 l 2
 564 562 562 548 565 540 c 2
 705 159 l 1
 834 542 l 2
 835 545 836 548 836 550 c 0
 836 557 831 563 823 562 c 2
 771 560 l 1
 771 597 l 1
 931 597 l 1
 931 560 l 1
EndSplineSet
EndChar

StartChar: X
Encoding: 88 88 100
Width: 585
Flags: MW
HStem: 0 34<366 368 368 374.5> 0 36.5 562 35<57 62.5 250.5 258.5 258 260 442 442 521 527>
VStem: 20 166<0 38 0 38> 399 163<560 597>
LayerCount: 2
Fore
SplineSet
593 37 m 1xb8
 593 0 l 1
 317 0 l 1
 317 37 l 1
 366 34 l 2
 367 34 367 34 368 34 c 0
 381 34 380 45 373 57 c 2xb8
 258 250 l 1
 135 55 l 2
 133 51 132 47 132 44 c 0
 132 38 136 34 141 35 c 2
 186 38 l 1x78
 186 0 l 1
 20 0 l 1
 20 38 l 1
 56 36 l 2
 70 36 81 43 90 58 c 2
 237 293 l 1
 89 543 l 2
 80 558 68 562 57 562 c 2
 32 560 l 1
 32 597 l 1
 302 597 l 1
 302 560 l 1
 260 562 l 2
 259 562 259 562 258 562 c 0
 243 562 239 550 246 541 c 1
 342 372 l 1
 450 542 l 2
 453 546 455 551 455 554 c 0
 455 559 451 563 442 562 c 2
 399 560 l 1
 399 597 l 1
 562 597 l 1
 562 560 l 1
 527 562 l 2
 515 562 504 555 496 542 c 2
 364 330 l 1
 532 51 l 2
 537 42 547 32 562 34 c 2
 593 37 l 1xb8
EndSplineSet
Position2: "'cpsp' Capital Spacing lookup 0 per glyph data 2" dx=5 dy=0 dh=10 dv=0
EndChar

StartChar: Y
Encoding: 89 89 101
Width: 559
Flags: MW
HStem: 0 35<205 211.5 374.5 382> 562 35<28 32.5 208 215 215 216 461 464.5 533.5 539>
VStem: 215 54<562 562> 224 138<57 256 256 256> 409 160<560 597 560 597>
LayerCount: 2
Fore
SplineSet
569 597 m 1xd8
 569 560 l 1
 539 562 l 2
 528 562 519 555 511 541 c 2
 362 275 l 1
 362 56 l 2
 362 44 367 35 382 35 c 2
 430 37 l 1
 430 0 l 1
 156 0 l 1
 156 37 l 1
 205 35 l 2
 218 35 224 42 224 57 c 2
 224 256 l 1xd8
 52 543 l 2
 44 556 37 562 28 562 c 2
 -1 560 l 1
 -1 597 l 1
 269 597 l 1
 269 560 l 1
 216 562 l 2
 215 562 215 562 215 562 c 2
 201 562 202 549 209 538 c 2xe8
 342 317 l 1
 468 542 l 2
 470 545 471 549 471 552 c 0
 471 558 468 562 461 562 c 2
 409 560 l 1
 409 597 l 1
 569 597 l 1xd8
EndSplineSet
Position2: "'cpsp' Capital Spacing lookup 0 per glyph data 2" dx=5 dy=0 dh=10 dv=0
EndChar

StartChar: Yacute
Encoding: 221 221 102
Width: 559
Flags: MW
HStem: 0 35<205 211.5 374.5 382> 562 35<28 32.5 211 215 215 216 461 464.5 533.5 539>
VStem: 224 138<57 256 256 256> 409 160<560 597 560 597>
LayerCount: 2
Fore
SplineSet
350 801 m 2
 367 820 371 826 386 826 c 0
 410 826 454 803 454 789 c 0
 454 782 449 777 441 771 c 2
 274 669 l 2
 268 665 258 660 250 660 c 0
 243 660 239 664 239 670 c 0
 239 678 244 685 255 697 c 2
 350 801 l 2
569 560 m 1
 539 562 l 2
 528 562 519 555 511 541 c 2
 362 275 l 1
 362 56 l 2
 362 44 367 35 382 35 c 2
 430 37 l 1
 430 0 l 1
 156 0 l 1
 156 37 l 1
 205 35 l 2
 218 35 224 42 224 57 c 2
 224 256 l 1
 52 543 l 2
 44 556 37 562 28 562 c 2
 -1 560 l 1
 -1 597 l 1
 269 597 l 1
 269 560 l 1
 216 562 l 1
 215 562 l 2
 207 562 204 558 204 552 c 0
 204 548 206 543 209 538 c 2
 342 317 l 1
 468 542 l 2
 470 545 471 549 471 552 c 0
 471 558 468 562 461 562 c 2
 409 560 l 1
 409 597 l 1
 569 597 l 1
 569 560 l 1
EndSplineSet
Position2: "'cpsp' Capital Spacing lookup 0 per glyph data 2" dx=5 dy=0 dh=10 dv=0
EndChar

StartChar: Ycircumflex
Encoding: 374 374 103
Width: 559
Flags: MW
HStem: 0 35<205 211.5 374.5 382> 562 35<28 32.5 211 215 215 216 461 464.5 533.5 539> 744 60<272 305>
VStem: 224 138<57 256 256 256> 409 160<560 597 560 597>
LayerCount: 2
Fore
SplineSet
385 756 m 1
 426 710 461 684 461 674 c 0
 461 671 459 666 449 666 c 0
 437 666 424 673 416 678 c 2
 305 744 l 1
 193 678 l 2
 185 673 172 666 160 666 c 0
 151 666 149 671 149 674 c 0
 149 684 184 710 225 756 c 1
 248 780 l 1
 272 804 l 2
 283 816 295 822 305 822 c 0
 315 822 326 816 338 804 c 2
 362 780 l 1
 385 756 l 1
569 560 m 1
 539 562 l 2
 528 562 519 555 511 541 c 2
 362 275 l 1
 362 56 l 2
 362 44 367 35 382 35 c 2
 430 37 l 1
 430 0 l 1
 156 0 l 1
 156 37 l 1
 205 35 l 2
 218 35 224 42 224 57 c 2
 224 256 l 1
 52 543 l 2
 44 556 37 562 28 562 c 2
 -1 560 l 1
 -1 597 l 1
 269 597 l 1
 269 560 l 1
 216 562 l 1
 215 562 l 2
 207 562 204 558 204 552 c 0
 204 548 206 543 209 538 c 2
 342 317 l 1
 468 542 l 2
 470 545 471 549 471 552 c 0
 471 558 468 562 461 562 c 2
 409 560 l 1
 409 597 l 1
 569 597 l 1
 569 560 l 1
EndSplineSet
EndChar

StartChar: Ydieresis
Encoding: 376 376 104
Width: 559
Flags: MW
HStem: 0 35<205 211.5 374.5 382> 562 35<28 32.5 211 215 215 216 461 464.5 533.5 539> 681 126<177.5 222 177.5 222.5 387.5 432>
VStem: 123 154<724.5 763> 224 138<57 256 256 256> 333 154<724.5 763> 409 160<560 597 560 597>
LayerCount: 2
Fore
SplineSet
123 744 m 0xf4
 123 782 155 807 200 807 c 0
 244 807 277 782 277 744 c 0
 277 705 245 681 200 681 c 0
 155 681 123 705 123 744 c 0xf4
333 744 m 0
 333 782 365 807 410 807 c 0
 454 807 487 782 487 744 c 0
 487 705 455 681 410 681 c 0
 365 681 333 705 333 744 c 0
569 560 m 1xca
 539 562 l 2
 528 562 519 555 511 541 c 2
 362 275 l 1
 362 56 l 2
 362 44 367 35 382 35 c 2
 430 37 l 1
 430 0 l 1
 156 0 l 1
 156 37 l 1
 205 35 l 2
 218 35 224 42 224 57 c 2
 224 256 l 1
 52 543 l 2
 44 556 37 562 28 562 c 2
 -1 560 l 1
 -1 597 l 1
 269 597 l 1
 269 560 l 1
 216 562 l 1
 215 562 l 2
 207 562 204 558 204 552 c 0
 204 548 206 543 209 538 c 2
 342 317 l 1
 468 542 l 2
 470 545 471 549 471 552 c 0
 471 558 468 562 461 562 c 2
 409 560 l 1
 409 597 l 1
 569 597 l 1
 569 560 l 1xca
EndSplineSet
Position2: "'cpsp' Capital Spacing lookup 0 per glyph data 2" dx=5 dy=0 dh=10 dv=0
EndChar

StartChar: Ygrave
Encoding: 7922 7922 105
Width: 559
Flags: MW
HStem: 0 35<205 211.5 374.5 382> 562 35<28 32.5 211 215 215 216 461 464.5 533.5 539>
VStem: 224 138<57 256 256 256> 409 160<560 597 560 597>
LayerCount: 2
Fore
SplineSet
261 801 m 2
 244 820 240 826 225 826 c 0
 201 826 157 803 157 789 c 0
 157 782 162 777 170 771 c 2
 337 669 l 2
 343 665 353 660 361 660 c 0
 368 660 372 664 372 670 c 0
 372 678 367 685 356 697 c 2
 261 801 l 2
569 560 m 1
 539 562 l 2
 528 562 519 555 511 541 c 2
 362 275 l 1
 362 56 l 2
 362 44 367 35 382 35 c 2
 430 37 l 1
 430 0 l 1
 156 0 l 1
 156 37 l 1
 205 35 l 2
 218 35 224 42 224 57 c 2
 224 256 l 1
 52 543 l 2
 44 556 37 562 28 562 c 2
 -1 560 l 1
 -1 597 l 1
 269 597 l 1
 269 560 l 1
 216 562 l 1
 215 562 l 2
 207 562 204 558 204 552 c 0
 204 548 206 543 209 538 c 2
 342 317 l 1
 468 542 l 2
 470 545 471 549 471 552 c 0
 471 558 468 562 461 562 c 2
 409 560 l 1
 409 597 l 1
 569 597 l 1
 569 560 l 1
EndSplineSet
EndChar

StartChar: Z
Encoding: 90 90 106
Width: 547
Flags: MW
HStem: 0 35<201 342 342 387.5> 443 154<55 517 55 517> 562 35<182.5 230 230 350>
VStem: 55 34<443 484 443 600> 492 31
LayerCount: 2
Fore
SplineSet
527 167 m 1xb8
 519 -4 l 1
 510 -1 473 0 406 0 c 2
 31 0 l 1
 31 27 l 1
 350 562 l 1
 230 562 l 2xb8
 135 562 89 525 89 443 c 1
 55 443 l 1xd8
 55 600 l 1
 78 600 120 597 164 597 c 2
 517 597 l 1
 517 573 l 1
 201 35 l 1
 342 35 l 2
 433 35 492 84 492 167 c 1
 527 167 l 1xb8
EndSplineSet
Position2: "'cpsp' Capital Spacing lookup 0 per glyph data 2" dx=5 dy=0 dh=10 dv=0
EndChar

StartChar: Zacute
Encoding: 377 377 107
Width: 547
Flags: MW
HStem: 0 35<201 342 342 387.5> 443 154<55 517 55 517> 562 35<182.5 230 230 350>
VStem: 55 34<443 484 443 600> 492 31
LayerCount: 2
Fore
SplineSet
336 801 m 2xb8
 353 820 357 826 372 826 c 0
 396 826 440 803 440 789 c 0
 440 782 435 777 427 771 c 2
 260 669 l 2
 254 665 244 660 236 660 c 0
 229 660 225 664 225 670 c 0
 225 678 230 685 241 697 c 2
 336 801 l 2xb8
519 -4 m 1
 510 -1 473 0 406 0 c 2
 31 0 l 1
 31 27 l 1
 350 562 l 1
 230 562 l 2xb8
 135 562 89 525 89 443 c 1
 55 443 l 1xd8
 55 600 l 1
 78 600 120 597 164 597 c 2
 517 597 l 1
 517 573 l 1
 201 35 l 1
 342 35 l 2
 433 35 492 84 492 167 c 1
 527 167 l 1
 519 -4 l 1
EndSplineSet
EndChar

StartChar: Zcaron
Encoding: 381 381 108
Width: 547
Flags: MW
HStem: 0 35<201 342 342 387.5> 443 154<55 517 55 517> 562 35<182.5 230 230 350> 686 60<258 291 291 324>
VStem: 55 34<443 484 443 600> 492 31
LayerCount: 2
Fore
SplineSet
211 734 m 1xbc
 170 780 135 806 135 816 c 0
 135 819 137 824 147 824 c 0
 159 824 172 817 180 812 c 2
 291 746 l 1
 403 812 l 2
 411 817 424 824 436 824 c 0
 445 824 447 819 447 816 c 0
 447 806 412 780 371 734 c 1
 348 710 l 1
 324 686 l 2
 313 674 301 668 291 668 c 0
 281 668 270 674 258 686 c 2
 234 710 l 1
 211 734 l 1xbc
519 -4 m 1
 510 -1 473 0 406 0 c 2
 31 0 l 1
 31 27 l 1
 350 562 l 1
 230 562 l 2xbc
 135 562 89 525 89 443 c 1
 55 443 l 1xdc
 55 600 l 1
 78 600 120 597 164 597 c 2
 517 597 l 1
 517 573 l 1
 201 35 l 1
 342 35 l 2
 433 35 492 84 492 167 c 1
 527 167 l 1
 519 -4 l 1
EndSplineSet
Position2: "'cpsp' Capital Spacing lookup 0 per glyph data 2" dx=5 dy=0 dh=10 dv=0
EndChar

StartChar: Zdotaccent
Encoding: 379 379 109
Width: 547
Flags: MW
HStem: 0 35<201 342 342 387.5> 443 154<55 517 55 517> 562 35<182.5 230 230 350> 681 126<267.5 312 267.5 312.5>
VStem: 55 34<443 484 443 600> 213 154<724.5 763> 492 31
LayerCount: 2
Fore
SplineSet
213 744 m 0xbe
 213 782 245 807 290 807 c 0
 334 807 367 782 367 744 c 0
 367 705 335 681 290 681 c 0
 245 681 213 705 213 744 c 0xbe
519 -4 m 1
 510 -1 473 0 406 0 c 2
 31 0 l 1
 31 27 l 1
 350 562 l 1
 230 562 l 2xbe
 135 562 89 525 89 443 c 1
 55 443 l 1xde
 55 600 l 1
 78 600 120 597 164 597 c 2
 517 597 l 1
 517 573 l 1
 201 35 l 1
 342 35 l 2
 433 35 492 84 492 167 c 1
 527 167 l 1
 519 -4 l 1
EndSplineSet
EndChar

StartChar: a
Encoding: 97 97 110
Width: 467
Flags: MW
HStem: -5 59<99.5 218.5> 0 32<418.5 423 418.5 456> 216 35<232.5 279> 401 34<186.5 242>
VStem: 13 136<97 151 97 156.5> 39 118<312.5 325 302 360.5> 279 131<64 64 150 216 216 216 251 302>
LayerCount: 2
Fore
SplineSet
456 34 m 1x76
 456 0 l 1
 274 0 l 1
 275 6 278 31 278 37 c 2x7a
 279 64 l 1
 247 14 200 -5 141 -5 c 0
 58 -5 13 32 13 108 c 0xba
 13 205 94 251 279 251 c 1
 279 321 l 2
 279 362 272 401 212 401 c 0
 161 401 148 378 148 360 c 0
 148 341 157 333 157 317 c 0
 157 287 132 271 102 271 c 0
 64 271 39 296 39 329 c 0
 39 392 109 435 224 435 c 0
 342 435 410 396 410 302 c 2
 410 51 l 2
 410 38 414 32 423 32 c 2
 456 34 l 1x76
279 216 m 1
 186 216 149 182 149 120 c 0
 149 74 167 54 198 54 c 0
 239 54 272 93 279 150 c 1xba
 279 216 l 1
EndSplineSet
Substitution2: "Single Substitution lookup 17 subtable" ordfeminine
Substitution2: "'aalt' Access All Alternates lookup 0 subtable" ordfeminine
Position2: "Single Positioning lookup 4 subtable" dx=0 dy=0 dh=-40 dv=0
EndChar

StartChar: aacute
Encoding: 225 225 111
Width: 467
Flags: MW
HStem: -5 59<99.5 218.5> 0 32<418.5 423 418.5 456> 216 35<232.5 279> 401 34<186.5 242>
VStem: 13 136<97 151 97 156.5> 39 118<312.5 325 302 360.5> 279 131<44.5 51 51 64 64 64 150 216 216 216 251 302>
LayerCount: 2
Fore
SplineSet
270 633 m 2x76
 287 652 291 658 306 658 c 0
 330 658 374 635 374 621 c 0
 374 614 369 609 361 603 c 2
 194 501 l 2
 188 497 178 492 170 492 c 0
 163 492 159 496 159 502 c 0
 159 510 164 517 175 529 c 2
 270 633 l 2x76
456 0 m 1
 274 0 l 1
 279 37 l 1x7a
 279 64 l 1
 247 14 200 -5 141 -5 c 0
 58 -5 13 32 13 108 c 0xba
 13 205 94 251 279 251 c 1
 279 321 l 2
 279 362 272 401 212 401 c 0
 161 401 148 378 148 360 c 0
 148 341 157 333 157 317 c 0
 157 287 132 271 102 271 c 0
 64 271 39 296 39 329 c 0
 39 392 109 435 224 435 c 0
 342 435 410 396 410 302 c 2
 410 51 l 2
 410 38 414 32 423 32 c 2
 456 34 l 1
 456 0 l 1
279 216 m 1
 186 216 149 182 149 120 c 0
 149 74 167 54 198 54 c 0
 239 54 272 93 279 150 c 1xba
 279 216 l 1
EndSplineSet
EndChar

StartChar: abreve
Encoding: 259 259 112
Width: 467
Flags: MW
HStem: -5 59<99.5 218.5> 0 32<418.5 423 418.5 456> 216 35<232.5 279> 401 34<186.5 242> 516 65<196 253 196 265.5>
VStem: 13 136<97 151 97 156.5> 39 118<312.5 325 302 360.5> 279 131<44.5 51 51 64 64 64 150 216 216 216 251 302>
LayerCount: 2
Fore
SplineSet
361 647 m 1x7b
 359 570 306 516 225 516 c 0
 144 516 92 570 90 647 c 1
 136 647 l 1
 144 615 167 581 225 581 c 0
 281 581 307 615 316 647 c 1
 361 647 l 1x7b
456 0 m 1
 274 0 l 1
 279 37 l 1x7d
 279 64 l 1
 247 14 200 -5 141 -5 c 0
 58 -5 13 32 13 108 c 0xbd
 13 205 94 251 279 251 c 1
 279 321 l 2
 279 362 272 401 212 401 c 0
 161 401 148 378 148 360 c 0
 148 341 157 333 157 317 c 0
 157 287 132 271 102 271 c 0
 64 271 39 296 39 329 c 0
 39 392 109 435 224 435 c 0
 342 435 410 396 410 302 c 2
 410 51 l 2
 410 38 414 32 423 32 c 2
 456 34 l 1
 456 0 l 1
279 216 m 1
 186 216 149 182 149 120 c 0
 149 74 167 54 198 54 c 0
 239 54 272 93 279 150 c 1xbd
 279 216 l 1
EndSplineSet
EndChar

StartChar: acircumflex
Encoding: 226 226 113
Width: 467
Flags: MW
HStem: -5 59<99.5 218.5> 0 32<418.5 423 418.5 456> 216 35<232.5 279> 401 34<186.5 242> 576 60<193 226>
VStem: 13 136<97 151 97 156.5> 39 118<312.5 325 302 360.5> 279 131<44.5 51 51 64 64 64 150 216 216 216 251 302>
LayerCount: 2
Fore
SplineSet
306 588 m 1x7b
 347 542 382 516 382 506 c 0
 382 503 380 498 370 498 c 0
 358 498 345 505 337 510 c 2
 226 576 l 1
 114 510 l 2
 106 505 93 498 81 498 c 0
 72 498 70 503 70 506 c 0
 70 516 105 542 146 588 c 1
 169 612 l 1
 193 636 l 2
 204 648 216 654 226 654 c 0
 236 654 247 648 259 636 c 2
 283 612 l 1
 306 588 l 1x7b
456 0 m 1
 274 0 l 1
 279 37 l 1x7d
 279 64 l 1
 247 14 200 -5 141 -5 c 0
 58 -5 13 32 13 108 c 0xbd
 13 205 94 251 279 251 c 1
 279 321 l 2
 279 362 272 401 212 401 c 0
 161 401 148 378 148 360 c 0
 148 341 157 333 157 317 c 0
 157 287 132 271 102 271 c 0
 64 271 39 296 39 329 c 0
 39 392 109 435 224 435 c 0
 342 435 410 396 410 302 c 2
 410 51 l 2
 410 38 414 32 423 32 c 2
 456 34 l 1
 456 0 l 1
279 216 m 1
 186 216 149 182 149 120 c 0
 149 74 167 54 198 54 c 0
 239 54 272 93 279 150 c 1xbd
 279 216 l 1
EndSplineSet
EndChar

StartChar: adieresis
Encoding: 228 228 114
Width: 467
Flags: MW
HStem: -5 59<99.5 218.5> 0 32<418.5 423 418.5 456> 216 35<232.5 279> 401 34<186.5 242> 537 126<97.5 142 97.5 142.5 308.5 353>
VStem: 13 136<97 151 97 156.5> 39 118<312.5 325 302 360.5> 43 154<580.5 619> 254 154<580.5 619> 279 131<44.5 51 51 64 64 64 150 216 216 216 251 302>
LayerCount: 2
Fore
SplineSet
43 600 m 0x7940
 43 638 75 663 120 663 c 0
 164 663 197 638 197 600 c 0
 197 561 165 537 120 537 c 0
 75 537 43 561 43 600 c 0x7940
254 600 m 0x7980
 254 638 286 663 331 663 c 0
 375 663 408 638 408 600 c 0
 408 561 376 537 331 537 c 0
 286 537 254 561 254 600 c 0x7980
456 0 m 1x7a40
 274 0 l 1
 279 37 l 1x7c40
 279 64 l 1
 247 14 200 -5 141 -5 c 0
 58 -5 13 32 13 108 c 0xbc40
 13 205 94 251 279 251 c 1
 279 321 l 2
 279 362 272 401 212 401 c 0
 161 401 148 378 148 360 c 0
 148 341 157 333 157 317 c 0
 157 287 132 271 102 271 c 0
 64 271 39 296 39 329 c 0
 39 392 109 435 224 435 c 0
 342 435 410 396 410 302 c 2
 410 51 l 2
 410 38 414 32 423 32 c 2
 456 34 l 1
 456 0 l 1x7a40
279 216 m 1
 186 216 149 182 149 120 c 0
 149 74 167 54 198 54 c 0
 239 54 272 93 279 150 c 1xbc40
 279 216 l 1
EndSplineSet
EndChar

StartChar: agrave
Encoding: 224 224 115
Width: 467
Flags: MW
HStem: -5 59<99.5 218.5> 0 32<418.5 423 418.5 456> 216 35<232.5 279> 401 34<186.5 242>
VStem: 13 136<97 151 97 156.5> 39 118<312.5 325 302 360.5> 279 131<44.5 51 51 64 64 64 150 216 216 216 251 302>
LayerCount: 2
Fore
SplineSet
182 633 m 2x76
 165 652 161 658 146 658 c 0
 122 658 78 635 78 621 c 0
 78 614 83 609 91 603 c 2
 258 501 l 2
 264 497 274 492 282 492 c 0
 289 492 293 496 293 502 c 0
 293 510 288 517 277 529 c 2
 182 633 l 2x76
456 0 m 1
 274 0 l 1
 279 37 l 1x7a
 279 64 l 1
 247 14 200 -5 141 -5 c 0
 58 -5 13 32 13 108 c 0xba
 13 205 94 251 279 251 c 1
 279 321 l 2
 279 362 272 401 212 401 c 0
 161 401 148 378 148 360 c 0
 148 341 157 333 157 317 c 0
 157 287 132 271 102 271 c 0
 64 271 39 296 39 329 c 0
 39 392 109 435 224 435 c 0
 342 435 410 396 410 302 c 2
 410 51 l 2
 410 38 414 32 423 32 c 2
 456 34 l 1
 456 0 l 1
279 216 m 1
 186 216 149 182 149 120 c 0
 149 74 167 54 198 54 c 0
 239 54 272 93 279 150 c 1xba
 279 216 l 1
EndSplineSet
EndChar

StartChar: amacron
Encoding: 257 257 116
Width: 467
Flags: MW
HStem: -5 59<99.5 218.5> 0 32<418.5 423 418.5 456> 216 35<232.5 279> 401 34<186.5 242> 565 47<106 345 106 345>
VStem: 13 136<97 151 97 156.5> 39 118<312.5 325 302 360.5> 106 239<565 612 565 612> 279 131<44.5 51 51 64 64 64 150 216 216 216 251 302>
LayerCount: 2
Fore
SplineSet
106 612 m 1x79
 345 612 l 1
 345 565 l 1
 106 565 l 1
 106 612 l 1x79
456 0 m 1x7a80
 274 0 l 1
 279 37 l 1x7c80
 279 64 l 1
 247 14 200 -5 141 -5 c 0
 58 -5 13 32 13 108 c 0xbc80
 13 205 94 251 279 251 c 1
 279 321 l 2
 279 362 272 401 212 401 c 0
 161 401 148 378 148 360 c 0
 148 341 157 333 157 317 c 0
 157 287 132 271 102 271 c 0
 64 271 39 296 39 329 c 0
 39 392 109 435 224 435 c 0
 342 435 410 396 410 302 c 2
 410 51 l 2
 410 38 414 32 423 32 c 2
 456 34 l 1
 456 0 l 1x7a80
279 216 m 1
 186 216 149 182 149 120 c 0
 149 74 167 54 198 54 c 0
 239 54 272 93 279 150 c 1xbc80
 279 216 l 1
EndSplineSet
EndChar

StartChar: aogonek
Encoding: 261 261 117
Width: 467
Flags: MW
HStem: -163 58<395.5 398.5> -5 59<99.5 218.5> 0 32<390 423 418.5 423 418.5 456> 216 35<232.5 279> 401 34<186.5 242>
VStem: 13 136<97 151 97 156.5> 39 118<312.5 325 302 360.5> 279 131<44.5 51 51 64 64 64 150 216 216 216 251 302> 296 67<-115 -47>
LayerCount: 2
Fore
SplineSet
495 -103 m 1xb9
 462 -141 420 -163 377 -163 c 0
 336 -163 296 -139 296 -91 c 0
 296 -56 315 -23 352 0 c 1xb880
 274 0 l 1
 279 37 l 1xb9
 279 64 l 1
 247 14 200 -5 141 -5 c 0
 58 -5 13 32 13 108 c 0xdd
 13 205 94 251 279 251 c 1
 279 321 l 2
 279 362 272 401 212 401 c 0
 161 401 148 378 148 360 c 0
 148 341 157 333 157 317 c 0
 157 287 132 271 102 271 c 0
 64 271 39 296 39 329 c 0
 39 392 109 435 224 435 c 0
 342 435 410 396 410 302 c 2
 410 51 l 2
 410 38 414 32 423 32 c 2
 456 34 l 1
 456 0 l 1xbb
 390 0 l 1
 373 -14 363 -35 363 -59 c 0
 363 -84 378 -105 413 -105 c 0xb880
 437 -105 461 -97 483 -84 c 1
 495 -103 l 1xb9
279 216 m 1xdd
 186 216 149 182 149 120 c 0
 149 74 167 54 198 54 c 0
 239 54 272 93 279 150 c 1
 279 216 l 1xdd
EndSplineSet
EndChar

StartChar: aring
Encoding: 229 229 118
Width: 467
Flags: MW
HStem: -5 59<99.5 218.5> 0 32<418.5 423 418.5 456> 216 35<232.5 279> 401 34<186.5 242> 497 41<213.5 236.5 213.5 250.5> 621 42<213.5 236.5>
VStem: 13 136<97 151 97 156.5> 39 118<312.5 325 302 360.5> 138 50<567 592.5 567 603.5> 263 50<567 592.5> 279 131<44.5 51 51 64 64 64 150 216 216 216 251 302>
LayerCount: 2
Fore
SplineSet
138 580 m 0x7ca0
 138 627 176 663 225 663 c 0
 276 663 313 628 313 580 c 0x7cc0
 313 532 276 497 225 497 c 0
 175 497 138 532 138 580 c 0x7ca0
188 580 m 0
 188 554 202 538 225 538 c 0
 248 538 263 554 263 580 c 0x7cc0
 263 605 248 621 225 621 c 0
 202 621 188 605 188 580 c 0
456 0 m 1
 274 0 l 1
 279 37 l 1x7e20
 279 64 l 1
 247 14 200 -5 141 -5 c 0
 58 -5 13 32 13 108 c 0xbe20
 13 205 94 251 279 251 c 1
 279 321 l 2
 279 362 272 401 212 401 c 0
 161 401 148 378 148 360 c 0
 148 341 157 333 157 317 c 0
 157 287 132 271 102 271 c 0
 64 271 39 296 39 329 c 0x7d20
 39 392 109 435 224 435 c 0
 342 435 410 396 410 302 c 2
 410 51 l 2
 410 38 414 32 423 32 c 2
 456 34 l 1
 456 0 l 1
279 216 m 1
 186 216 149 182 149 120 c 0
 149 74 167 54 198 54 c 0
 239 54 272 93 279 150 c 1xbe20
 279 216 l 1
EndSplineSet
EndChar

StartChar: atilde
Encoding: 227 227 119
Width: 467
Flags: MW
HStem: -5 59<99.5 218.5> 0 32<418.5 423 418.5 456> 216 35<232.5 279> 401 34<186.5 242> 530 61<290 318.5 290 327.5> 570 60<134.5 163>
VStem: 13 136<97 151 97 156.5> 39 118<312.5 325 302 360.5> 83 28<531 543 531 559.5> 279 131<44.5 51 51 64 64 64 150 216 216 216 251 302> 342 27<617.5 629>
LayerCount: 2
Fore
SplineSet
83 531 m 1x74c0
 83 588 103 630 147 630 c 0x74c0
 195 630 271 591 309 591 c 0
 328 591 342 606 342 629 c 1
 369 629 l 1
 369 572 350 530 305 530 c 0x78a0
 256 530 182 570 144 570 c 0
 125 570 111 555 111 531 c 1
 83 531 l 1x74c0
456 0 m 1
 274 0 l 1
 279 37 l 1x7640
 279 64 l 1
 247 14 200 -5 141 -5 c 0
 58 -5 13 32 13 108 c 0xb640
 13 205 94 251 279 251 c 1
 279 321 l 2
 279 362 272 401 212 401 c 0
 161 401 148 378 148 360 c 0
 148 341 157 333 157 317 c 0
 157 287 132 271 102 271 c 0
 64 271 39 296 39 329 c 0x7540
 39 392 109 435 224 435 c 0
 342 435 410 396 410 302 c 2
 410 51 l 2
 410 38 414 32 423 32 c 2
 456 34 l 1
 456 0 l 1
279 216 m 1
 186 216 149 182 149 120 c 0
 149 74 167 54 198 54 c 0
 239 54 272 93 279 150 c 1xb640
 279 216 l 1
EndSplineSet
EndChar

StartChar: ae
Encoding: 230 230 120
Width: 719
Flags: MW
HStem: -10 41<494.5 550> -5 58<103.5 219> 210 32<410 548 548 553.5> 401 34<186.5 242 470.5 522>
VStem: 13 136<92.5 144 92.5 154> 39 118<312.5 325 302 360.5> 279 131<156 208 208 208 242 288 153 321 153 341.5> 565 134<262.5 290.5 210 314>
LayerCount: 2
Fore
SplineSet
279 321 m 2xbb
 279 362 272 401 212 401 c 0
 161 401 148 378 148 360 c 0
 148 341 157 333 157 317 c 0
 157 287 132 271 102 271 c 0
 64 271 39 296 39 329 c 0
 39 392 109 435 224 435 c 0
 282 435 329 425 360 403 c 1
 397 426 442 435 499 435 c 0
 628 435 699 371 699 210 c 1
 410 210 l 1
 410 96 452 31 537 31 c 0
 601 31 649 71 669 112 c 1
 696 93 l 1
 665 28 597 -10 503 -10 c 0xb7
 399 -10 335 19 301 77 c 1
 266 19 213 -5 145 -5 c 0x7b
 62 -5 13 31 13 106 c 0
 13 202 96 242 279 242 c 1
 279 321 l 2xbb
548 242 m 2
 559 242 565 251 565 274 c 0
 565 354 548 401 496 401 c 0
 434 401 410 334 410 242 c 1
 548 242 l 2
279 208 m 1
 186 208 149 174 149 114 c 0
 149 71 169 53 199 53 c 0x7b
 239 53 274 95 279 156 c 1
 279 208 l 1
EndSplineSet
EndChar

StartChar: b
Encoding: 98 98 121
Width: 514
Flags: MW
HStem: -10 46<276 312 251 373.5> 390 45<290.5 315.5> 700 30<50 55>
VStem: 63 131<356 680 680 684.5> 358 140<145.5 268>
LayerCount: 2
Fore
SplineSet
17 730 m 1
 194 730 l 1
 194 356 l 1
 212 403 259 435 322 435 c 0
 438 435 498 359 498 211 c 0
 498 64 432 -10 315 -10 c 0
 237 -10 210 21 186 52 c 0
 182 57 177 61 168 61 c 0
 144 61 132 34 132 -5 c 1
 63 -5 l 1
 63 680 l 2
 63 689 60 700 50 700 c 2
 17 698 l 1
 17 730 l 1
196 186 m 2
 196 100 218 36 284 36 c 0
 340 36 358 80 358 211 c 0
 358 325 345 390 286 390 c 0
 227 390 196 325 196 229 c 2
 196 186 l 2
EndSplineSet
Position2: "Single Positioning lookup 4 subtable" dx=0 dy=0 dh=-40 dv=0
EndChar

StartChar: c
Encoding: 99 99 122
Width: 439
Flags: MW
HStem: -10 37<237.5 287.5> 401 34<222.5 265>
VStem: 20 138<146 286> 310 109<347 359.5 314 371.5>
LayerCount: 2
Fore
SplineSet
426 108 m 1
 395 22 330 -10 245 -10 c 0
 125 -10 20 51 20 209 c 0
 20 363 117 435 244 435 c 0
 347 435 419 389 419 330 c 0
 419 298 399 268 356 268 c 0
 326 268 301 283 301 313 c 0
 301 330 310 338 310 356 c 0
 310 387 281 401 249 401 c 0
 196 401 158 360 158 223 c 0
 158 69 206 27 269 27 c 0
 319 27 369 50 395 123 c 1
 426 108 l 1
EndSplineSet
Position2: "Single Positioning lookup 4 subtable" dx=0 dy=0 dh=-40 dv=0
EndChar

StartChar: cacute
Encoding: 263 263 123
Width: 439
Flags: MW
HStem: -10 37<237.5 287.5> 401 34<222.5 265>
VStem: 20 138<146 286> 310 109<347 359.5 314 371.5>
LayerCount: 2
Fore
SplineSet
269 633 m 2
 286 652 290 658 305 658 c 0
 329 658 373 635 373 621 c 0
 373 614 368 609 360 603 c 2
 193 501 l 2
 187 497 177 492 169 492 c 0
 162 492 158 496 158 502 c 0
 158 510 163 517 174 529 c 2
 269 633 l 2
426 108 m 1
 395 22 330 -10 245 -10 c 0
 125 -10 20 51 20 209 c 0
 20 363 117 435 244 435 c 0
 347 435 419 389 419 330 c 0
 419 298 399 268 356 268 c 0
 326 268 301 283 301 313 c 0
 301 330 310 338 310 356 c 0
 310 387 281 401 249 401 c 0
 196 401 158 360 158 223 c 0
 158 69 206 27 269 27 c 0
 319 27 369 50 395 123 c 1
 426 108 l 1
EndSplineSet
EndChar

StartChar: ccaron
Encoding: 269 269 124
Width: 439
Flags: MW
HStem: -10 37<237.5 287.5> 401 34<222.5 265> 524 60<192 225 225 258>
VStem: 20 138<146 286> 310 109<347 359.5 314 371.5>
LayerCount: 2
Fore
SplineSet
145 572 m 1
 104 618 69 644 69 654 c 0
 69 657 71 662 81 662 c 0
 93 662 106 655 114 650 c 2
 225 584 l 1
 337 650 l 2
 345 655 358 662 370 662 c 0
 379 662 381 657 381 654 c 0
 381 644 346 618 305 572 c 1
 282 548 l 1
 258 524 l 2
 247 512 235 506 225 506 c 0
 215 506 204 512 192 524 c 2
 168 548 l 1
 145 572 l 1
426 108 m 1
 395 22 330 -10 245 -10 c 0
 125 -10 20 51 20 209 c 0
 20 363 117 435 244 435 c 0
 347 435 419 389 419 330 c 0
 419 298 399 268 356 268 c 0
 326 268 301 283 301 313 c 0
 301 330 310 338 310 356 c 0
 310 387 281 401 249 401 c 0
 196 401 158 360 158 223 c 0
 158 69 206 27 269 27 c 0
 319 27 369 50 395 123 c 1
 426 108 l 1
EndSplineSet
EndChar

StartChar: ccedilla
Encoding: 231 231 125
Width: 439
Flags: MW
HStem: -214 35<173.5 228.5> -10 37<244 245 244 244> 401 34<222.5 265>
VStem: 20 138<146 286> 163 59<-67.5 -62.5> 231 87<-145 -124.5> 310 109<347 359.5 314 371.5>
LayerCount: 2
Fore
SplineSet
228 -36 m 2xec
 224 -43 222 -50 222 -55 c 0xec
 222 -81 318 -60 318 -122 c 0
 318 -186 255 -214 202 -214 c 0
 185 -214 156 -213 133 -198 c 1
 146 -166 l 1
 154 -175 166 -179 181 -179 c 0
 206 -179 231 -157 231 -133 c 0
 231 -116 214 -103 197 -94 c 1xf4
 174 -80 l 2
 167 -75 163 -70 163 -65 c 0
 163 -60 165 -56 169 -52 c 2xec
 204 -7 l 1
 102 5 20 69 20 209 c 0
 20 363 117 435 244 435 c 0
 347 435 419 389 419 330 c 0
 419 298 399 268 356 268 c 0
 326 268 301 283 301 313 c 0
 301 330 310 338 310 356 c 0
 310 387 281 401 249 401 c 0
 196 401 158 360 158 223 c 0xf2
 158 69 206 27 269 27 c 0
 319 27 369 50 395 123 c 1
 426 108 l 1
 395 22 330 -10 245 -10 c 2
 244 -10 l 1
 228 -36 l 2xec
EndSplineSet
EndChar

StartChar: d
Encoding: 100 100 126
Width: 522
Flags: MW
HStem: -10 46<209 237.5> 0 32<467.5 472 467.5 505> 390 45<208.5 236.5 145 266> 700 30<315 319.5>
VStem: 24 140<146.5 265.5 146.5 285> 328 131<357 680 680 685.5>
LayerCount: 2
Fore
SplineSet
323 38 m 2x7c
 323 50 325 60 325 63 c 1
 309 20 270 -10 205 -10 c 0xbc
 72 -10 24 65 24 211 c 0
 24 359 86 435 204 435 c 0
 269 435 314 398 328 357 c 1
 328 680 l 2
 328 691 324 700 315 700 c 2
 269 698 l 1
 269 730 l 1
 459 730 l 1
 459 51 l 2
 459 38 463 32 472 32 c 2
 505 34 l 1
 505 0 l 1
 321 0 l 1
 322 4 323 9 323 16 c 2
 323 38 l 2x7c
326 229 m 2
 326 329 295 390 237 390 c 0
 180 390 164 320 164 211 c 0
 164 82 180 36 238 36 c 0xbc
 298 36 326 86 326 186 c 2
 326 229 l 2
EndSplineSet
Position2: "Single Positioning lookup 4 subtable" dx=0 dy=0 dh=-40 dv=0
EndChar

StartChar: eth
Encoding: 240 240 127
Width: 507
Flags: MW
HStem: -11 33<222.5 289 222.5 332.5> 403 32<221.5 249 171.5 287.5> 578 29<112 132>
VStem: 20 140<141 284.5 141 289> 347 140<153.5 281>
LayerCount: 2
Fore
SplineSet
317 554 m 1
 413 496 487 391 487 224 c 0
 487 83 411 -11 254 -11 c 0
 103 -11 20 66 20 212 c 0
 20 366 111 435 232 435 c 0
 266 435 297 427 317 414 c 1
 301 453 274 486 244 512 c 1
 142 453 l 1
 125 483 l 1
 215 535 l 1
 179 559 141 574 112 578 c 1
 132 607 l 1
 182 605 233 594 281 572 c 1
 364 620 l 1
 380 590 l 1
 317 554 l 1
254 22 m 0
 324 22 347 80 347 212 c 0
 347 350 321 403 254 403 c 0
 189 403 160 357 160 212 c 0
 160 70 191 22 254 22 c 0
EndSplineSet
EndChar

StartChar: dcaron
Encoding: 271 271 128
Width: 522
Flags: MW
HStem: -10 46<209 237.5> 0 32<467.5 472 467.5 505> 390 45<208.5 236.5 145 266> 526 97<515.5 571> 700 30<315 319.5>
VStem: 24 140<146.5 265.5 146.5 285> 328 131<357 680 680 685.5> 548 73<495 573.5>
LayerCount: 2
Fore
SplineSet
323 38 m 2x6e
 323 50 325 60 325 63 c 1
 309 20 270 -10 205 -10 c 0xae
 72 -10 24 65 24 211 c 0
 24 359 86 435 204 435 c 0
 269 435 314 398 328 357 c 1
 328 680 l 2
 328 691 324 700 315 700 c 2
 269 698 l 1
 269 730 l 1
 459 730 l 1
 459 51 l 2
 459 38 463 32 472 32 c 2
 505 34 l 1
 505 0 l 1
 321 0 l 1
 322 4 323 9 323 16 c 2
 323 38 l 2x6e
511 453 m 1xbf
 529 465 548 485 548 505 c 0
 548 521 538 526 527 526 c 0
 504 526 489 543 489 568 c 0
 489 602 516 623 551 623 c 0
 591 623 621 594 621 553 c 0
 621 499 575 452 532 431 c 1
 511 453 l 1xbf
326 229 m 2
 326 329 295 390 237 390 c 0
 180 390 164 320 164 211 c 0
 164 82 180 36 238 36 c 0
 298 36 326 86 326 186 c 2
 326 229 l 2
EndSplineSet
EndChar

StartChar: dcroat
Encoding: 273 273 129
Width: 522
Flags: MW
HStem: -10 46<209 237.5> 0 32<467.5 472 467.5 505> 390 45<208.5 236.5 145 266> 551 47<225 328 225 328 459 509> 700 30<315 319.5>
VStem: 24 140<146.5 265.5 146.5 285> 328 131<357 551 598 680 680 685.5>
LayerCount: 2
Fore
SplineSet
459 551 m 1x7e
 459 51 l 2
 459 38 463 32 472 32 c 2
 505 34 l 1
 505 0 l 1
 321 0 l 1
 322 4 323 9 323 16 c 2
 323 38 l 2x7e
 323 50 325 60 325 63 c 1
 309 20 270 -10 205 -10 c 0xbe
 72 -10 24 65 24 211 c 0
 24 359 86 435 204 435 c 0
 269 435 314 398 328 357 c 1
 328 551 l 1
 225 551 l 1
 225 598 l 1
 328 598 l 1
 328 680 l 2
 328 691 324 700 315 700 c 2
 269 698 l 1
 269 730 l 1
 459 730 l 1
 459 598 l 1
 509 598 l 1
 509 551 l 1
 459 551 l 1x7e
326 229 m 2
 326 329 295 390 237 390 c 0
 180 390 164 320 164 211 c 0
 164 82 180 36 238 36 c 0xbe
 298 36 326 86 326 186 c 2
 326 229 l 2
EndSplineSet
EndChar

StartChar: e
Encoding: 101 101 130
Width: 468
Flags: MW
HStem: -10 41<286 296.5> 208 33<161 294 294 300 161 448 160 294> 401 34<213.5 269.5>
VStem: 20 140<151 208 151 288.5> 314 134<208 316>
LayerCount: 2
Fore
SplineSet
444 93 m 1
 413 28 344 -10 249 -10 c 0
 90 -10 20 61 20 211 c 0
 20 366 98 435 247 435 c 0
 365 435 447 369 448 245 c 1
 448 208 l 1
 160 208 l 1
 160 94 202 32 286 31 c 0
 354 31 398 72 417 112 c 1
 444 93 l 1
294 241 m 2
 306 241 314 247 314 274 c 0
 314 358 295 401 244 401 c 0
 183 401 161 328 161 241 c 1
 294 241 l 2
EndSplineSet
Position2: "Single Positioning lookup 4 subtable" dx=0 dy=0 dh=-40 dv=0
EndChar

StartChar: eacute
Encoding: 233 233 131
Width: 468
Flags: MW
HStem: -10 41<286 296.5> 208 33<161 294 294 300 161 448 160 294> 401 34<213.5 269.5>
VStem: 20 140<151 208 151 288.5> 314 134<208 316>
LayerCount: 2
Fore
SplineSet
287 633 m 2
 304 652 308 658 323 658 c 0
 347 658 391 635 391 621 c 0
 391 614 386 609 378 603 c 2
 211 501 l 2
 205 497 195 492 187 492 c 0
 180 492 176 496 176 502 c 0
 176 510 181 517 192 529 c 2
 287 633 l 2
444 93 m 1
 413 28 344 -10 249 -10 c 0
 90 -10 20 61 20 211 c 0
 20 366 98 435 247 435 c 0
 365 435 447 369 448 245 c 1
 448 208 l 1
 160 208 l 1
 160 94 202 32 286 31 c 0
 354 31 398 72 417 112 c 1
 444 93 l 1
294 241 m 2
 306 241 314 247 314 274 c 0
 314 358 295 401 244 401 c 0
 183 401 161 328 161 241 c 1
 294 241 l 2
EndSplineSet
EndChar

StartChar: ecaron
Encoding: 283 283 132
Width: 468
Flags: MW
HStem: -10 41<286 296.5> 208 33<161 294 294 300 161 448 160 294> 401 34<213.5 269.5> 524 60<210 243 243 276>
VStem: 20 140<151 208 151 288.5> 314 134<208 316>
LayerCount: 2
Fore
SplineSet
163 572 m 1
 122 618 87 644 87 654 c 0
 87 657 89 662 99 662 c 0
 111 662 124 655 132 650 c 2
 243 584 l 1
 355 650 l 2
 363 655 376 662 388 662 c 0
 397 662 399 657 399 654 c 0
 399 644 364 618 323 572 c 1
 300 548 l 1
 276 524 l 2
 265 512 253 506 243 506 c 0
 233 506 222 512 210 524 c 2
 186 548 l 1
 163 572 l 1
444 93 m 1
 413 28 344 -10 249 -10 c 0
 90 -10 20 61 20 211 c 0
 20 366 98 435 247 435 c 0
 365 435 447 369 448 245 c 1
 448 208 l 1
 160 208 l 1
 160 94 202 32 286 31 c 0
 354 31 398 72 417 112 c 1
 444 93 l 1
294 241 m 2
 306 241 314 247 314 274 c 0
 314 358 295 401 244 401 c 0
 183 401 161 328 161 241 c 1
 294 241 l 2
EndSplineSet
EndChar

StartChar: ecircumflex
Encoding: 234 234 133
Width: 468
Flags: MW
HStem: -10 41<286 296.5> 208 33<161 294 294 300 161 448 160 294> 401 34<213.5 269.5> 576 60<210 243>
VStem: 20 140<151 208 151 288.5> 314 134<208 316>
LayerCount: 2
Fore
SplineSet
323 588 m 1
 364 542 399 516 399 506 c 0
 399 503 397 498 387 498 c 0
 375 498 362 505 354 510 c 2
 243 576 l 1
 131 510 l 2
 123 505 110 498 98 498 c 0
 89 498 87 503 87 506 c 0
 87 516 122 542 163 588 c 1
 186 612 l 1
 210 636 l 2
 221 648 233 654 243 654 c 0
 253 654 264 648 276 636 c 2
 300 612 l 1
 323 588 l 1
444 93 m 1
 413 28 344 -10 249 -10 c 0
 90 -10 20 61 20 211 c 0
 20 366 98 435 247 435 c 0
 365 435 447 369 448 245 c 1
 448 208 l 1
 160 208 l 1
 160 94 202 32 286 31 c 0
 354 31 398 72 417 112 c 1
 444 93 l 1
294 241 m 2
 306 241 314 247 314 274 c 0
 314 358 295 401 244 401 c 0
 183 401 161 328 161 241 c 1
 294 241 l 2
EndSplineSet
EndChar

StartChar: edieresis
Encoding: 235 235 134
Width: 468
Flags: MW
HStem: -10 41<286 296.5> 208 33<161 294 294 300 161 448 160 294> 401 34<213.5 269.5> 537 126<114.5 159 114.5 159.5 325.5 370>
VStem: 20 140<151 208 151 288.5> 60 154<580.5 619> 271 154<580.5 619> 314 134<208 316>
LayerCount: 2
Fore
SplineSet
60 600 m 0xf6
 60 638 92 663 137 663 c 0
 181 663 214 638 214 600 c 0
 214 561 182 537 137 537 c 0
 92 537 60 561 60 600 c 0xf6
271 600 m 0
 271 638 303 663 348 663 c 0
 392 663 425 638 425 600 c 0
 425 561 393 537 348 537 c 0
 303 537 271 561 271 600 c 0
444 93 m 1
 413 28 344 -10 249 -10 c 0
 90 -10 20 61 20 211 c 0
 20 366 98 435 247 435 c 0
 365 435 447 369 448 245 c 1
 448 208 l 1
 160 208 l 1xe9
 160 94 202 32 286 31 c 0
 354 31 398 72 417 112 c 1
 444 93 l 1
294 241 m 2xe9
 306 241 314 247 314 274 c 0
 314 358 295 401 244 401 c 0
 183 401 161 328 161 241 c 1
 294 241 l 2xe9
EndSplineSet
EndChar

StartChar: edotaccent
Encoding: 279 279 135
Width: 468
Flags: MW
HStem: -10 41<286 296.5> 208 33<161 294 294 300 161 448 160 294> 401 34<213.5 269.5> 537 126<221.5 266 221.5 266.5>
VStem: 20 140<151 208 151 288.5> 167 154<580.5 619> 314 134<208 316>
LayerCount: 2
Fore
SplineSet
167 600 m 0xf4
 167 638 199 663 244 663 c 0
 288 663 321 638 321 600 c 0
 321 561 289 537 244 537 c 0
 199 537 167 561 167 600 c 0xf4
444 93 m 1
 413 28 344 -10 249 -10 c 0
 90 -10 20 61 20 211 c 0
 20 366 98 435 247 435 c 0
 365 435 447 369 448 245 c 1
 448 208 l 1
 160 208 l 1xea
 160 94 202 32 286 31 c 0
 354 31 398 72 417 112 c 1
 444 93 l 1
294 241 m 2xea
 306 241 314 247 314 274 c 0
 314 358 295 401 244 401 c 0
 183 401 161 328 161 241 c 1
 294 241 l 2xea
EndSplineSet
EndChar

StartChar: egrave
Encoding: 232 232 136
Width: 468
Flags: MW
HStem: -10 41<286 296.5> 208 33<161 294 294 300 161 448 160 294> 401 34<213.5 269.5>
VStem: 20 140<151 208 151 288.5> 314 134<208 316>
LayerCount: 2
Fore
SplineSet
199 633 m 2
 182 652 178 658 163 658 c 0
 139 658 95 635 95 621 c 0
 95 614 100 609 108 603 c 2
 275 501 l 2
 281 497 291 492 299 492 c 0
 306 492 310 496 310 502 c 0
 310 510 305 517 294 529 c 2
 199 633 l 2
444 93 m 1
 413 28 344 -10 249 -10 c 0
 90 -10 20 61 20 211 c 0
 20 366 98 435 247 435 c 0
 365 435 447 369 448 245 c 1
 448 208 l 1
 160 208 l 1
 160 94 202 32 286 31 c 0
 354 31 398 72 417 112 c 1
 444 93 l 1
294 241 m 2
 306 241 314 247 314 274 c 0
 314 358 295 401 244 401 c 0
 183 401 161 328 161 241 c 1
 294 241 l 2
EndSplineSet
EndChar

StartChar: emacron
Encoding: 275 275 137
Width: 468
Flags: MW
HStem: -10 41<286 296.5> 208 33<161 294 294 300 161 448 160 294> 401 34<213.5 269.5> 565 47<123 362 123 362>
VStem: 20 140<151 208 151 288.5> 123 239<565 612 565 612> 314 134<208 316>
LayerCount: 2
Fore
SplineSet
123 612 m 1xf4
 362 612 l 1
 362 565 l 1
 123 565 l 1
 123 612 l 1xf4
444 93 m 1
 413 28 344 -10 249 -10 c 0
 90 -10 20 61 20 211 c 0
 20 366 98 435 247 435 c 0
 365 435 447 369 448 245 c 1
 448 208 l 1
 160 208 l 1xfa
 160 94 202 32 286 31 c 0
 354 31 398 72 417 112 c 1
 444 93 l 1
294 241 m 2xfa
 306 241 314 247 314 274 c 0
 314 358 295 401 244 401 c 0
 183 401 161 328 161 241 c 1
 294 241 l 2xfa
EndSplineSet
EndChar

StartChar: eogonek
Encoding: 281 281 138
Width: 468
Flags: MW
HStem: -162 58<346.5 349.5> -10 41<169.5 320> 208 33<161 294 294 300 161 448 160 294> 401 34<213.5 269.5>
VStem: 20 140<151 208 151 288.5> 247 67<-114 -44> 314 134<208 316>
LayerCount: 2
Fore
SplineSet
448 208 m 1x7a
 160 208 l 1
 160 94 202 32 286 31 c 0
 354 31 398 72 417 112 c 1
 444 93 l 1
 426 55 394 26 352 9 c 1
 328 -5 314 -30 314 -58 c 0
 314 -83 329 -104 364 -104 c 0
 388 -104 412 -96 434 -83 c 1
 446 -102 l 1
 413 -140 371 -162 328 -162 c 0
 287 -162 247 -138 247 -90 c 0
 247 -59 262 -30 291 -7 c 1xfc
 278 -9 264 -10 249 -10 c 0
 90 -10 20 61 20 211 c 0
 20 366 98 435 247 435 c 0
 365 435 447 369 448 245 c 1
 448 208 l 1x7a
294 241 m 2x7a
 306 241 314 247 314 274 c 0
 314 358 295 401 244 401 c 0
 183 401 161 328 161 241 c 1
 294 241 l 2x7a
EndSplineSet
EndChar

StartChar: f
Encoding: 102 102 139
Width: 299
Flags: MW
HStem: 0 32<57 61.5 209.5 214> 393 32<31 70 31 70 201 201 201 279> 702 34<234.5 264.5>
VStem: 70 131<51 393> 288 109<648.5 662 618 669>
LayerCount: 2
Fore
SplineSet
20 34 m 1
 57 32 l 2
 66 32 70 38 70 51 c 2
 70 393 l 1
 31 393 l 1
 31 425 l 1
 70 425 l 1
 70 486 l 2
 70 590 97 736 253 736 c 0
 334 736 397 691 397 633 c 0
 397 603 379 572 333 572 c 0
 303 572 279 586 279 612 c 0
 279 628 288 639 288 658 c 0
 288 680 278 702 251 702 c 0
 218 702 194 681 194 594 c 0
 194 546 200 493 200 449 c 2
 200 425 l 1
 279 425 l 1
 279 393 l 1
 201 393 l 1
 201 51 l 2
 201 38 205 32 214 32 c 2
 276 34 l 1
 276 0 l 1
 20 0 l 1
 20 34 l 1
EndSplineSet
Substitution2: "Single Substitution lookup 17 subtable" f.ss01
Substitution2: "'ss01' Style Set 1 lookup 15 subtable" f.ss01
Substitution2: "'salt' Stylistic Alternatives lookup 14 subtable" f.ss01
Substitution2: "'aalt' Access All Alternates lookup 0 subtable" f.ss01
Position2: "Single Positioning lookup 4 subtable" dx=0 dy=0 dh=-40 dv=0
Position2: "Single Positioning lookup 3 subtable" dx=0 dy=0 dh=50 dv=0
EndChar

StartChar: g
Encoding: 103 103 140
Width: 511
Flags: MW
HStem: -245 33<202 286.5 202 312.5> -25 20G -11 110<187 304 187 304 205 289> 159 30<233.5 268.5 221 306> 401 34<222.5 261.5 189 269> 407 20G 414 96<449.5 475.5 426 486>
VStem: 36 92<-143 -96.5> 49 134<266.5 334.5 255 340> 50 97<53 137.5> 309 134<257.5 329.5 253 332.5> 382 109<-112.5 -63>
LayerCount: 2
Fore
SplineSet
128 181 m 1xd890
 81 202 49 238 49 295 c 0
 49 385 130 435 248 435 c 0xd8a0
 275 435 301 433 326 427 c 1xd520
 358 469 401 510 451 510 c 0
 500 510 512 480 512 459 c 0
 512 440 502 414 470 414 c 0
 429 414 437 449 410 449 c 0
 394 449 370 436 356 418 c 1
 407 398 443 361 443 298 c 0xd320
 443 208 365 159 247 159 c 0
 220 159 193 162 168 168 c 1
 155 157 147 144 147 131 c 0
 147 108 169 99 205 99 c 2
 304 99 l 2xb850
 419 99 491 59 491 -51 c 0
 491 -174 390 -245 235 -245 c 0
 109 -245 36 -202 36 -123 c 0xd910
 36 -70 74 -32 136 -5 c 1
 88 5 50 31 50 75 c 0
 50 103 61 122 97 154 c 2xd850
 128 181 l 1xd890
244 189 m 0xd8a0
 293 189 309 220 309 295 c 0
 309 370 293 401 245 401 c 0
 200 401 183 375 183 294 c 0
 183 216 198 189 244 189 c 0xd8a0
189 -11 m 1xb910
 187 -11 l 1
 154 -24 128 -69 128 -114 c 0
 128 -172 161 -212 243 -212 c 0
 330 -212 382 -161 382 -89 c 0
 382 -37 356 -11 289 -11 c 2
 189 -11 l 1xb910
EndSplineSet
Position2: "Single Positioning lookup 4 subtable" dx=0 dy=0 dh=-40 dv=0
EndChar

StartChar: gbreve
Encoding: 287 287 141
Width: 511
Flags: MW
HStem: -245 33<202 286.5 202 312.5> -25 20G -11 110<187 304 205 289> 159 30<233.5 268.5 221 306> 401 34<222.5 261.5 189 269> 407 20G 414 96<449.5 475.5 426 486> 516 65<220 277 220 289.5>
VStem: 36 92<-143 -96.5> 49 134<266.5 334.5 255 340> 50 97<53 137.5> 309 134<257.5 329.5 253 332.5> 382 109<-112.5 -63>
LayerCount: 2
Fore
SplineSet
385 647 m 1xd988
 383 570 330 516 249 516 c 0
 168 516 116 570 114 647 c 1
 160 647 l 1
 168 615 191 581 249 581 c 0
 305 581 331 615 340 647 c 1
 385 647 l 1xd988
128 181 m 1xd948
 81 202 49 238 49 295 c 0
 49 385 130 435 248 435 c 0xd950
 275 435 301 433 326 427 c 1xd590
 358 469 401 510 451 510 c 0
 500 510 512 480 512 459 c 0
 512 440 502 414 470 414 c 0
 429 414 437 449 410 449 c 0
 394 449 370 436 356 418 c 1
 407 398 443 361 443 298 c 0xd290
 443 208 365 159 247 159 c 0
 220 159 193 162 168 168 c 1
 155 157 147 144 147 131 c 0
 147 108 169 99 205 99 c 2
 304 99 l 2xb928
 419 99 491 59 491 -51 c 0
 491 -174 390 -245 235 -245 c 0
 109 -245 36 -202 36 -123 c 0xd988
 36 -70 74 -32 136 -5 c 1
 88 5 50 31 50 75 c 0
 50 103 61 122 97 154 c 2xd928
 128 181 l 1xd948
244 189 m 0xd950
 293 189 309 220 309 295 c 0
 309 370 293 401 245 401 c 0
 200 401 183 375 183 294 c 0
 183 216 198 189 244 189 c 0xd950
187 -11 m 1xb988
 154 -24 128 -69 128 -114 c 0
 128 -172 161 -212 243 -212 c 0
 330 -212 382 -161 382 -89 c 0
 382 -37 356 -11 289 -11 c 2
 187 -11 l 1xb988
EndSplineSet
EndChar

StartChar: gcommaaccent
Encoding: 291 291 142
Width: 511
Flags: MW
HStem: -245 33<202 286.5 202 312.5> -25 20G -11 110<187 304 205 289> 159 30<233.5 268.5 221 306> 401 34<222.5 261.5 189 269> 407 20G 414 96<449.5 475.5 426 486> 491 107<255 262> 578 20G<255 275>
VStem: 36 92<-143 -96.5> 49 134<266.5 334.5 255 340> 50 97<53 137.5> 161 73<548.5 636> 309 134<257.5 329.5 253 332.5> 382 109<-112.5 -63>
LayerCount: 2
Fore
SplineSet
282 686 m 1xd8ca
 257 671 234 645 234 627 c 0
 234 604 248 598 262 598 c 0
 288 598 303 574 303 549 c 0
 303 521 284 491 240 491 c 0
 191 491 161 529 161 568 c 0xd94a
 161 632 210 683 260 708 c 1
 282 686 l 1xd8ca
128 181 m 1xd8a2
 81 202 49 238 49 295 c 0
 49 385 130 435 248 435 c 0xd8a4
 275 435 301 433 326 427 c 1xd4cc
 358 469 401 510 451 510 c 0
 500 510 512 480 512 459 c 0
 512 440 502 414 470 414 c 0
 429 414 437 449 410 449 c 0
 394 449 370 436 356 418 c 1
 407 398 443 361 443 298 c 0xd2cc
 443 208 365 159 247 159 c 0
 220 159 193 162 168 168 c 1
 155 157 147 144 147 131 c 0
 147 108 169 99 205 99 c 2
 304 99 l 2xb89a
 419 99 491 59 491 -51 c 0
 491 -174 390 -245 235 -245 c 0
 109 -245 36 -202 36 -123 c 0xd8ca
 36 -70 74 -32 136 -5 c 1
 88 5 50 31 50 75 c 0
 50 103 61 122 97 154 c 2xd89a
 128 181 l 1xd8a2
244 189 m 0xd8a4
 293 189 309 220 309 295 c 0
 309 370 293 401 245 401 c 0
 200 401 183 375 183 294 c 0
 183 216 198 189 244 189 c 0xd8a4
187 -11 m 1xb8ca
 154 -24 128 -69 128 -114 c 0
 128 -172 161 -212 243 -212 c 0
 330 -212 382 -161 382 -89 c 0
 382 -37 356 -11 289 -11 c 2
 187 -11 l 1xb8ca
EndSplineSet
EndChar

StartChar: h
Encoding: 104 104 143
Width: 539
Flags: MW
HStem: 0 32<53 53 205.5 210 490.5 495> 388 47<315 325.5> 698 32
VStem: 66 131<51 198 334 679 679 684.5> 351 131<51 292>
LayerCount: 2
Fore
SplineSet
528 34 m 1
 528 0 l 1
 300 0 l 1
 300 34 l 1
 338 32 l 1
 347 34 351 40 351 51 c 2
 351 293 l 2
 351 357 347 388 304 388 c 0
 253 388 198 323 197 198 c 1
 197 51 l 2
 197 38 201 32 210 32 c 2
 249 34 l 1
 249 0 l 1
 20 0 l 1
 20 34 l 1
 53 32 l 1
 62 34 66 40 66 51 c 2
 66 679 l 2
 66 690 62 697 53 699 c 1
 20 697 l 1
 20 730 l 1
 197 730 l 1
 197 334 l 1
 225 396 278 435 352 435 c 0
 443 435 482 391 482 292 c 2
 482 51 l 2
 482 38 486 32 495 32 c 2
 528 34 l 1
EndSplineSet
Position2: "Single Positioning lookup 4 subtable" dx=0 dy=0 dh=-40 dv=0
EndChar

StartChar: i
Encoding: 105 105 144
Width: 263
Flags: MW
HStem: 0 32<53 55 55 58.5> 393 32 532 125<106.5 151.5>
VStem: 52 154<575 614> 66 131<51 374 374 379.5>
LayerCount: 2
Fore
SplineSet
129 657 m 0xf0
 174 657 206 633 206 595 c 0
 206 555 174 532 129 532 c 0
 84 532 52 555 52 595 c 0
 52 633 84 657 129 657 c 0xf0
197 51 m 2xc8
 197 38 201 31 210 32 c 2
 243 34 l 1
 243 0 l 1
 20 0 l 1
 20 34 l 1
 53 32 l 2
 54 32 54 32 55 32 c 0
 62 32 66 39 66 51 c 2
 66 374 l 2
 66 385 62 392 54 394 c 1
 21 392 l 1
 21 425 l 1
 197 425 l 1
 197 51 l 2xc8
EndSplineSet
Substitution2: "'locl' Localized Forms in Latin lookup 6 subtable" i.loclTRK
Substitution2: "'locl' Localized Forms in Latin lookup 5 subtable" i.loclTRK
Substitution2: "'locl' Localized Forms in Latin lookup 3 subtable" i.loclTRK
Substitution2: "'locl' Localized Forms in Latin lookup 2 subtable" i.loclTRK
Substitution2: "'locl' Localized Forms in Latin lookup 1 subtable" i.loclTRK
Substitution2: "'aalt' Access All Alternates lookup 0 subtable" i.loclTRK
Position2: "Single Positioning lookup 4 subtable" dx=0 dy=0 dh=-40 dv=0
EndChar

StartChar: dotlessi
Encoding: 305 305 145
Width: 263
Flags: MW
HStem: 0 32<53 55 55 58.5> 393 32
VStem: 66 131<51 374 374 379.5>
LayerCount: 2
Fore
SplineSet
197 51 m 2
 197 38 201 31 210 32 c 2
 243 34 l 1
 243 0 l 1
 20 0 l 1
 20 34 l 1
 53 32 l 2
 54 32 54 32 55 32 c 0
 62 32 66 39 66 51 c 2
 66 374 l 2
 66 385 62 392 54 394 c 1
 21 392 l 1
 21 425 l 1
 197 425 l 1
 197 51 l 2
EndSplineSet
EndChar

StartChar: iacute
Encoding: 237 237 146
Width: 263
Flags: MW
HStem: 0 32<53 55 55 58.5> 393 32
VStem: 66 131<51 374 374 379.5>
LayerCount: 2
Fore
SplineSet
172 633 m 2
 189 652 193 658 208 658 c 0
 232 658 276 635 276 621 c 0
 276 614 271 609 263 603 c 2
 96 501 l 2
 90 497 80 492 72 492 c 0
 65 492 61 496 61 502 c 0
 61 510 66 517 77 529 c 2
 172 633 l 2
197 51 m 2
 197 38 201 31 210 32 c 2
 243 34 l 1
 243 0 l 1
 20 0 l 1
 20 34 l 1
 53 32 l 1
 55 32 l 2
 62 32 66 39 66 51 c 2
 66 374 l 2
 66 385 62 392 54 394 c 1
 21 392 l 1
 21 425 l 1
 197 425 l 1
 197 51 l 2
EndSplineSet
EndChar

StartChar: icircumflex
Encoding: 238 238 147
Width: 263
Flags: MW
HStem: 0 32<53 55 55 58.5> 393 32 509 140<30 106 106 226>
VStem: 66 131<51 374 374 379.5>
LayerCount: 2
Fore
SplineSet
30 509 m 2
 20 503 9 498 4 498 c 0
 -3 498 -7 503 -7 509 c 0
 -7 513 1 523 12 536 c 2
 106 649 l 2
 114 660 122 664 128 664 c 0
 135 664 142 659 151 649 c 2
 245 536 l 2
 255 523 263 513 263 509 c 0
 263 503 259 498 252 498 c 0
 247 498 237 503 226 509 c 1
 128 574 l 1
 30 509 l 2
197 51 m 2
 197 38 201 31 210 32 c 2
 243 34 l 1
 243 0 l 1
 20 0 l 1
 20 34 l 1
 53 32 l 1
 55 32 l 2
 62 32 66 39 66 51 c 2
 66 374 l 2
 66 385 62 392 54 394 c 1
 21 392 l 1
 21 425 l 1
 197 425 l 1
 197 51 l 2
EndSplineSet
EndChar

StartChar: idieresis
Encoding: 239 239 148
Width: 263
Flags: MW
HStem: 0 32<53 55 55 58.5> 393 32 537 126<-0.5 44 -0.5 44.5 210.5 255>
VStem: -55 154<580.5 619> 66 131<51 374 374 379.5> 156 154<580.5 619>
LayerCount: 2
Fore
SplineSet
-55 600 m 0xf4
 -55 638 -23 663 22 663 c 0
 66 663 99 638 99 600 c 0
 99 561 67 537 22 537 c 0
 -23 537 -55 561 -55 600 c 0xf4
156 600 m 0
 156 638 188 663 233 663 c 0
 277 663 310 638 310 600 c 0
 310 561 278 537 233 537 c 0
 188 537 156 561 156 600 c 0
197 51 m 2xc8
 197 38 201 31 210 32 c 2
 243 34 l 1
 243 0 l 1
 20 0 l 1
 20 34 l 1
 53 32 l 1
 55 32 l 2
 62 32 66 39 66 51 c 2
 66 374 l 2
 66 385 62 392 54 394 c 1
 21 392 l 1
 21 425 l 1
 197 425 l 1
 197 51 l 2xc8
EndSplineSet
EndChar

StartChar: igrave
Encoding: 236 236 149
Width: 263
Flags: MW
HStem: 0 32<53 55 55 58.5> 393 32
VStem: 66 131<51 374 374 379.5>
LayerCount: 2
Fore
SplineSet
84 633 m 2
 67 652 63 658 48 658 c 0
 24 658 -20 635 -20 621 c 0
 -20 614 -15 609 -7 603 c 2
 160 501 l 2
 166 497 176 492 184 492 c 0
 191 492 195 496 195 502 c 0
 195 510 190 517 179 529 c 2
 84 633 l 2
197 51 m 2
 197 38 201 31 210 32 c 2
 243 34 l 1
 243 0 l 1
 20 0 l 1
 20 34 l 1
 53 32 l 1
 55 32 l 2
 62 32 66 39 66 51 c 2
 66 374 l 2
 66 385 62 392 54 394 c 1
 21 392 l 1
 21 425 l 1
 197 425 l 1
 197 51 l 2
EndSplineSet
EndChar

StartChar: ij
Encoding: 307 307 150
Width: 525
Flags: MW
HStem: -243 34<300 317.5 300 354> 0 32<53 55 55 58.5> 393 32 532 125<106.5 151.5 369.5 414.5>
VStem: 52 154<575 614> 66 131<51 374 374 379.5> 173 118<-158 -148.5> 316 154<575 614> 329 131<-37 -12 -12 374 374 379.5>
LayerCount: 2
Fore
SplineSet
129 657 m 0xf9
 174 657 206 633 206 595 c 0
 206 555 174 532 129 532 c 0
 84 532 52 555 52 595 c 0
 52 633 84 657 129 657 c 0xf9
392 657 m 0
 437 657 470 633 470 595 c 0
 470 555 437 532 392 532 c 0
 347 532 316 555 316 595 c 0
 316 633 347 657 392 657 c 0
197 51 m 2xf480
 197 38 201 31 210 32 c 2
 243 34 l 1
 243 0 l 1
 20 0 l 1
 20 34 l 1
 53 32 l 1
 55 32 l 2
 62 32 66 39 66 51 c 2
 66 374 l 2
 66 385 62 392 54 394 c 1
 21 392 l 1
 21 425 l 1
 197 425 l 1
 197 51 l 2xf480
460 -12 m 2
 460 -171 406 -243 302 -243 c 0
 219 -243 173 -211 173 -166 c 0
 173 -131 198 -108 236 -108 c 0
 251 -108 291 -114 291 -153 c 0
 291 -163 285 -175 285 -184 c 0
 285 -200 293 -209 307 -209 c 0xf280
 328 -209 339 -185 339 -159 c 0
 339 -135 329 -106 329 -37 c 2
 329 374 l 2
 329 385 325 395 316 394 c 2
 283 392 l 1
 283 425 l 1
 460 425 l 1
 460 -12 l 2
EndSplineSet
EndChar

StartChar: imacron
Encoding: 299 299 151
Width: 263
Flags: MW
HStem: 0 32<53 55 55 58.5> 393 32 565 47<8 247 8 247>
VStem: 8 239<565 612 565 612> 66 131<51 374 374 379.5>
LayerCount: 2
Fore
SplineSet
8 612 m 1xf0
 247 612 l 1
 247 565 l 1
 8 565 l 1
 8 612 l 1xf0
197 51 m 2xe8
 197 38 201 31 210 32 c 2
 243 34 l 1
 243 0 l 1
 20 0 l 1
 20 34 l 1
 53 32 l 1
 55 32 l 2
 62 32 66 39 66 51 c 2
 66 374 l 2
 66 385 62 392 54 394 c 1
 21 392 l 1
 21 425 l 1
 197 425 l 1
 197 51 l 2xe8
EndSplineSet
EndChar

StartChar: iogonek
Encoding: 303 303 152
Width: 263
Flags: MW
HStem: -160 58<199.5 202.5> 0 32<53 55 55 58.5 53 152> 393 32 537 126<106.5 151 106.5 151.5>
VStem: 52 154<580.5 619> 66 131<51 374 374 379.5> 100 67<-112 -45>
LayerCount: 2
Fore
SplineSet
129 537 m 0xf8
 84 537 52 561 52 600 c 0
 52 638 84 663 129 663 c 0
 173 663 206 638 206 600 c 0
 206 561 174 537 129 537 c 0xf8
299 -100 m 1
 266 -138 224 -160 181 -160 c 0
 140 -160 100 -136 100 -88 c 0
 100 -55 117 -23 152 0 c 1
 20 0 l 1
 20 34 l 1xe2
 53 32 l 1
 55 32 l 2
 62 32 66 39 66 51 c 2
 66 374 l 2
 66 385 62 392 54 394 c 1
 21 392 l 1
 21 425 l 1
 197 425 l 1
 197 51 l 2
 197 38 201 31 210 32 c 2
 243 34 l 1
 243 0 l 1x64
 191 0 l 1
 176 -14 167 -34 167 -56 c 0
 167 -81 182 -102 217 -102 c 0xe2
 241 -102 265 -94 287 -81 c 1
 299 -100 l 1
EndSplineSet
EndChar

StartChar: j
Encoding: 106 106 153
Width: 262
Flags: MW
HStem: -243 34<37 54.5 37 91> 393 32 532 125<106.5 151.5>
VStem: -90 118<-158 -148.5> 53 154<575 614> 66 131<-37 -12 -12 374 374 379.5>
LayerCount: 2
Fore
SplineSet
129 657 m 0xe8
 174 657 207 633 207 595 c 0
 207 555 174 532 129 532 c 0
 84 532 53 555 53 595 c 0
 53 633 84 657 129 657 c 0xe8
197 -12 m 2xd4
 197 -171 143 -243 39 -243 c 0
 -44 -243 -90 -211 -90 -166 c 0
 -90 -131 -65 -108 -27 -108 c 0
 -12 -108 28 -114 28 -153 c 0
 28 -163 22 -175 22 -184 c 0
 22 -200 30 -209 44 -209 c 0
 65 -209 76 -185 76 -159 c 0
 76 -135 66 -106 66 -37 c 2
 66 374 l 2
 66 385 62 395 53 394 c 2
 20 392 l 1
 20 425 l 1
 197 425 l 1
 197 -12 l 2xd4
EndSplineSet
Position2: "Single Positioning lookup 4 subtable" dx=0 dy=0 dh=-40 dv=0
EndChar

StartChar: dotlessj
Encoding: 567 567 154
Width: 262
Flags: MW
HStem: -243 34<37 54.5 37 91> 393 32
VStem: -90 118<-158 -148.5> 66 131<-37 -12 -12 374 374 379.5>
LayerCount: 2
Fore
SplineSet
197 -12 m 2
 197 -171 143 -243 39 -243 c 0
 -44 -243 -90 -211 -90 -166 c 0
 -90 -131 -65 -108 -27 -108 c 0
 -12 -108 28 -114 28 -153 c 0
 28 -163 22 -175 22 -184 c 0
 22 -200 30 -209 44 -209 c 0
 65 -209 76 -185 76 -159 c 0
 76 -135 66 -106 66 -37 c 2
 66 374 l 2
 66 385 62 395 53 394 c 2
 20 392 l 1
 20 425 l 1
 197 425 l 1
 197 -12 l 2
EndSplineSet
EndChar

StartChar: k
Encoding: 107 107 155
Width: 524
Flags: MW
HStem: 0 32<53 53 310 312 312 317> 395 30<354 354 439.5 445> 700 30<54 58>
VStem: 66 131<51 196 238 679 679 686> 311 170<393 425 393 425>
LayerCount: 2
Fore
SplineSet
517 34 m 1
 517 0 l 1
 276 0 l 1
 276 34 l 1
 310 32 l 2
 311 32 311 32 312 32 c 0
 322 32 323 39 319 46 c 2
 220 215 l 1
 197 196 l 1
 197 51 l 2
 197 38 201 31 210 32 c 2
 245 34 l 1
 245 0 l 1
 20 0 l 1
 20 34 l 1
 53 32 l 1
 62 34 66 40 66 51 c 2
 66 679 l 2
 66 693 62 700 54 700 c 2
 21 698 l 1
 21 730 l 1
 197 730 l 1
 197 238 l 1
 357 375 l 2
 360 378 363 383 363 388 c 0
 363 392 360 396 354 395 c 2
 311 393 l 1
 311 425 l 1
 481 425 l 1
 481 393 l 1
 445 395 l 2
 434 395 424 390 414 381 c 2
 317 298 l 1
 461 50 l 2
 468 39 480 31 488 32 c 2
 517 34 l 1
EndSplineSet
Position2: "Single Positioning lookup 4 subtable" dx=0 dy=0 dh=-40 dv=0
EndChar

StartChar: kcommaaccent
Encoding: 311 311 156
Width: 524
Flags: MW
HStem: -141 107<243 250> 0 32<53 53 310 312 312 317> 395 30<354 354 439.5 445> 700 30<54 58>
VStem: 66 131<51 196 238 679 679 686> 271 73<-179 -91.5> 311 170<393 425 393 425>
LayerCount: 2
Fore
SplineSet
517 0 m 1x7a
 276 0 l 1
 276 34 l 1
 310 32 l 1
 312 32 l 2
 322 32 323 39 319 46 c 2
 220 215 l 1
 197 196 l 1
 197 51 l 2
 197 38 201 31 210 32 c 2
 245 34 l 1
 245 0 l 1
 20 0 l 1
 20 34 l 1
 53 32 l 1
 62 34 66 40 66 51 c 2
 66 679 l 2
 66 693 62 700 54 700 c 2
 21 698 l 1
 21 730 l 1
 197 730 l 1
 197 238 l 1
 357 375 l 2
 360 378 363 383 363 388 c 0
 363 392 360 396 354 395 c 2
 311 393 l 1
 311 425 l 1
 481 425 l 1
 481 393 l 1
 445 395 l 2
 434 395 424 390 414 381 c 2
 317 298 l 1
 461 50 l 2
 468 39 480 31 488 32 c 2
 517 34 l 1
 517 0 l 1x7a
223 -229 m 1xfc
 248 -214 271 -188 271 -170 c 0
 271 -147 257 -141 243 -141 c 0
 217 -141 202 -117 202 -92 c 0
 202 -64 221 -34 265 -34 c 0
 314 -34 344 -72 344 -111 c 0
 344 -175 295 -226 245 -251 c 1
 223 -229 l 1xfc
EndSplineSet
EndChar

StartChar: l
Encoding: 108 108 157
Width: 263
Flags: MW
HStem: 0 33 700 31
VStem: 66 131<51 680 680 685.5>
LayerCount: 2
Fore
SplineSet
20 34 m 1
 53 32 l 1
 62 34 66 40 66 51 c 2
 66 680 l 2
 66 691 62 698 54 701 c 1
 21 699 l 1
 21 731 l 1
 197 731 l 1
 197 51 l 2
 197 38 201 31 210 32 c 2
 243 34 l 1
 243 0 l 1
 20 0 l 1
 20 34 l 1
EndSplineSet
Position2: "Single Positioning lookup 4 subtable" dx=0 dy=0 dh=-40 dv=0
EndChar

StartChar: lacute
Encoding: 314 314 158
Width: 263
Flags: MW
HStem: 0 33 700 31
VStem: 66 131<51 680 680 685.5>
LayerCount: 2
Fore
SplineSet
180 868 m 2
 195 879 202 883 211 883 c 0
 229 883 275 854 275 835 c 0
 275 829 270 824 259 820 c 2
 81 755 l 2
 76 753 69 751 63 751 c 0
 53 751 47 754 47 762 c 0
 47 770 53 775 67 785 c 2
 180 868 l 2
53 32 m 1
 62 34 66 40 66 51 c 2
 66 680 l 2
 66 691 62 698 54 701 c 1
 21 699 l 1
 21 731 l 1
 197 731 l 1
 197 51 l 2
 197 38 201 31 210 32 c 2
 243 34 l 1
 243 0 l 1
 20 0 l 1
 20 34 l 1
 53 32 l 1
EndSplineSet
EndChar

StartChar: lcaron
Encoding: 318 318 159
Width: 263
Flags: MW
HStem: 0 33 526 97<247.5 303> 700 31
VStem: 66 131<51 680 680 685.5> 280 73<495 573.5>
LayerCount: 2
Fore
SplineSet
53 32 m 1
 62 34 66 40 66 51 c 2
 66 680 l 2
 66 691 62 698 54 701 c 1
 21 699 l 1
 21 731 l 1
 197 731 l 1
 197 51 l 2
 197 38 201 31 210 32 c 2
 243 34 l 1
 243 0 l 1
 20 0 l 1
 20 34 l 1
 53 32 l 1
243 453 m 1
 261 465 280 485 280 505 c 0
 280 521 270 526 259 526 c 0
 236 526 221 543 221 568 c 0
 221 602 248 623 283 623 c 0
 323 623 353 594 353 553 c 0
 353 499 307 452 264 431 c 1
 243 453 l 1
EndSplineSet
EndChar

StartChar: lcommaaccent
Encoding: 316 316 160
Width: 263
Flags: MW
HStem: -141 107<111 118> 0 33 700 31
VStem: 66 131<51 680 680 685.5> 139 73<-179 -91.5>
LayerCount: 2
Fore
SplineSet
53 32 m 1x70
 62 34 66 40 66 51 c 2
 66 680 l 2
 66 691 62 698 54 701 c 1
 21 699 l 1
 21 731 l 1
 197 731 l 1
 197 51 l 2
 197 38 201 31 210 32 c 2
 243 34 l 1
 243 0 l 1
 20 0 l 1
 20 34 l 1
 53 32 l 1x70
91 -229 m 1xe8
 116 -214 139 -188 139 -170 c 0
 139 -147 125 -141 111 -141 c 0
 85 -141 70 -117 70 -92 c 0
 70 -64 89 -34 133 -34 c 0
 182 -34 212 -72 212 -111 c 0
 212 -175 163 -226 113 -251 c 1
 91 -229 l 1xe8
EndSplineSet
EndChar

StartChar: ldot
Encoding: 320 320 161
Width: 263
Flags: MW
HStem: 0 33 291 126<264 302 264 302.5> 700 31
VStem: 66 131<51 680 680 685.5> 218 131<334.5 373>
LayerCount: 2
Fore
SplineSet
53 32 m 1
 62 34 66 40 66 51 c 2
 66 680 l 2
 66 691 62 698 54 701 c 1
 21 699 l 1
 21 731 l 1
 197 731 l 1
 197 51 l 2
 197 38 201 31 210 32 c 2
 243 34 l 1
 243 0 l 1
 20 0 l 1
 20 34 l 1
 53 32 l 1
218 354 m 0xf8
 218 392 245 417 283 417 c 0
 321 417 349 392 349 354 c 0
 349 315 322 291 283 291 c 0
 245 291 218 315 218 354 c 0xf8
EndSplineSet
Ligature2: "Ligature Substitution lookup 16 subtable" l periodcentered
EndChar

StartChar: lslash
Encoding: 322 322 162
Width: 263
Flags: MW
HStem: 0 33 700 31
VStem: 66 131<51 328 328 328 380 429 482 680 680 685.5>
LayerCount: 2
Fore
SplineSet
197 429 m 1
 197 51 l 2
 197 38 201 31 210 32 c 2
 243 34 l 1
 243 0 l 1
 20 0 l 1
 20 34 l 1
 53 32 l 1
 62 34 66 40 66 51 c 2
 66 328 l 1
 10 281 l 1
 10 333 l 1
 66 380 l 1
 66 680 l 2
 66 691 62 698 54 701 c 1
 21 699 l 1
 21 731 l 1
 197 731 l 1
 197 482 l 1
 254 530 l 1
 254 476 l 1
 197 429 l 1
EndSplineSet
EndChar

StartChar: m
Encoding: 109 109 163
Width: 807
Flags: MW
HStem: 0 33 388 47<313.5 320 589.5 597.5> 393 32
VStem: 66 131<51 213> 343 131<51 203> 619 131<51 292>
LayerCount: 2
Fore
SplineSet
796 34 m 1xbc
 796 0 l 1
 570 0 l 1
 570 34 l 1
 606 32 l 1
 615 34 619 40 619 51 c 2
 619 293 l 2
 619 354 615 388 580 388 c 0
 538 388 476 325 474 203 c 1
 474 51 l 2
 474 38 478 32 487 32 c 2
 522 34 l 1
 522 0 l 1
 294 0 l 1
 294 34 l 1
 330 32 l 1
 339 34 343 40 343 51 c 2
 343 293 l 2
 343 358 338 388 302 388 c 0xdc
 262 388 203 327 197 213 c 1
 197 51 l 2
 197 38 201 31 210 32 c 2
 246 34 l 1
 246 0 l 1
 20 0 l 1
 20 34 l 1
 53 32 l 1
 62 34 66 40 66 51 c 2
 66 374 l 2
 66 385 62 392 53 394 c 1
 20 392 l 1
 20 425 l 1
 203 425 l 1
 200 416 198 405 198 391 c 2xbc
 198 335 l 1
 225 395 276 435 351 435 c 0
 421 435 461 405 471 329 c 1
 499 396 552 435 627 435 c 0xdc
 713 435 750 391 750 292 c 2
 750 51 l 2
 750 38 754 32 763 32 c 2
 796 34 l 1xbc
EndSplineSet
Position2: "Single Positioning lookup 4 subtable" dx=0 dy=0 dh=-40 dv=0
EndChar

StartChar: n
Encoding: 110 110 164
Width: 539
Flags: MW
HStem: 0 32<53 53 205.5 210 490.5 495> 388 47<315 325.5> 393 32
VStem: 66 131<51 198 334 374 374 379.5> 351 131<51 292>
LayerCount: 2
Fore
SplineSet
528 34 m 1xb8
 528 0 l 1
 300 0 l 1
 300 34 l 1
 338 32 l 1
 347 34 351 40 351 51 c 2
 351 293 l 2
 351 354 347 388 304 388 c 0xd8
 253 388 198 323 197 198 c 1
 197 51 l 2
 197 38 201 32 210 32 c 2
 249 34 l 1
 249 0 l 1
 20 0 l 1
 20 34 l 1
 53 32 l 1
 62 34 66 40 66 51 c 2
 66 374 l 2
 66 385 62 392 53 394 c 1
 20 392 l 1
 20 425 l 1
 202 425 l 1
 199 416 197 405 197 390 c 2xb8
 197 334 l 1
 225 396 278 435 352 435 c 0xd8
 443 435 482 391 482 292 c 2
 482 51 l 2
 482 38 486 32 495 32 c 2
 528 34 l 1xb8
EndSplineSet
Position2: "Single Positioning lookup 4 subtable" dx=0 dy=0 dh=-40 dv=0
EndChar

StartChar: nacute
Encoding: 324 324 165
Width: 539
Flags: MW
HStem: 0 32<53 53 205.5 210 490.5 495> 388 47<315 325.5> 393 32
VStem: 66 131<51 198 334 374 374 379.5> 351 131<51 292>
LayerCount: 2
Fore
SplineSet
318 633 m 2xb8
 335 652 339 658 354 658 c 0
 378 658 422 635 422 621 c 0
 422 614 417 609 409 603 c 2
 242 501 l 2
 236 497 226 492 218 492 c 0
 211 492 207 496 207 502 c 0
 207 510 212 517 223 529 c 2
 318 633 l 2xb8
528 0 m 1
 300 0 l 1
 300 34 l 1
 338 32 l 1
 347 34 351 40 351 51 c 2
 351 293 l 2
 351 354 347 388 304 388 c 0xd8
 253 388 198 323 197 198 c 1
 197 51 l 2
 197 38 201 32 210 32 c 2
 249 34 l 1
 249 0 l 1
 20 0 l 1
 20 34 l 1
 53 32 l 1
 62 34 66 40 66 51 c 2
 66 374 l 2
 66 385 62 392 53 394 c 1
 20 392 l 1
 20 425 l 1
 202 425 l 1
 199 416 197 405 197 390 c 2xb8
 197 334 l 1
 225 396 278 435 352 435 c 0xd8
 443 435 482 391 482 292 c 2
 482 51 l 2
 482 38 486 32 495 32 c 2
 528 34 l 1
 528 0 l 1
EndSplineSet
EndChar

StartChar: ncaron
Encoding: 328 328 166
Width: 539
Flags: MW
HStem: 0 32<53 53 205.5 210 490.5 495> 388 47<315 325.5> 393 32 524 60<241 274 274 307>
VStem: 66 131<51 198 334 374 374 379.5> 351 131<51 292>
LayerCount: 2
Fore
SplineSet
194 572 m 1xbc
 153 618 118 644 118 654 c 0
 118 657 120 662 130 662 c 0
 142 662 155 655 163 650 c 2
 274 584 l 1
 386 650 l 2
 394 655 407 662 419 662 c 0
 428 662 430 657 430 654 c 0
 430 644 395 618 354 572 c 1
 331 548 l 1
 307 524 l 2
 296 512 284 506 274 506 c 0
 264 506 253 512 241 524 c 2
 217 548 l 1
 194 572 l 1xbc
528 0 m 1
 300 0 l 1
 300 34 l 1
 338 32 l 1
 347 34 351 40 351 51 c 2
 351 293 l 2
 351 354 347 388 304 388 c 0xdc
 253 388 198 323 197 198 c 1
 197 51 l 2
 197 38 201 32 210 32 c 2
 249 34 l 1
 249 0 l 1
 20 0 l 1
 20 34 l 1
 53 32 l 1
 62 34 66 40 66 51 c 2
 66 374 l 2
 66 385 62 392 53 394 c 1
 20 392 l 1
 20 425 l 1
 202 425 l 1
 199 416 197 405 197 390 c 2xbc
 197 334 l 1
 225 396 278 435 352 435 c 0xdc
 443 435 482 391 482 292 c 2
 482 51 l 2
 482 38 486 32 495 32 c 2
 528 34 l 1
 528 0 l 1
EndSplineSet
EndChar

StartChar: ncommaaccent
Encoding: 326 326 167
Width: 539
Flags: MW
HStem: -141 107<257 264> 0 32<53 53 205.5 210 490.5 495> 388 47<315 325.5> 393 32
VStem: 66 131<51 198 334 374 374 379.5> 285 73<-179 -91.5> 351 131<51 292>
LayerCount: 2
Fore
SplineSet
528 0 m 1x5a
 300 0 l 1
 300 34 l 1
 338 32 l 1
 347 34 351 40 351 51 c 2
 351 293 l 2
 351 354 347 388 304 388 c 0x6a
 253 388 198 323 197 198 c 1
 197 51 l 2
 197 38 201 32 210 32 c 2
 249 34 l 1
 249 0 l 1
 20 0 l 1
 20 34 l 1
 53 32 l 1
 62 34 66 40 66 51 c 2
 66 374 l 2
 66 385 62 392 53 394 c 1
 20 392 l 1
 20 425 l 1
 202 425 l 1
 199 416 197 405 197 390 c 2x5a
 197 334 l 1
 225 396 278 435 352 435 c 0x6a
 443 435 482 391 482 292 c 2
 482 51 l 2
 482 38 486 32 495 32 c 2
 528 34 l 1
 528 0 l 1x5a
237 -229 m 1xdc
 262 -214 285 -188 285 -170 c 0
 285 -147 271 -141 257 -141 c 0
 231 -141 216 -117 216 -92 c 0
 216 -64 235 -34 279 -34 c 0
 328 -34 358 -72 358 -111 c 0
 358 -175 309 -226 259 -251 c 1
 237 -229 l 1xdc
EndSplineSet
EndChar

StartChar: ntilde
Encoding: 241 241 168
Width: 539
Flags: MW
HStem: 0 32<53 53 205.5 210 490.5 495> 388 47<315 325.5> 393 32 530 61<338 366.5 338 375.5> 570 60<182.5 211>
VStem: 66 131<51 198 334 374 374 379.5> 131 28<531 543 531 559.5> 351 131<51 292> 390 27<617.5 629>
LayerCount: 2
Fore
SplineSet
131 531 m 1xab
 131 588 151 630 195 630 c 0xab
 243 630 319 591 357 591 c 0
 376 591 390 606 390 629 c 1
 417 629 l 1
 417 572 398 530 353 530 c 0xb480
 304 530 230 570 192 570 c 0
 173 570 159 555 159 531 c 1
 131 531 l 1xab
528 0 m 1xcd
 300 0 l 1
 300 34 l 1
 338 32 l 1
 347 34 351 40 351 51 c 2
 351 293 l 2
 351 354 347 388 304 388 c 0xcd
 253 388 198 323 197 198 c 1
 197 51 l 2
 197 38 201 32 210 32 c 2
 249 34 l 1
 249 0 l 1
 20 0 l 1
 20 34 l 1
 53 32 l 1
 62 34 66 40 66 51 c 2
 66 374 l 2
 66 385 62 392 53 394 c 1
 20 392 l 1
 20 425 l 1
 202 425 l 1
 199 416 197 405 197 390 c 2xad
 197 334 l 1
 225 396 278 435 352 435 c 0
 443 435 482 391 482 292 c 2
 482 51 l 2
 482 38 486 32 495 32 c 2
 528 34 l 1
 528 0 l 1xcd
EndSplineSet
EndChar

StartChar: o
Encoding: 111 111 169
Width: 487
Flags: MW
HStem: -10 35<214.5 274 214.5 320.5> 401 34<214.5 274>
VStem: 20 140<143 281 143 284> 327 140<143 281>
LayerCount: 2
Fore
SplineSet
20 213 m 0
 20 355 93 435 244 435 c 0
 397 435 467 355 467 213 c 0
 467 69 397 -10 244 -10 c 0
 93 -10 20 69 20 213 c 0
160 211 m 0
 160 75 185 25 244 25 c 0
 304 25 327 75 327 211 c 0
 327 351 304 401 244 401 c 0
 185 401 160 351 160 211 c 0
EndSplineSet
Substitution2: "Single Substitution lookup 17 subtable" ordmasculine
Substitution2: "'aalt' Access All Alternates lookup 0 subtable" ordmasculine
Position2: "Single Positioning lookup 4 subtable" dx=0 dy=0 dh=-40 dv=0
EndChar

StartChar: oacute
Encoding: 243 243 170
Width: 487
Flags: MW
HStem: -10 35<214.5 274 214.5 320.5> 401 34<214.5 274>
VStem: 20 140<143 281 143 284> 327 140<143 281>
LayerCount: 2
Fore
SplineSet
288 633 m 2
 305 652 309 658 324 658 c 0
 348 658 392 635 392 621 c 0
 392 614 387 609 379 603 c 2
 212 501 l 2
 206 497 196 492 188 492 c 0
 181 492 177 496 177 502 c 0
 177 510 182 517 193 529 c 2
 288 633 l 2
20 213 m 0
 20 355 93 435 244 435 c 0
 397 435 467 355 467 213 c 0
 467 69 397 -10 244 -10 c 0
 93 -10 20 69 20 213 c 0
160 211 m 0
 160 75 185 25 244 25 c 0
 304 25 327 75 327 211 c 0
 327 351 304 401 244 401 c 0
 185 401 160 351 160 211 c 0
EndSplineSet
EndChar

StartChar: ocircumflex
Encoding: 244 244 171
Width: 487
Flags: MW
HStem: -10 35<214.5 274 214.5 320.5> 401 34<214.5 274> 576 60<211 244>
VStem: 20 140<143 281 143 284> 327 140<143 281>
LayerCount: 2
Fore
SplineSet
324 588 m 1
 365 542 400 516 400 506 c 0
 400 503 398 498 388 498 c 0
 376 498 363 505 355 510 c 2
 244 576 l 1
 132 510 l 2
 124 505 111 498 99 498 c 0
 90 498 88 503 88 506 c 0
 88 516 123 542 164 588 c 1
 187 612 l 1
 211 636 l 2
 222 648 234 654 244 654 c 0
 254 654 265 648 277 636 c 2
 301 612 l 1
 324 588 l 1
20 213 m 0
 20 355 93 435 244 435 c 0
 397 435 467 355 467 213 c 0
 467 69 397 -10 244 -10 c 0
 93 -10 20 69 20 213 c 0
160 211 m 0
 160 75 185 25 244 25 c 0
 304 25 327 75 327 211 c 0
 327 351 304 401 244 401 c 0
 185 401 160 351 160 211 c 0
EndSplineSet
EndChar

StartChar: odieresis
Encoding: 246 246 172
Width: 487
Flags: MW
HStem: -10 35<214.5 274 214.5 320.5> 401 34<214.5 274> 537 126<115.5 160 115.5 160.5 326.5 371>
VStem: 20 140<143 281 143 284> 61 154<580.5 619> 272 154<580.5 619> 327 140<143 281>
LayerCount: 2
Fore
SplineSet
61 600 m 0xec
 61 638 93 663 138 663 c 0
 182 663 215 638 215 600 c 0
 215 561 183 537 138 537 c 0
 93 537 61 561 61 600 c 0xec
272 600 m 0
 272 638 304 663 349 663 c 0
 393 663 426 638 426 600 c 0
 426 561 394 537 349 537 c 0
 304 537 272 561 272 600 c 0
20 213 m 0xd2
 20 355 93 435 244 435 c 0
 397 435 467 355 467 213 c 0
 467 69 397 -10 244 -10 c 0
 93 -10 20 69 20 213 c 0xd2
160 211 m 0
 160 75 185 25 244 25 c 0
 304 25 327 75 327 211 c 0
 327 351 304 401 244 401 c 0
 185 401 160 351 160 211 c 0
EndSplineSet
EndChar

StartChar: ograve
Encoding: 242 242 173
Width: 487
Flags: MW
HStem: -10 35<214.5 274 214.5 320.5> 401 34<214.5 274>
VStem: 20 140<143 281 143 284> 327 140<143 281>
LayerCount: 2
Fore
SplineSet
200 633 m 2
 183 652 179 658 164 658 c 0
 140 658 96 635 96 621 c 0
 96 614 101 609 109 603 c 2
 276 501 l 2
 282 497 292 492 300 492 c 0
 307 492 311 496 311 502 c 0
 311 510 306 517 295 529 c 2
 200 633 l 2
20 213 m 0
 20 355 93 435 244 435 c 0
 397 435 467 355 467 213 c 0
 467 69 397 -10 244 -10 c 0
 93 -10 20 69 20 213 c 0
160 211 m 0
 160 75 185 25 244 25 c 0
 304 25 327 75 327 211 c 0
 327 351 304 401 244 401 c 0
 185 401 160 351 160 211 c 0
EndSplineSet
EndChar

StartChar: ohungarumlaut
Encoding: 337 337 174
Width: 487
Flags: MW
HStem: -10 35<214.5 274 214.5 320.5> 401 34<214.5 274>
VStem: 20 140<143 281 143 284> 327 140<143 281>
LayerCount: 2
Fore
SplineSet
133 517 m 0
 191 624 201 643 206 649 c 0
 212 657 214 658 219 658 c 0
 229 658 266 646 277 642 c 0
 282 640 286 636 286 630 c 0
 286 627 284 623 280 618 c 0
 272 609 256 594 165 509 c 0
 154 499 147 497 141 497 c 0
 133 497 130 502 130 506 c 0
 130 510 131 513 133 517 c 0
261 517 m 0
 319 624 329 643 333 649 c 0
 339 657 341 658 346 658 c 0
 356 658 394 646 405 642 c 0
 410 640 414 636 414 630 c 0
 414 627 412 623 408 618 c 0
 399 609 383 594 292 509 c 0
 281 499 275 497 268 497 c 0
 261 497 258 502 258 506 c 0
 258 510 259 513 261 517 c 0
20 213 m 0
 20 355 93 435 244 435 c 0
 397 435 467 355 467 213 c 0
 467 69 397 -10 244 -10 c 0
 93 -10 20 69 20 213 c 0
160 211 m 0
 160 75 185 25 244 25 c 0
 304 25 327 75 327 211 c 0
 327 351 304 401 244 401 c 0
 185 401 160 351 160 211 c 0
EndSplineSet
EndChar

StartChar: omacron
Encoding: 333 333 175
Width: 487
Flags: MW
HStem: -10 35<214.5 274 214.5 320.5> 401 34<214.5 274> 565 47<124 363 124 363>
VStem: 20 140<143 281 143 284> 124 239<565 612 565 612> 327 140<143 281>
LayerCount: 2
Fore
SplineSet
124 612 m 1xe8
 363 612 l 1
 363 565 l 1
 124 565 l 1
 124 612 l 1xe8
20 213 m 0xf4
 20 355 93 435 244 435 c 0
 397 435 467 355 467 213 c 0
 467 69 397 -10 244 -10 c 0
 93 -10 20 69 20 213 c 0xf4
160 211 m 0
 160 75 185 25 244 25 c 0
 304 25 327 75 327 211 c 0
 327 351 304 401 244 401 c 0
 185 401 160 351 160 211 c 0
EndSplineSet
EndChar

StartChar: oslash
Encoding: 248 248 176
Width: 487
Flags: MW
HStem: -10 35<232 274 232 320.5> 401 34<214.5 258>
VStem: 20 140<192 281 192 284> 327 140<143 227.5>
LayerCount: 2
Fore
SplineSet
382 402 m 1
 440 366 467 301 467 213 c 0
 467 69 397 -10 244 -10 c 0
 212 -10 184 -7 159 0 c 1
 110 -88 l 1
 64 -65 l 1
 111 20 l 1
 50 55 20 121 20 213 c 0
 20 355 93 435 244 435 c 0
 279 435 310 431 337 422 c 1
 384 507 l 1
 426 480 l 1
 382 402 l 1
305 365 m 1
 291 390 272 401 244 401 c 0
 185 401 160 351 160 211 c 0
 160 173 162 142 166 117 c 1
 305 365 l 1
188 52 m 1
 201 33 220 25 244 25 c 0
 304 25 327 75 327 211 c 0
 327 244 326 272 323 295 c 1
 188 52 l 1
EndSplineSet
EndChar

StartChar: otilde
Encoding: 245 245 177
Width: 487
Flags: MW
HStem: -10 35<214.5 274 214.5 320.5> 401 34<214.5 274> 530 61<308 336.5 308 345.5> 570 60<152.5 181>
VStem: 20 140<143 281 143 284> 101 28<531 543 531 559.5> 327 140<143 281> 360 27<617.5 629>
LayerCount: 2
Fore
SplineSet
101 531 m 1xd6
 101 588 121 630 165 630 c 0xd6
 213 630 289 591 327 591 c 0
 346 591 360 606 360 629 c 1
 387 629 l 1
 387 572 368 530 323 530 c 0xe9
 274 530 200 570 162 570 c 0
 143 570 129 555 129 531 c 1
 101 531 l 1xd6
20 213 m 0xda
 20 355 93 435 244 435 c 0
 397 435 467 355 467 213 c 0
 467 69 397 -10 244 -10 c 0
 93 -10 20 69 20 213 c 0xda
160 211 m 0
 160 75 185 25 244 25 c 0
 304 25 327 75 327 211 c 0
 327 351 304 401 244 401 c 0
 185 401 160 351 160 211 c 0
EndSplineSet
EndChar

StartChar: oe
Encoding: 339 339 178
Width: 768
Flags: MW
HStem: -10 35<212.5 274.5 212.5 276> -10 41<544.5 599.5> 210 32<459 596 596 601.5 459 748 458 596> 401 34<213 272.5 514 569>
VStem: 20 140<145.5 280 145.5 281> 327 131<152.5 210 152.5 282.5> 614 134<210 315>
LayerCount: 2
Fore
SplineSet
744 93 m 1x7e
 714 29 648 -10 551 -10 c 0x7e
 484 -10 433 6 394 41 c 1
 356 5 310 -10 242 -10 c 0xbe
 94 -10 20 70 20 211 c 0
 20 351 89 435 241 435 c 0
 309 435 359 418 394 384 c 1
 432 419 480 435 547 435 c 0
 667 435 748 369 748 244 c 2
 748 210 l 1
 458 210 l 1
 458 95 502 31 587 31 c 0
 652 31 700 73 717 112 c 1
 744 93 l 1x7e
241 401 m 0
 185 401 160 350 160 210 c 0
 160 81 183 25 242 25 c 0xbe
 307 25 327 77 327 211 c 0
 327 354 304 401 241 401 c 0
596 242 m 2
 607 242 614 249 614 271 c 0
 614 359 595 401 543 401 c 0
 485 401 459 336 459 242 c 1
 596 242 l 2
EndSplineSet
EndChar

StartChar: p
Encoding: 112 112 179
Width: 521
Flags: MW
HStem: -239 31<49 49 200.5 206 20 49> -10 46<279.5 310.5 254 372.5> 390 45<287 315> 394 31<49 54.5>
VStem: 62 131<-188 39 349 374> 358 139<145 278>
LayerCount: 2
Fore
SplineSet
193 349 m 1xdc
 212 401 249 435 325 435 c 0xec
 442 435 497 362 497 211 c 0
 497 65 438 -10 307 -10 c 0
 252 -10 212 8 193 39 c 1
 193 -188 l 2
 193 -196 195 -208 206 -208 c 2
 268 -206 l 1
 268 -239 l 1
 20 -239 l 1
 20 -206 l 1
 49 -208 l 1
 58 -207 62 -201 62 -188 c 2
 62 374 l 2
 62 383 60 394 49 394 c 2
 16 392 l 1
 16 425 l 1
 197 425 l 1
 194 406 193 387 193 374 c 2
 193 349 l 1xdc
195 186 m 2
 195 79 227 36 281 36 c 0
 340 36 358 79 358 211 c 0
 358 345 343 390 287 390 c 0xec
 228 390 195 325 195 229 c 2
 195 186 l 2
EndSplineSet
Position2: "Single Positioning lookup 4 subtable" dx=0 dy=0 dh=-40 dv=0
EndChar

StartChar: thorn
Encoding: 254 254 180
Width: 520
Flags: MW
HStem: -239 31<49 49 200 206 20 49> -10 46<279.5 309.5 253.5 372.5> 384 46<286.5 314.5> 699 32
VStem: 62 131<-188 39 344 679 679 685> 357 140<143.5 274.5>
LayerCount: 2
Fore
SplineSet
193 344 m 1
 212 396 248 430 325 430 c 0
 442 430 497 358 497 209 c 0
 497 64 438 -10 307 -10 c 0
 252 -10 212 8 193 39 c 1
 193 -188 l 2
 193 -196 194 -208 206 -208 c 2
 268 -206 l 1
 268 -239 l 1
 20 -239 l 1
 20 -206 l 1
 49 -208 l 1
 58 -207 62 -201 62 -188 c 2
 62 679 l 2
 62 691 58 698 49 700 c 1
 16 698 l 1
 16 731 l 1
 193 731 l 1
 193 344 l 1
195 184 m 2
 195 78 227 36 280 36 c 0
 339 36 357 78 357 209 c 0
 357 340 343 384 286 384 c 0
 228 384 195 320 195 226 c 2
 195 184 l 2
EndSplineSet
EndChar

StartChar: q
Encoding: 113 113 181
Width: 513
Flags: MW
HStem: -239 32<259 315 259 500 259 315> -10 46<213 236.5> 390 45<211 234 146.5 275> 405 20G<388 459 459 459>
VStem: 24 140<147.5 279 147.5 284.5> 328 131<-188 62 62 62>
LayerCount: 2
Fore
SplineSet
328 62 m 1xec
 315 30 274 -10 199 -10 c 0
 87 -10 24 63 24 212 c 0
 24 357 86 435 207 435 c 0
 261 435 301 420 330 380 c 0
 333 376 338 366 353 366 c 0xec
 371 366 388 379 388 425 c 1
 459 425 l 1xdc
 459 -188 l 2
 459 -201 463 -208 472 -206 c 1
 500 -206 l 1
 500 -239 l 1
 259 -239 l 1
 259 -207 l 1
 315 -207 l 1
 324 -206 328 -200 328 -188 c 2
 328 62 l 1xec
326 231 m 2
 326 307 310 390 240 390 c 0
 182 390 164 339 164 219 c 0
 164 76 188 36 238 36 c 0
 306 36 326 129 326 187 c 2
 326 231 l 2
EndSplineSet
Position2: "Single Positioning lookup 4 subtable" dx=0 dy=0 dh=-40 dv=0
EndChar

StartChar: r
Encoding: 114 114 182
Width: 419
Flags: MW
HStem: 0 32<53 57.5 205.5 210 25 57.5> 389 46<290 294.5> 394 31<53 57.5>
VStem: 66 131<51 201 333 374 374 379> 299 114<324 333.5>
LayerCount: 2
Fore
SplineSet
197 333 m 1xb0
 223 407 265 435 315 435 c 0
 371 435 413 399 413 345 c 0
 413 303 384 285 353 285 c 0
 328 285 299 297 299 326 c 0
 299 341 306 352 306 367 c 0
 306 377 302 389 287 389 c 0xd8
 231 389 198 278 197 201 c 1
 197 51 l 2
 197 38 201 32 210 32 c 2
 279 34 l 1
 279 0 l 1
 25 0 l 1
 25 34 l 1
 53 32 l 2
 62 32 66 38 66 51 c 2
 66 374 l 2
 66 387 62 394 53 394 c 2
 21 392 l 1
 21 425 l 1
 203 425 l 1
 200 417 197 395 197 379 c 2
 197 333 l 1xb0
EndSplineSet
Position2: "Single Positioning lookup 4 subtable" dx=0 dy=0 dh=-40 dv=0
EndChar

StartChar: racute
Encoding: 341 341 183
Width: 419
Flags: MW
HStem: 0 32<53 57.5 205.5 210 25 57.5> 389 46<290 294.5> 394 31<53 57.5>
VStem: 66 131<51 201 333 374 374 379> 299 114<324 333.5>
LayerCount: 2
Fore
SplineSet
185 633 m 2xb0
 202 652 206 658 221 658 c 0
 245 658 289 635 289 621 c 0
 289 614 284 609 276 603 c 2
 109 501 l 2
 103 497 93 492 85 492 c 0
 78 492 74 496 74 502 c 0
 74 510 79 517 90 529 c 2
 185 633 l 2xb0
197 333 m 1
 223 407 265 435 315 435 c 0
 371 435 413 399 413 345 c 0
 413 303 384 285 353 285 c 0
 328 285 299 297 299 326 c 0
 299 341 306 352 306 367 c 0
 306 377 302 389 287 389 c 0xd8
 231 389 198 278 197 201 c 1
 197 51 l 2
 197 38 201 32 210 32 c 2
 279 34 l 1
 279 0 l 1
 25 0 l 1
 25 34 l 1
 53 32 l 2
 62 32 66 38 66 51 c 2
 66 374 l 2
 66 387 62 394 53 394 c 2
 21 392 l 1
 21 425 l 1
 203 425 l 1
 200 417 197 395 197 379 c 2
 197 333 l 1
EndSplineSet
EndChar

StartChar: rcaron
Encoding: 345 345 184
Width: 419
Flags: MW
HStem: 0 32<53 57.5 205.5 210 25 57.5> 389 46<290 294.5> 394 31<53 57.5> 524 60<108 141 141 174>
VStem: 66 131<51 201 333 374 374 379> 299 114<324 333.5>
LayerCount: 2
Fore
SplineSet
61 572 m 1xb8
 20 618 -15 644 -15 654 c 0
 -15 657 -13 662 -3 662 c 0
 9 662 22 655 30 650 c 2
 141 584 l 1
 253 650 l 2
 261 655 274 662 286 662 c 0
 295 662 297 657 297 654 c 0
 297 644 262 618 221 572 c 1
 198 548 l 1
 174 524 l 2
 163 512 151 506 141 506 c 0
 131 506 120 512 108 524 c 2
 84 548 l 1
 61 572 l 1xb8
197 333 m 1
 223 407 265 435 315 435 c 0
 371 435 413 399 413 345 c 0
 413 303 384 285 353 285 c 0
 328 285 299 297 299 326 c 0
 299 341 306 352 306 367 c 0
 306 377 302 389 287 389 c 0xdc
 231 389 198 278 197 201 c 1
 197 51 l 2
 197 38 201 32 210 32 c 2
 279 34 l 1
 279 0 l 1
 25 0 l 1
 25 34 l 1
 53 32 l 2
 62 32 66 38 66 51 c 2
 66 374 l 2
 66 387 62 394 53 394 c 2
 21 392 l 1
 21 425 l 1
 203 425 l 1
 200 417 197 395 197 379 c 2
 197 333 l 1
EndSplineSet
EndChar

StartChar: rcommaaccent
Encoding: 343 343 185
Width: 419
Flags: MW
HStem: -141 107<125 132> 0 32<53 57.5 205.5 210 25 57.5> 389 46<290 294.5> 394 31<53 57.5>
VStem: 66 131<51 201 333 374 374 379> 153 73<-179 -91.5> 299 114<324 333.5>
LayerCount: 2
Fore
SplineSet
197 333 m 1x58
 223 407 265 435 315 435 c 0
 371 435 413 399 413 345 c 0
 413 303 384 285 353 285 c 0
 328 285 299 297 299 326 c 0
 299 341 306 352 306 367 c 0
 306 377 302 389 287 389 c 0x6a
 231 389 198 278 197 201 c 1
 197 51 l 2
 197 38 201 32 210 32 c 2
 279 34 l 1
 279 0 l 1
 25 0 l 1
 25 34 l 1
 53 32 l 2
 62 32 66 38 66 51 c 2
 66 374 l 2
 66 387 62 394 53 394 c 2
 21 392 l 1
 21 425 l 1
 203 425 l 1
 200 417 197 395 197 379 c 2
 197 333 l 1x58
105 -229 m 1xd4
 130 -214 153 -188 153 -170 c 0
 153 -147 139 -141 125 -141 c 0
 99 -141 84 -117 84 -92 c 0
 84 -64 103 -34 147 -34 c 0
 196 -34 226 -72 226 -111 c 0
 226 -175 177 -226 127 -251 c 1
 105 -229 l 1xd4
EndSplineSet
EndChar

StartChar: s
Encoding: 115 115 186
Width: 415
Flags: MW
HStem: -10 35<198 241 180 265> 16 127 307 106<330 340.5 318 360 330 330> 401 34<192 234.5 153 251>
VStem: 37.5 36.5 42 103<334.5 336.5> 291 98<91.5 99> 330 33
LayerCount: 2
Fore
SplineSet
40 142 m 1x59
 74 144 l 1x99
 74 74 141 25 219 25 c 0
 263 25 291 47 291 84 c 0
 291 114 275 131 227 143 c 1
 155 163 l 2
 76 185 42 229 42 296 c 0
 42 377 100 435 206 435 c 0x96
 263 435 300 413 336 413 c 0
 345 413 357 416 366 421 c 1
 360 307 l 1xa9
 330 307 l 1x99
 330 354 289 401 213 401 c 0
 171 401 145 377 145 347 c 0
 145 322 164 303 200 294 c 2
 269 276 l 2
 367 251 389 202 389 140 c 0
 389 43 316 -10 214 -10 c 0x96
 182 -10 158 -5 94 12 c 0
 82 15 73 16 66 16 c 0
 52 16 41 14 35 10 c 1
 40 142 l 1x59
EndSplineSet
Position2: "Single Positioning lookup 4 subtable" dx=0 dy=0 dh=-40 dv=0
EndChar

StartChar: sacute
Encoding: 347 347 187
Width: 415
Flags: MW
HStem: -10 35<198 241 180 265> 16 127 307 106<330 340.5 318 360 330 330> 401 34<192 234.5 153 251>
VStem: 37.5 36.5 42 103<334.5 336.5> 291 98<91.5 99> 330 33
LayerCount: 2
Fore
SplineSet
263 633 m 2x99
 280 652 284 658 299 658 c 0
 323 658 367 635 367 621 c 0
 367 614 362 609 354 603 c 2
 187 501 l 2
 181 497 171 492 163 492 c 0
 156 492 152 496 152 502 c 0
 152 510 157 517 168 529 c 2
 263 633 l 2x99
74 144 m 1
 74 74 141 25 219 25 c 0
 263 25 291 47 291 84 c 0
 291 114 275 131 227 143 c 1
 155 163 l 2
 76 185 42 229 42 296 c 0
 42 377 100 435 206 435 c 0x96
 263 435 300 413 336 413 c 0
 345 413 357 416 366 421 c 1
 360 307 l 1xa9
 330 307 l 1x99
 330 354 289 401 213 401 c 0
 171 401 145 377 145 347 c 0
 145 322 164 303 200 294 c 2
 269 276 l 2
 367 251 389 202 389 140 c 0
 389 43 316 -10 214 -10 c 0x96
 182 -10 158 -5 94 12 c 0
 82 15 73 16 66 16 c 0
 52 16 41 14 35 10 c 1
 40 142 l 1x59
 74 144 l 1
EndSplineSet
EndChar

StartChar: scaron
Encoding: 353 353 188
Width: 415
Flags: MW
HStem: -10 35<198 241 180 265> 16 127 307 106<330 340.5 318 360 330 330> 401 34<192 234.5 153 251> 524 60<186 219 219 252>
VStem: 37.5 36.5 42 103<334.5 336.5> 291 98<91.5 99> 330 33
LayerCount: 2
Fore
SplineSet
139 572 m 1x9c80
 98 618 63 644 63 654 c 0
 63 657 65 662 75 662 c 0
 87 662 100 655 108 650 c 2
 219 584 l 1
 331 650 l 2
 339 655 352 662 364 662 c 0
 373 662 375 657 375 654 c 0
 375 644 340 618 299 572 c 1
 276 548 l 1
 252 524 l 2
 241 512 229 506 219 506 c 0
 209 506 198 512 186 524 c 2
 162 548 l 1
 139 572 l 1x9c80
74 144 m 1
 74 74 141 25 219 25 c 0
 263 25 291 47 291 84 c 0
 291 114 275 131 227 143 c 1
 155 163 l 2
 76 185 42 229 42 296 c 0
 42 377 100 435 206 435 c 0x9b
 263 435 300 413 336 413 c 0
 345 413 357 416 366 421 c 1
 360 307 l 1xac80
 330 307 l 1x9c80
 330 354 289 401 213 401 c 0
 171 401 145 377 145 347 c 0
 145 322 164 303 200 294 c 2
 269 276 l 2
 367 251 389 202 389 140 c 0
 389 43 316 -10 214 -10 c 0x9b
 182 -10 158 -5 94 12 c 0
 82 15 73 16 66 16 c 0
 52 16 41 14 35 10 c 1
 40 142 l 1x5c80
 74 144 l 1
EndSplineSet
EndChar

StartChar: scedilla
Encoding: 351 351 189
Width: 415
Flags: MW
HStem: -214 35<168.5 223.5> -9 34<198 198 240 240> 16 127 307 106<330 340.5 318 360 330 330> 401 34<192 234.5 153 251>
VStem: 37.5 36.5 42 103<334.5 336.5> 158 59<-67.5 -62.5> 226 87<-145 -124.5> 291 98<95.5 99> 330 33
LayerCount: 2
Fore
SplineSet
223 -36 m 2xcd20
 219 -43 217 -50 217 -55 c 0xcd20
 217 -81 313 -60 313 -122 c 0
 313 -186 250 -214 197 -214 c 0
 180 -214 151 -213 128 -198 c 1
 141 -166 l 1
 149 -175 161 -179 176 -179 c 0
 201 -179 226 -157 226 -133 c 0
 226 -116 209 -103 192 -94 c 1xcda0
 169 -80 l 2
 162 -75 158 -70 158 -65 c 0
 158 -60 160 -56 164 -52 c 2
 198 -9 l 1xcd20
 172 -8 147 -2 94 12 c 0
 82 15 73 16 66 16 c 0
 52 16 41 14 35 10 c 1
 40 142 l 1xad20
 74 144 l 1xcd20
 74 74 141 25 219 25 c 0
 263 25 291 47 291 84 c 0
 291 114 275 131 227 143 c 1
 155 163 l 2
 76 185 42 229 42 296 c 0
 42 377 100 435 206 435 c 0xcb40
 263 435 300 413 336 413 c 0
 345 413 357 416 366 421 c 1
 360 307 l 1xd520
 330 307 l 1xcd20
 330 354 289 401 213 401 c 0
 171 401 145 377 145 347 c 0
 145 322 164 303 200 294 c 2
 269 276 l 2
 367 251 389 202 389 140 c 0xcb40
 389 51 328 -1 240 -9 c 1
 223 -36 l 2xcd20
EndSplineSet
EndChar

StartChar: scommaaccent
Encoding: 537 537 190
Width: 415
Flags: MW
HStem: -141 107<203 210> -10 35<198 241 180 265> 16 127 307 106<330 340.5 318 360 330 330> 401 34<192 234.5 153 251>
VStem: 37.5 36.5 42 103<334.5 336.5> 231 73<-179 -91.5> 291 98<91.5 99> 330 33
LayerCount: 2
Fore
SplineSet
74 144 m 1x4c40
 74 74 141 25 219 25 c 0
 263 25 291 47 291 84 c 0
 291 114 275 131 227 143 c 1
 155 163 l 2
 76 185 42 229 42 296 c 0
 42 377 100 435 206 435 c 0x4a80
 263 435 300 413 336 413 c 0
 345 413 357 416 366 421 c 1
 360 307 l 1x5440
 330 307 l 1x4c40
 330 354 289 401 213 401 c 0
 171 401 145 377 145 347 c 0
 145 322 164 303 200 294 c 2
 269 276 l 2
 367 251 389 202 389 140 c 0
 389 43 316 -10 214 -10 c 0x4a80
 182 -10 158 -5 94 12 c 0
 82 15 73 16 66 16 c 0
 52 16 41 14 35 10 c 1
 40 142 l 1x2c40
 74 144 l 1x4c40
183 -229 m 1xcd40
 208 -214 231 -188 231 -170 c 0
 231 -147 217 -141 203 -141 c 0
 177 -141 162 -117 162 -92 c 0
 162 -64 181 -34 225 -34 c 0
 274 -34 304 -72 304 -111 c 0
 304 -175 255 -226 205 -251 c 1
 183 -229 l 1xcd40
EndSplineSet
EndChar

StartChar: germandbls
Encoding: 223 223 191
Width: 563
Flags: MW
HStem: -8 29<368 392 368 428.5> 0 27<53 57 205.5 210> 705 32<238 291.5>
VStem: 65 131<48 434> 241 101<343.5 432.5> 254 108<71.5 82> 348 124<584.5 624.5> 431 124<87 113.5>
LayerCount: 2
Fore
SplineSet
65 512 m 2x72
 65 671 139 737 281 737 c 0
 401 737 472 695 472 619 c 0x72
 472 550 411 515 374 481 c 0
 355 464 342 445 342 420 c 0
 342 386 372 357 420 316 c 2x79
 490 256 l 2
 533 220 555 179 555 132 c 0
 555 42 479 -8 378 -8 c 0
 301 -8 254 18 254 65 c 0
 254 99 277 121 314 121 c 0
 350 121 362 100 362 79 c 0
 362 64 356 51 356 39 c 0xb5
 356 31 359 21 377 21 c 0
 407 21 431 44 431 92 c 0
 431 135 410 174 371 207 c 1
 308 258 l 2
 266 292 241 324 241 363 c 0xb9
 241 416 278 439 314 487 c 0
 335 515 348 546 348 590 c 0
 348 659 319 705 264 705 c 0
 212 705 181 663 181 603 c 0
 181 564 196 484 196 434 c 2
 196 48 l 2
 196 37 201 27 210 27 c 2
 245 29 l 1
 245 0 l 1
 20 0 l 1
 20 29 l 1
 53 27 l 2
 61 27 65 37 65 48 c 2
 65 512 l 2x72
EndSplineSet
EndChar

StartChar: t
Encoding: 116 116 192
Width: 325
Flags: MW
HStem: -9 37<226.5 227.5> 393 32<10 47.5 10 70 10 47.5 201 300>
VStem: 70 131<89 393>
LayerCount: 2
Fore
SplineSet
201 425 m 1
 300 425 l 1
 300 393 l 1
 201 393 l 1
 201 87 l 2
 201 38 215 28 238 28 c 0
 253 28 274 41 284 67 c 1
 311 52 l 1
 293 7 254 -9 201 -9 c 0
 125 -9 70 17 70 89 c 2
 70 393 l 1
 10 393 l 1
 10 425 l 1
 85 425 107 439 128 527 c 1
 201 527 l 1
 201 425 l 1
EndSplineSet
Position2: "Single Positioning lookup 4 subtable" dx=0 dy=0 dh=-40 dv=0
EndChar

StartChar: tcaron
Encoding: 357 357 193
Width: 325
Flags: MW
HStem: -9 37<226.5 227.5> 393 32<10 47.5 10 70 10 47.5 201 300> 534 97<250.5 306>
VStem: 70 131<89 393> 283 73<503 581.5>
LayerCount: 2
Fore
SplineSet
246 461 m 1
 264 473 283 493 283 513 c 0
 283 529 273 534 262 534 c 0
 239 534 224 551 224 576 c 0
 224 610 251 631 286 631 c 0
 326 631 356 602 356 561 c 0
 356 507 310 460 267 439 c 1
 246 461 l 1
300 425 m 1
 300 393 l 1
 201 393 l 1
 201 87 l 2
 201 38 215 28 238 28 c 0
 253 28 274 41 284 67 c 1
 311 52 l 1
 293 7 254 -9 201 -9 c 0
 125 -9 70 17 70 89 c 2
 70 393 l 1
 10 393 l 1
 10 425 l 1
 85 425 107 439 128 527 c 1
 201 527 l 1
 201 425 l 1
 300 425 l 1
EndSplineSet
EndChar

StartChar: tcedilla
Encoding: 355 355 194
Width: 325
Flags: MW
HStem: -214 35<114.5 169.5> -24 20G<148 148> -9 37<186 245.5> 393 32<10 47.5 10 70 10 47.5 201 300>
VStem: 70 131<89 393> 104 59<-67.5 -62.5> 172 87<-145 -124.5>
LayerCount: 2
Fore
SplineSet
169 -36 m 2xb8
 165 -43 163 -50 163 -55 c 0xb8
 163 -81 259 -60 259 -122 c 0
 259 -186 196 -214 143 -214 c 0
 126 -214 97 -213 74 -198 c 1
 87 -166 l 1
 95 -175 107 -179 122 -179 c 0
 147 -179 172 -157 172 -133 c 0
 172 -116 155 -103 138 -94 c 1xd2
 115 -80 l 2
 108 -75 104 -70 104 -65 c 0
 104 -60 106 -56 110 -52 c 2xd4
 148 -4 l 1
 101 7 70 35 70 89 c 2xd8
 70 393 l 1
 10 393 l 1
 10 425 l 1
 85 425 107 439 128 527 c 1
 201 527 l 1
 201 425 l 1
 300 425 l 1
 300 393 l 1
 201 393 l 1
 201 87 l 2
 201 38 215 28 238 28 c 0
 253 28 274 41 284 67 c 1
 311 52 l 1
 293 7 254 -9 201 -9 c 2
 186 -9 l 1
 169 -36 l 2xb8
EndSplineSet
EndChar

StartChar: uni021B
Encoding: 539 539 195
Width: 325
Flags: MW
HStem: -141 107<149 156> -9 37<226.5 227.5> 393 32<10 47.5 10 70 10 47.5 201 300>
VStem: 70 131<89 393> 177 73<-179 -91.5>
LayerCount: 2
Fore
SplineSet
300 425 m 1x70
 300 393 l 1
 201 393 l 1
 201 87 l 2
 201 38 215 28 238 28 c 0
 253 28 274 41 284 67 c 1
 311 52 l 1
 293 7 254 -9 201 -9 c 0
 125 -9 70 17 70 89 c 2
 70 393 l 1
 10 393 l 1
 10 425 l 1
 85 425 107 439 128 527 c 1
 201 527 l 1
 201 425 l 1
 300 425 l 1x70
129 -229 m 1xe8
 154 -214 177 -188 177 -170 c 0
 177 -147 163 -141 149 -141 c 0
 123 -141 108 -117 108 -92 c 0
 108 -64 127 -34 171 -34 c 0
 220 -34 250 -72 250 -111 c 0
 250 -175 201 -226 151 -251 c 1
 129 -229 l 1xe8
EndSplineSet
EndChar

StartChar: u
Encoding: 117 117 196
Width: 532
Flags: MW
HStem: -10 47<212.5 219> 0 33 394 31<44 48.5 322 326>
VStem: 57 131<138 375 375 381.5> 334 132<45.5 51 51 89 89 89 220 374 374 381>
LayerCount: 2
Fore
SplineSet
512 34 m 1x78
 512 0 l 1
 329 0 l 1
 332 9 334 20 334 44 c 2x78
 334 89 l 1
 306 27 256 -10 182 -10 c 0
 95 -10 57 35 57 138 c 2
 57 375 l 2
 57 388 53 394 44 394 c 2
 11 392 l 1
 11 425 l 1
 188 425 l 1
 188 132 l 2
 188 71 193 37 232 37 c 0xb8
 279 37 332 99 334 220 c 1
 334 374 l 2
 334 388 330 394 322 394 c 2
 283 392 l 1
 283 425 l 1
 466 425 l 1
 466 51 l 2
 466 40 470 33 479 32 c 1
 512 34 l 1x78
EndSplineSet
Position2: "Single Positioning lookup 4 subtable" dx=0 dy=0 dh=-40 dv=0
EndChar

StartChar: uacute
Encoding: 250 250 197
Width: 532
Flags: MW
HStem: -10 47<212.5 219> 0 33 394 31<44 48.5 322 326>
VStem: 57 131<138 375 375 381.5> 334 132<45.5 51 51 89 89 89 220 374 374 381>
LayerCount: 2
Fore
SplineSet
299 633 m 2x78
 316 652 320 658 335 658 c 0
 359 658 403 635 403 621 c 0
 403 614 398 609 390 603 c 2
 223 501 l 2
 217 497 207 492 199 492 c 0
 192 492 188 496 188 502 c 0
 188 510 193 517 204 529 c 2
 299 633 l 2x78
512 0 m 1
 329 0 l 1
 332 9 334 20 334 44 c 2x78
 334 89 l 1
 306 27 256 -10 182 -10 c 0
 95 -10 57 35 57 138 c 2
 57 375 l 2
 57 388 53 394 44 394 c 2
 11 392 l 1
 11 425 l 1
 188 425 l 1
 188 132 l 2
 188 71 193 37 232 37 c 0xb8
 279 37 332 99 334 220 c 1
 334 374 l 2
 334 388 330 394 322 394 c 2
 283 392 l 1
 283 425 l 1
 466 425 l 1
 466 51 l 2
 466 40 470 33 479 32 c 1
 512 34 l 1
 512 0 l 1
EndSplineSet
EndChar

StartChar: ucircumflex
Encoding: 251 251 198
Width: 532
Flags: MW
HStem: -10 47<212.5 219> 0 33 394 31<44 48.5 322 326> 576 60<222 255>
VStem: 57 131<138 375 375 381.5> 334 132<45.5 51 51 89 89 89 220 374 374 381>
LayerCount: 2
Fore
SplineSet
335 588 m 1x7c
 376 542 411 516 411 506 c 0
 411 503 409 498 399 498 c 0
 387 498 374 505 366 510 c 2
 255 576 l 1
 143 510 l 2
 135 505 122 498 110 498 c 0
 101 498 99 503 99 506 c 0
 99 516 134 542 175 588 c 1
 198 612 l 1
 222 636 l 2
 233 648 245 654 255 654 c 0
 265 654 276 648 288 636 c 2
 312 612 l 1
 335 588 l 1x7c
512 0 m 1
 329 0 l 1
 332 9 334 20 334 44 c 2x7c
 334 89 l 1
 306 27 256 -10 182 -10 c 0
 95 -10 57 35 57 138 c 2
 57 375 l 2
 57 388 53 394 44 394 c 2
 11 392 l 1
 11 425 l 1
 188 425 l 1
 188 132 l 2
 188 71 193 37 232 37 c 0xbc
 279 37 332 99 334 220 c 1
 334 374 l 2
 334 388 330 394 322 394 c 2
 283 392 l 1
 283 425 l 1
 466 425 l 1
 466 51 l 2
 466 40 470 33 479 32 c 1
 512 34 l 1
 512 0 l 1
EndSplineSet
EndChar

StartChar: udieresis
Encoding: 252 252 199
Width: 532
Flags: MW
HStem: -10 47<212.5 219> 0 33 394 31<44 48.5 322 326> 537 126<127.5 172 127.5 172.5 337.5 382>
VStem: 57 131<138 375 375 381.5> 73 154<580.5 619> 283 154<580.5 619> 334 132<45.5 51 51 89 89 89 220 374 374 381>
LayerCount: 2
Fore
SplineSet
73 600 m 0x76
 73 638 105 663 150 663 c 0
 194 663 227 638 227 600 c 0
 227 561 195 537 150 537 c 0
 105 537 73 561 73 600 c 0x76
283 600 m 0
 283 638 315 663 360 663 c 0
 404 663 437 638 437 600 c 0
 437 561 405 537 360 537 c 0
 315 537 283 561 283 600 c 0
512 0 m 1x69
 329 0 l 1
 332 9 334 20 334 44 c 2x69
 334 89 l 1
 306 27 256 -10 182 -10 c 0
 95 -10 57 35 57 138 c 2
 57 375 l 2
 57 388 53 394 44 394 c 2
 11 392 l 1
 11 425 l 1
 188 425 l 1
 188 132 l 2
 188 71 193 37 232 37 c 0xa9
 279 37 332 99 334 220 c 1
 334 374 l 2
 334 388 330 394 322 394 c 2
 283 392 l 1
 283 425 l 1
 466 425 l 1
 466 51 l 2
 466 40 470 33 479 32 c 1
 512 34 l 1
 512 0 l 1x69
EndSplineSet
EndChar

StartChar: ugrave
Encoding: 249 249 200
Width: 532
Flags: MW
HStem: -10 47<212.5 219> 0 33 394 31<44 48.5 322 326>
VStem: 57 131<138 375 375 381.5> 334 132<45.5 51 51 89 89 89 220 374 374 381>
LayerCount: 2
Fore
SplineSet
211 633 m 2x78
 194 652 190 658 175 658 c 0
 151 658 107 635 107 621 c 0
 107 614 112 609 120 603 c 2
 287 501 l 2
 293 497 303 492 311 492 c 0
 318 492 322 496 322 502 c 0
 322 510 317 517 306 529 c 2
 211 633 l 2x78
512 0 m 1
 329 0 l 1
 332 9 334 20 334 44 c 2x78
 334 89 l 1
 306 27 256 -10 182 -10 c 0
 95 -10 57 35 57 138 c 2
 57 375 l 2
 57 388 53 394 44 394 c 2
 11 392 l 1
 11 425 l 1
 188 425 l 1
 188 132 l 2
 188 71 193 37 232 37 c 0xb8
 279 37 332 99 334 220 c 1
 334 374 l 2
 334 388 330 394 322 394 c 2
 283 392 l 1
 283 425 l 1
 466 425 l 1
 466 51 l 2
 466 40 470 33 479 32 c 1
 512 34 l 1
 512 0 l 1
EndSplineSet
EndChar

StartChar: uhungarumlaut
Encoding: 369 369 201
Width: 532
Flags: MW
HStem: -10 47<212.5 219> 0 33 394 31<44 48.5 322 326>
VStem: 57 131<138 375 375 381.5> 334 132<45.5 51 51 89 89 89 220 374 374 381>
LayerCount: 2
Fore
SplineSet
144 517 m 0x78
 202 624 212 643 217 649 c 0
 223 657 225 658 230 658 c 0
 240 658 277 646 288 642 c 0
 293 640 297 636 297 630 c 0
 297 627 295 623 291 618 c 0
 283 609 267 594 176 509 c 0
 165 499 158 497 152 497 c 0
 144 497 141 502 141 506 c 0
 141 510 142 513 144 517 c 0x78
272 517 m 0
 330 624 340 643 344 649 c 0
 350 657 352 658 357 658 c 0
 367 658 405 646 416 642 c 0
 421 640 425 636 425 630 c 0
 425 627 423 623 419 618 c 0
 410 609 394 594 303 509 c 0
 292 499 286 497 279 497 c 0
 272 497 269 502 269 506 c 0
 269 510 270 513 272 517 c 0
512 0 m 1
 329 0 l 1
 332 9 334 20 334 44 c 2x78
 334 89 l 1
 306 27 256 -10 182 -10 c 0
 95 -10 57 35 57 138 c 2
 57 375 l 2
 57 388 53 394 44 394 c 2
 11 392 l 1
 11 425 l 1
 188 425 l 1
 188 132 l 2
 188 71 193 37 232 37 c 0xb8
 279 37 332 99 334 220 c 1
 334 374 l 2
 334 388 330 394 322 394 c 2
 283 392 l 1
 283 425 l 1
 466 425 l 1
 466 51 l 2
 466 40 470 33 479 32 c 1
 512 34 l 1
 512 0 l 1
EndSplineSet
EndChar

StartChar: umacron
Encoding: 363 363 202
Width: 532
Flags: MW
HStem: -10 47<212.5 219> 0 33 394 31<44 48.5 322 326> 565 47<135 374 135 374>
VStem: 57 131<138 375 375 381.5> 135 239<565 612 565 612> 334 132<45.5 51 51 89 89 89 220 374 374 381>
LayerCount: 2
Fore
SplineSet
135 612 m 1x74
 374 612 l 1
 374 565 l 1
 135 565 l 1
 135 612 l 1x74
512 0 m 1x7a
 329 0 l 1
 332 9 334 20 334 44 c 2x7a
 334 89 l 1
 306 27 256 -10 182 -10 c 0
 95 -10 57 35 57 138 c 2
 57 375 l 2
 57 388 53 394 44 394 c 2
 11 392 l 1
 11 425 l 1
 188 425 l 1
 188 132 l 2
 188 71 193 37 232 37 c 0xba
 279 37 332 99 334 220 c 1
 334 374 l 2
 334 388 330 394 322 394 c 2
 283 392 l 1
 283 425 l 1
 466 425 l 1
 466 51 l 2
 466 40 470 33 479 32 c 1
 512 34 l 1
 512 0 l 1x7a
EndSplineSet
EndChar

StartChar: uogonek
Encoding: 371 371 203
Width: 532
Flags: MW
HStem: -162 58<457.5 460.5> -10 47<212.5 219> 0 33 394 31<44 48.5 322 326>
VStem: 57 131<138 375 375 381.5> 334 132<45.5 51 51 89 89 89 220 374 374 381> 358 67<-114 -46.5>
LayerCount: 2
Fore
SplineSet
557 -102 m 1xbc
 524 -140 482 -162 439 -162 c 0
 398 -162 358 -138 358 -90 c 0
 358 -56 376 -23 413 0 c 1xba
 329 0 l 1
 332 9 334 20 334 44 c 2xbc
 334 89 l 1
 306 27 256 -10 182 -10 c 0
 95 -10 57 35 57 138 c 2
 57 375 l 2
 57 388 53 394 44 394 c 2
 11 392 l 1
 11 425 l 1
 188 425 l 1
 188 132 l 2
 188 71 193 37 232 37 c 0xdc
 279 37 332 99 334 220 c 1
 334 374 l 2
 334 388 330 394 322 394 c 2
 283 392 l 1
 283 425 l 1
 466 425 l 1
 466 51 l 2
 466 40 470 33 479 32 c 1
 512 34 l 1
 512 0 l 1xbc
 451 0 l 1
 434 -14 425 -35 425 -58 c 0
 425 -83 440 -104 475 -104 c 0xba
 499 -104 523 -96 545 -83 c 1
 557 -102 l 1xbc
EndSplineSet
EndChar

StartChar: uring
Encoding: 367 367 204
Width: 532
Flags: MW
HStem: -10 47<212.5 219> 0 33 394 31<44 48.5 322 326> 497 41<242.5 265.5 242.5 279.5> 621 42<242.5 265.5>
VStem: 57 131<138 375 375 381.5> 167 50<567 592.5 567 603.5> 292 50<567 592.5> 334 132<45.5 51 51 89 89 89 220 374 374 381>
LayerCount: 2
Fore
SplineSet
167 580 m 0x7b
 167 627 205 663 254 663 c 0
 305 663 342 628 342 580 c 0
 342 532 305 497 254 497 c 0
 204 497 167 532 167 580 c 0x7b
217 580 m 0
 217 554 231 538 254 538 c 0
 277 538 292 554 292 580 c 0
 292 605 277 621 254 621 c 0
 231 621 217 605 217 580 c 0
512 0 m 1x7c80
 329 0 l 1
 332 9 334 20 334 44 c 2x7c80
 334 89 l 1
 306 27 256 -10 182 -10 c 0
 95 -10 57 35 57 138 c 2
 57 375 l 2
 57 388 53 394 44 394 c 2
 11 392 l 1
 11 425 l 1
 188 425 l 1
 188 132 l 2
 188 71 193 37 232 37 c 0xbc80
 279 37 332 99 334 220 c 1
 334 374 l 2
 334 388 330 394 322 394 c 2
 283 392 l 1
 283 425 l 1
 466 425 l 1
 466 51 l 2
 466 40 470 33 479 32 c 1
 512 34 l 1
 512 0 l 1x7c80
EndSplineSet
EndChar

StartChar: v
Encoding: 118 118 205
Width: 475
Flags: MW
HStem: 394 31<19 19 192.5 197 362 362 426.5 431.5 431 434>
VStem: 321 145<392 425 392 425>
LayerCount: 2
Fore
SplineSet
466 425 m 1
 466 392 l 1
 434 394 l 2
 433 394 432 394 431 394 c 0
 422 394 415 389 411 379 c 2
 254 -5 l 1
 193 -5 l 1
 39 381 l 2
 36 388 28 395 19 394 c 2
 -13 392 l 1
 -13 425 l 1
 238 425 l 1
 238 392 l 1
 197 394 l 2
 188 394 177 385 182 374 c 2
 278 143 l 1
 370 378 l 2
 371 380 372 383 372 386 c 0
 372 391 369 395 362 394 c 2
 321 392 l 1
 321 425 l 1
 466 425 l 1
EndSplineSet
Position2: "Single Positioning lookup 4 subtable" dx=0 dy=0 dh=-40 dv=0
EndChar

StartChar: w
Encoding: 119 119 206
Width: 742
Flags: MW
HStem: 394 31<29 33 188.5 195.5 195 197 624 624 692 696> 410 20G<386 434 434 434>
VStem: 571 162<392 425 392 425>
LayerCount: 2
Fore
SplineSet
733 425 m 1xa0
 733 392 l 1
 696 394 l 2
 688 394 680 389 675 377 c 2
 527 -10 l 1
 480 -10 l 1
 358 276 l 1
 231 -10 l 1
 187 -10 l 1
 46 381 l 2
 43 388 37 394 29 394 c 2
 -13 392 l 1
 -13 425 l 1
 241 425 l 1
 241 392 l 1
 197 394 l 2
 196 394 196 394 195 394 c 0
 182 394 178 384 182 374 c 2xa0
 264 144 l 1
 386 430 l 1
 434 430 l 1x60
 552 150 l 1
 635 377 l 2
 636 380 637 383 637 385 c 0
 637 391 634 395 624 394 c 2
 571 392 l 1
 571 425 l 1
 733 425 l 1xa0
EndSplineSet
Position2: "Single Positioning lookup 4 subtable" dx=0 dy=0 dh=-40 dv=0
EndChar

StartChar: wacute
Encoding: 7811 7811 207
Width: 742
Flags: MW
HStem: 394 31<29 33 188.5 195 195 197 624 624 692 696> 410 20G<386 434 434 434>
VStem: 571 162<392 425 392 425>
LayerCount: 2
Fore
SplineSet
453 633 m 2xa0
 470 652 474 658 489 658 c 0
 513 658 557 635 557 621 c 0
 557 614 552 609 544 603 c 2
 377 501 l 2
 371 497 361 492 353 492 c 0
 346 492 342 496 342 502 c 0
 342 510 347 517 358 529 c 2
 453 633 l 2xa0
733 392 m 1
 696 394 l 2
 688 394 680 389 675 377 c 2
 527 -10 l 1
 480 -10 l 1
 358 276 l 1
 231 -10 l 1
 187 -10 l 1
 46 381 l 2
 43 388 37 394 29 394 c 2
 -13 392 l 1
 -13 425 l 1
 241 425 l 1
 241 392 l 1
 197 394 l 1
 195 394 l 2
 182 394 178 384 182 374 c 2xa0
 264 144 l 1
 386 430 l 1
 434 430 l 1x60
 552 150 l 1
 635 377 l 2
 636 380 637 383 637 385 c 0
 637 391 634 395 624 394 c 2
 571 392 l 1
 571 425 l 1
 733 425 l 1
 733 392 l 1
EndSplineSet
EndChar

StartChar: wcircumflex
Encoding: 373 373 208
Width: 742
Flags: MW
HStem: 394 31<29 33 188.5 195 195 197 624 624 692 696> 410 20G<386 434 434 434> 576 60<376 409>
VStem: 571 162<392 425 392 425>
LayerCount: 2
Fore
SplineSet
489 588 m 1xb0
 530 542 565 516 565 506 c 0
 565 503 563 498 553 498 c 0
 541 498 528 505 520 510 c 2
 409 576 l 1
 297 510 l 2
 289 505 276 498 264 498 c 0
 255 498 253 503 253 506 c 0
 253 516 288 542 329 588 c 1
 352 612 l 1
 376 636 l 2
 387 648 399 654 409 654 c 0
 419 654 430 648 442 636 c 2
 466 612 l 1
 489 588 l 1xb0
733 392 m 1
 696 394 l 2
 688 394 680 389 675 377 c 2
 527 -10 l 1
 480 -10 l 1
 358 276 l 1
 231 -10 l 1
 187 -10 l 1
 46 381 l 2
 43 388 37 394 29 394 c 2
 -13 392 l 1
 -13 425 l 1
 241 425 l 1
 241 392 l 1
 197 394 l 1
 195 394 l 2
 182 394 178 384 182 374 c 2xb0
 264 144 l 1
 386 430 l 1
 434 430 l 1x70
 552 150 l 1
 635 377 l 2
 636 380 637 383 637 385 c 0
 637 391 634 395 624 394 c 2
 571 392 l 1
 571 425 l 1
 733 425 l 1
 733 392 l 1
EndSplineSet
EndChar

StartChar: wdieresis
Encoding: 7813 7813 209
Width: 742
Flags: MW
HStem: 394 31<29 33 188.5 195 195 197 624 624 692 696> 410 20G<386 434 434 434> 537 126<280.5 325 280.5 325.5 491.5 536>
VStem: 226 154<580.5 619> 437 154<580.5 619> 571 162<392 425 392 425>
LayerCount: 2
Fore
SplineSet
226 600 m 0xb4
 226 638 258 663 303 663 c 0
 347 663 380 638 380 600 c 0
 380 561 348 537 303 537 c 0
 258 537 226 561 226 600 c 0xb4
437 600 m 0xb8
 437 638 469 663 514 663 c 0
 558 663 591 638 591 600 c 0
 591 561 559 537 514 537 c 0
 469 537 437 561 437 600 c 0xb8
733 392 m 1xb4
 696 394 l 2
 688 394 680 389 675 377 c 2
 527 -10 l 1
 480 -10 l 1
 358 276 l 1
 231 -10 l 1
 187 -10 l 1
 46 381 l 2
 43 388 37 394 29 394 c 2
 -13 392 l 1
 -13 425 l 1
 241 425 l 1
 241 392 l 1
 197 394 l 1
 195 394 l 2
 182 394 178 384 182 374 c 2xb4
 264 144 l 1
 386 430 l 1
 434 430 l 1x74
 552 150 l 1
 635 377 l 2
 636 380 637 383 637 385 c 0
 637 391 634 395 624 394 c 2
 571 392 l 1
 571 425 l 1
 733 425 l 1
 733 392 l 1xb4
EndSplineSet
EndChar

StartChar: wgrave
Encoding: 7809 7809 210
Width: 742
Flags: MW
HStem: 394 31<29 33 188.5 195 195 197 624 624 692 696> 410 20G<386 434 434 434>
VStem: 571 162<392 425 392 425>
LayerCount: 2
Fore
SplineSet
365 633 m 2xa0
 348 652 344 658 329 658 c 0
 305 658 261 635 261 621 c 0
 261 614 266 609 274 603 c 2
 441 501 l 2
 447 497 457 492 465 492 c 0
 472 492 476 496 476 502 c 0
 476 510 471 517 460 529 c 2
 365 633 l 2xa0
733 392 m 1
 696 394 l 2
 688 394 680 389 675 377 c 2
 527 -10 l 1
 480 -10 l 1
 358 276 l 1
 231 -10 l 1
 187 -10 l 1
 46 381 l 2
 43 388 37 394 29 394 c 2
 -13 392 l 1
 -13 425 l 1
 241 425 l 1
 241 392 l 1
 197 394 l 1
 195 394 l 2
 182 394 178 384 182 374 c 2xa0
 264 144 l 1
 386 430 l 1
 434 430 l 1x60
 552 150 l 1
 635 377 l 2
 636 380 637 383 637 385 c 0
 637 391 634 395 624 394 c 2
 571 392 l 1
 571 425 l 1
 733 425 l 1
 733 392 l 1
EndSplineSet
EndChar

StartChar: x
Encoding: 120 120 211
Width: 523
Flags: MW
HStem: 0 32<46 49.5 114.5 119 468.5 472> 394 31<42 45.5 220 224 399 402.5 467.5 471>
VStem: 7 155<0 34 0 34> 356 153<392 425 392 425>
LayerCount: 2
Fore
SplineSet
512 34 m 1
 512 0 l 1
 242 0 l 1
 242 34 l 1
 291 31 l 1
 292 31 l 2
 300 31 302 40 298 45 c 2
 204 178 l 1
 108 46 l 2
 107 45 106 43 106 42 c 0
 106 35 110 32 119 32 c 2
 162 34 l 1
 162 0 l 1
 7 0 l 1
 7 34 l 1
 46 32 l 2
 53 32 61 36 67 45 c 2
 183 208 l 1
 61 381 l 1
 56 390 49 394 42 394 c 2
 7 392 l 1
 7 425 l 1
 270 425 l 1
 270 392 l 1
 224 394 l 2
 216 394 208 389 215 381 c 1
 307 252 l 1
 405 377 l 2
 407 380 408 383 408 386 c 0
 408 390 406 394 399 394 c 2
 356 392 l 1
 356 425 l 1
 509 425 l 1
 509 392 l 1
 471 394 l 2
 464 394 453 388 446 379 c 2
 327 223 l 1
 453 45 l 2
 459 36 465 32 472 32 c 2
 512 34 l 1
EndSplineSet
Position2: "Single Positioning lookup 4 subtable" dx=0 dy=0 dh=-40 dv=0
EndChar

StartChar: y
Encoding: 121 121 212
Width: 501
Flags: MW
HStem: -239 71<68.5 155> 394 31<37 41 206.5 211 388 392 455.5 461 461 463>
VStem: 341 159<392 425 392 425>
LayerCount: 2
Fore
SplineSet
500 425 m 1
 500 392 l 1
 463 394 l 1
 461 394 l 2
 450 394 441 388 436 375 c 2
 232 -116 l 2
 192 -212 152 -239 92 -239 c 0
 45 -239 11 -218 8 -174 c 1
 8 -130 38 -109 65 -109 c 0
 124 -109 115 -168 146 -168 c 0
 164 -168 174 -155 190 -119 c 2
 237 -6 l 1
 53 381 l 2
 49 389 45 394 37 394 c 2
 -2 392 l 1
 -2 425 l 1
 256 425 l 1
 256 392 l 1
 211 394 l 2
 202 394 195 385 199 377 c 2
 306 158 l 1
 398 379 l 2
 399 381 399 383 399 385 c 0
 399 390 396 394 388 394 c 2
 341 392 l 1
 341 425 l 1
 500 425 l 1
EndSplineSet
Position2: "Single Positioning lookup 4 subtable" dx=0 dy=0 dh=-40 dv=0
EndChar

StartChar: yacute
Encoding: 253 253 213
Width: 501
Flags: MW
HStem: -239 71<68.5 155> 394 31<37 41 206.5 211 388 392 455.5 461 461 463>
VStem: 341 159<392 425 392 425>
LayerCount: 2
Fore
SplineSet
316 633 m 2
 333 652 337 658 352 658 c 0
 376 658 420 635 420 621 c 0
 420 614 415 609 407 603 c 2
 240 501 l 2
 234 497 224 492 216 492 c 0
 209 492 205 496 205 502 c 0
 205 510 210 517 221 529 c 2
 316 633 l 2
500 392 m 1
 463 394 l 1
 461 394 l 2
 450 394 441 388 436 375 c 2
 232 -116 l 2
 192 -212 152 -239 92 -239 c 0
 45 -239 11 -218 8 -174 c 1
 8 -130 38 -109 65 -109 c 0
 124 -109 115 -168 146 -168 c 0
 164 -168 174 -155 190 -119 c 2
 237 -6 l 1
 53 381 l 2
 49 389 45 394 37 394 c 2
 -2 392 l 1
 -2 425 l 1
 256 425 l 1
 256 392 l 1
 211 394 l 2
 202 394 195 385 199 377 c 2
 306 158 l 1
 398 379 l 2
 399 381 399 383 399 385 c 0
 399 390 396 394 388 394 c 2
 341 392 l 1
 341 425 l 1
 500 425 l 1
 500 392 l 1
EndSplineSet
EndChar

StartChar: ycircumflex
Encoding: 375 375 214
Width: 501
Flags: MW
HStem: -239 71<68.5 155> 394 31<37 41 206.5 211 388 392 455.5 461 461 463> 576 60<239 272>
VStem: 341 159<392 425 392 425>
LayerCount: 2
Fore
SplineSet
352 588 m 1
 393 542 428 516 428 506 c 0
 428 503 426 498 416 498 c 0
 404 498 391 505 383 510 c 2
 272 576 l 1
 160 510 l 2
 152 505 139 498 127 498 c 0
 118 498 116 503 116 506 c 0
 116 516 151 542 192 588 c 1
 215 612 l 1
 239 636 l 2
 250 648 262 654 272 654 c 0
 282 654 293 648 305 636 c 2
 329 612 l 1
 352 588 l 1
500 392 m 1
 463 394 l 1
 461 394 l 2
 450 394 441 388 436 375 c 2
 232 -116 l 2
 192 -212 152 -239 92 -239 c 0
 45 -239 11 -218 8 -174 c 1
 8 -130 38 -109 65 -109 c 0
 124 -109 115 -168 146 -168 c 0
 164 -168 174 -155 190 -119 c 2
 237 -6 l 1
 53 381 l 2
 49 389 45 394 37 394 c 2
 -2 392 l 1
 -2 425 l 1
 256 425 l 1
 256 392 l 1
 211 394 l 2
 202 394 195 385 199 377 c 2
 306 158 l 1
 398 379 l 2
 399 381 399 383 399 385 c 0
 399 390 396 394 388 394 c 2
 341 392 l 1
 341 425 l 1
 500 425 l 1
 500 392 l 1
EndSplineSet
EndChar

StartChar: ydieresis
Encoding: 255 255 215
Width: 501
Flags: MW
HStem: -239 71<68.5 155> 394 31<37 41 206.5 211 388 392 455.5 461 461 463> 537 126<143.5 188 143.5 188.5 354.5 399>
VStem: 89 154<580.5 619> 300 154<580.5 619> 341 159<392 425 392 425>
LayerCount: 2
Fore
SplineSet
89 600 m 0x74
 89 638 121 663 166 663 c 0
 210 663 243 638 243 600 c 0
 243 561 211 537 166 537 c 0
 121 537 89 561 89 600 c 0x74
300 600 m 0x78
 300 638 332 663 377 663 c 0
 421 663 454 638 454 600 c 0
 454 561 422 537 377 537 c 0
 332 537 300 561 300 600 c 0x78
500 392 m 1xf4
 463 394 l 1
 461 394 l 2
 450 394 441 388 436 375 c 2
 232 -116 l 2
 192 -212 152 -239 92 -239 c 0
 45 -239 11 -218 8 -174 c 1
 8 -130 38 -109 65 -109 c 0
 124 -109 115 -168 146 -168 c 0
 164 -168 174 -155 190 -119 c 2
 237 -6 l 1
 53 381 l 2
 49 389 45 394 37 394 c 2
 -2 392 l 1
 -2 425 l 1
 256 425 l 1
 256 392 l 1
 211 394 l 2
 202 394 195 385 199 377 c 2
 306 158 l 1
 398 379 l 2
 399 381 399 383 399 385 c 0
 399 390 396 394 388 394 c 2
 341 392 l 1
 341 425 l 1
 500 425 l 1
 500 392 l 1xf4
EndSplineSet
EndChar

StartChar: ygrave
Encoding: 7923 7923 216
Width: 501
Flags: MW
HStem: -239 71<68.5 155> 394 31<37 41 206.5 211 388 392 455.5 461 461 463>
VStem: 341 159<392 425 392 425>
LayerCount: 2
Fore
SplineSet
228 633 m 2
 211 652 207 658 192 658 c 0
 168 658 124 635 124 621 c 0
 124 614 129 609 137 603 c 2
 304 501 l 2
 310 497 320 492 328 492 c 0
 335 492 339 496 339 502 c 0
 339 510 334 517 323 529 c 2
 228 633 l 2
500 392 m 1
 463 394 l 1
 461 394 l 2
 450 394 441 388 436 375 c 2
 232 -116 l 2
 192 -212 152 -239 92 -239 c 0
 45 -239 11 -218 8 -174 c 1
 8 -130 38 -109 65 -109 c 0
 124 -109 115 -168 146 -168 c 0
 164 -168 174 -155 190 -119 c 2
 237 -6 l 1
 53 381 l 2
 49 389 45 394 37 394 c 2
 -2 392 l 1
 -2 425 l 1
 256 425 l 1
 256 392 l 1
 211 394 l 2
 202 394 195 385 199 377 c 2
 306 158 l 1
 398 379 l 2
 399 381 399 383 399 385 c 0
 399 390 396 394 388 394 c 2
 341 392 l 1
 341 425 l 1
 500 425 l 1
 500 392 l 1
EndSplineSet
EndChar

StartChar: z
Encoding: 122 122 217
Width: 443
Flags: MW
HStem: 0 33<192 248 248 290> 285 140<46 399 46 399> 393 32<154 186 186 246>
VStem: 377 29<103.5 139>
LayerCount: 2
Fore
SplineSet
406 139 m 1xb0
 406 0 l 1
 138 0 l 2
 87 0 46 -2 34 -2 c 1
 34 26 l 1
 246 393 l 1
 186 393 l 2xb0
 122 393 85 353 74 285 c 1
 46 285 l 1xd0
 55 427 l 1
 59 427 100 425 151 425 c 2
 399 425 l 1
 399 399 l 1
 192 33 l 1
 248 33 l 2
 332 33 377 68 377 139 c 1
 406 139 l 1xb0
EndSplineSet
Position2: "Single Positioning lookup 4 subtable" dx=0 dy=0 dh=-40 dv=0
EndChar

StartChar: zacute
Encoding: 378 378 218
Width: 443
Flags: MW
HStem: 0 33<192 248 248 290> 285 140<46 399 46 399> 393 32<154 186 186 246>
VStem: 377 29<103.5 139>
LayerCount: 2
Fore
SplineSet
265 633 m 2xb0
 282 652 286 658 301 658 c 0
 325 658 369 635 369 621 c 0
 369 614 364 609 356 603 c 2
 189 501 l 2
 183 497 173 492 165 492 c 0
 158 492 154 496 154 502 c 0
 154 510 159 517 170 529 c 2
 265 633 l 2xb0
406 0 m 1
 138 0 l 2
 87 0 46 -2 34 -2 c 1
 34 26 l 1
 246 393 l 1
 186 393 l 2xb0
 122 393 85 353 74 285 c 1
 46 285 l 1xd0
 55 427 l 1
 59 427 100 425 151 425 c 2
 399 425 l 1
 399 399 l 1
 192 33 l 1
 248 33 l 2
 332 33 377 68 377 139 c 1
 406 139 l 1
 406 0 l 1
EndSplineSet
EndChar

